<?xml version="1.0" encoding="UTF-8" standalone="no"?>
<svg
   xmlns:dc="http://purl.org/dc/elements/1.1/"
   xmlns:cc="http://creativecommons.org/ns#"
   xmlns:rdf="http://www.w3.org/1999/02/22-rdf-syntax-ns#"
   xmlns:svg="http://www.w3.org/2000/svg"
   xmlns="http://www.w3.org/2000/svg"
   xmlns:xlink="http://www.w3.org/1999/xlink"
   height="492.41132"
   width="765.4455"
   xml:space="preserve"
   viewBox="0 0 765.44552 492.41132"
   y="0px"
   x="0px"
   id="Layer_1"
   version="1.1"><metadata
     id="metadata2809"><rdf:RDF><cc:Work
         rdf:about=""><dc:format>image/svg+xml</dc:format><dc:type
           rdf:resource="http://purl.org/dc/dcmitype/StillImage" /><dc:title></dc:title></cc:Work></rdf:RDF></metadata><defs
     id="defs2807"><linearGradient
       id="linearGradient8540"><stop
         style="stop-color:#198ce7;stop-opacity:1"
         offset="0"
         id="stop8542" /><stop
         style="stop-color:#198ce7;stop-opacity:1"
         offset="1"
         id="stop8544" /></linearGradient><linearGradient
       id="linearGradient6949"><stop
         id="stop6951"
         offset="0"
         style="stop-color:#198ce7;stop-opacity:1;" /><stop
         id="stop6953"
         offset="1"
         style="stop-color:#198ce7;stop-opacity:0;" /></linearGradient><linearGradient
       gradientUnits="userSpaceOnUse"
       y2="148.43127"
       x2="798.89215"
       y1="134.29173"
       x1="776.2265"
       id="linearGradient8538-9"
       xlink:href="#linearGradient8540"
       gradientTransform="translate(-769.71306,-117.82241)" /><radialGradient
       gradientUnits="userSpaceOnUse"
       r="15.258252"
       fy="133.08066"
       fx="784.97131"
       cy="133.08066"
       cx="784.97131"
       id="radialGradient8524-3"
       xlink:href="#linearGradient8540"
       gradientTransform="translate(-769.71306,-117.82241)" /><radialGradient
       gradientUnits="userSpaceOnUse"
       r="15.258252"
       fy="133.08066"
       fx="784.97131"
       cy="133.08066"
       cx="784.97131"
       id="radialGradient8524-4"
       xlink:href="#linearGradient8540"
       gradientTransform="translate(-769.71306,-117.82241)" /><radialGradient
       gradientUnits="userSpaceOnUse"
       r="15.258252"
       fy="133.08066"
       fx="784.97131"
       cy="133.08066"
       cx="784.97131"
       id="radialGradient8524-6"
       xlink:href="#linearGradient8540"
       gradientTransform="translate(-769.71306,-117.82241)" /><radialGradient
       gradientUnits="userSpaceOnUse"
       r="15.258252"
       fy="133.08066"
       fx="784.97131"
       cy="133.08066"
       cx="784.97131"
       id="radialGradient8524-1"
       xlink:href="#linearGradient8540"
       gradientTransform="translate(-769.71306,-117.82241)" /><radialGradient
       gradientUnits="userSpaceOnUse"
       r="15.258252"
       fy="133.08066"
       fx="784.97131"
       cy="133.08066"
       cx="784.97131"
       id="radialGradient8524-2"
       xlink:href="#linearGradient8540"
       gradientTransform="translate(-769.71306,-117.82241)" /><radialGradient
       gradientUnits="userSpaceOnUse"
       r="15.258252"
       fy="133.08066"
       fx="784.97131"
       cy="133.08066"
       cx="784.97131"
       id="radialGradient8524-9"
       xlink:href="#linearGradient8540"
       gradientTransform="translate(-769.71306,-117.82241)" /><linearGradient
       y2="148.43127"
       x2="798.89215"
       y1="134.29173"
       x1="776.2265"
       gradientTransform="translate(357.60839,185.26524)"
       gradientUnits="userSpaceOnUse"
       id="linearGradient8694"
       xlink:href="#linearGradient8540" /><radialGradient
       r="15.258252"
       fy="133.08066"
       fx="784.97131"
       cy="133.08066"
       cx="784.97131"
       gradientTransform="translate(357.60839,185.26524)"
       gradientUnits="userSpaceOnUse"
       id="radialGradient8696"
       xlink:href="#linearGradient6949" /><linearGradient
       y2="148.43127"
       x2="798.89215"
       y1="134.29173"
       x1="776.2265"
       gradientTransform="translate(257.19923,248.90485)"
       gradientUnits="userSpaceOnUse"
       id="linearGradient8704"
       xlink:href="#linearGradient8540" /><radialGradient
       r="15.258252"
       fy="133.08066"
       fx="784.97131"
       cy="133.08066"
       cx="784.97131"
       gradientTransform="translate(257.19923,248.90485)"
       gradientUnits="userSpaceOnUse"
       id="radialGradient8706"
       xlink:href="#linearGradient6949" /><linearGradient
       y2="148.43127"
       x2="798.89215"
       y1="134.29173"
       x1="776.2265"
       gradientTransform="translate(267.80583,303.35207)"
       gradientUnits="userSpaceOnUse"
       id="linearGradient8714"
       xlink:href="#linearGradient8540" /><radialGradient
       r="15.258252"
       fy="133.08066"
       fx="784.97131"
       cy="133.08066"
       cx="784.97131"
       gradientTransform="translate(267.80583,303.35207)"
       gradientUnits="userSpaceOnUse"
       id="radialGradient8716"
       xlink:href="#linearGradient6949" /><linearGradient
       y2="148.43127"
       x2="798.89215"
       y1="134.29173"
       x1="776.2265"
       gradientTransform="translate(363.97235,277.89623)"
       gradientUnits="userSpaceOnUse"
       id="linearGradient8724"
       xlink:href="#linearGradient8540" /><radialGradient
       r="15.258252"
       fy="133.08066"
       fx="784.97131"
       cy="133.08066"
       cx="784.97131"
       gradientTransform="translate(363.97235,277.89623)"
       gradientUnits="userSpaceOnUse"
       id="radialGradient8726"
       xlink:href="#linearGradient6949" /><radialGradient
       gradientTransform="matrix(1.6780229,0,0,1.6495873,367.65001,16.310506)"
       r="15.258252"
       fy="133.08066"
       fx="784.97131"
       cy="133.08066"
       cx="784.97131"
       gradientUnits="userSpaceOnUse"
       id="radialGradient5851"
       xlink:href="#linearGradient6949" /></defs><style
     id="style3"
     type="text/css">
	.st0{fill:none;stroke:#000000;}
	.st1{fill:#FFFFFF;}
	.st2{fill:none;stroke:#000000;stroke-dasharray:3.845,3.845;}
	.st3{fill:none;stroke:#000000;stroke-dasharray:3.689,3.689;}
	.st4{fill:none;stroke:#000000;stroke-dasharray:3.909,3.909;}
	.st5{fill:none;stroke:#000000;stroke-dasharray:4.042,4.042;}
	.st6{fill:none;stroke:#000000;stroke-dasharray:4.2,4.2;}
	.st7{fill:none;stroke:#000000;stroke-dasharray:3.714,3.714;}
	.st8{fill:none;stroke:#000000;stroke-dasharray:3.336,3.336;}
	.st9{fill:none;stroke:#000000;stroke-dasharray:4,4;}
	.st10{fill:none;stroke:#000000;stroke-dasharray:3.401,3.401;}
	.st11{fill:none;stroke:#000000;stroke-dasharray:3.693,3.693;}
	.st12{fill:none;stroke:#000000;stroke-dasharray:3.634,3.634;}
	.st13{fill:none;stroke:#000000;stroke-dasharray:4.286,4.286;}
	.st14{fill:none;stroke:#000000;stroke-dasharray:3.802,3.802;}
	.st15{fill:none;stroke:#000000;stroke-dasharray:3.938,3.938;}
	.st16{fill:none;stroke:#000000;stroke-dasharray:3.99,3.99;}
	.st17{fill:#007BB9;}
</style><g
     transform="translate(-569.31653,-269.85556)"
     id="layer4"><rect
       y="269.85556"
       x="569.31653"
       height="492.41132"
       width="765.4455"
       id="rect5665"
       style="color:#000000;clip-rule:nonzero;display:inline;overflow:visible;visibility:visible;opacity:1;isolation:auto;mix-blend-mode:normal;color-interpolation:sRGB;color-interpolation-filters:linearRGB;solid-color:#000000;solid-opacity:1;fill:#ffffff;fill-opacity:1;fill-rule:nonzero;stroke:none;stroke-width:4;stroke-linecap:butt;stroke-linejoin:miter;stroke-miterlimit:4;stroke-dasharray:none;stroke-dashoffset:0;stroke-opacity:0;color-rendering:auto;image-rendering:auto;shape-rendering:auto;text-rendering:auto;enable-background:accumulate" /></g><g
     transform="translate(-569.31653,-269.85556)"
     style="display:inline"
     id="layer2"><rect
       id="rect5"
       height="467.57822"
       width="735.18085"
       class="st0"
       y="283.13052"
       x="584.53265"
       style="fill:none;stroke:#000000;stroke-width:0.57303298" /><path
       id="polyline9"
       d="M 995,294.94664 995,472.7"
       style="fill:none;stroke:#000000" /><path
       id="polyline11"
       d="M 892.7,298.39124 892.7,472.7"
       style="fill:none;stroke:#000000" /><path
       id="polyline13"
       d="M 789,307.00273 789,472.7"
       style="fill:none;stroke:#000000" /><path
       id="polyline15"
       d="M 649,301.83583 649,420"
       style="fill:none;stroke:#000000" /><rect
       id="rect19"
       height="67"
       width="326"
       class="st1"
       y="473.5"
       x="785.5"
       style="fill:#ffffff" /><rect
       id="rect21"
       height="67"
       width="326"
       class="st0"
       y="473.5"
       x="785.5"
       style="fill:none;stroke:#000000" /><rect
       id="rect79"
       height="30"
       width="413"
       class="st1"
       y="399.5"
       x="742.5"
       style="fill:#ffffff" /><rect
       id="rect81"
       height="30"
       width="413"
       class="st0"
       y="399.5"
       x="742.5"
       style="fill:none;stroke:#000000" /><rect
       id="rect83"
       height="30"
       width="413"
       class="st1"
       y="492"
       x="742.5"
       style="fill:#ffffff" /><rect
       id="rect85"
       height="30"
       width="413"
       class="st0"
       y="492"
       x="742.5"
       style="fill:none;stroke:#000000" /><path
       id="polyline193"
       d="m 634,484.7 0,196.2 155,0 0,-139.7"
       style="fill:none;stroke:#000000" /><path
       id="polyline195"
       d="m 617,494.5 0,204.5 275,0 0,-157.8"
       style="fill:none;stroke:#000000" /><path
       id="polyline197"
       d="m 598,718 394,0 0,-176.8"
       style="fill:none;stroke:#000000" /><path
       id="polyline199"
       d="m 1076,541.2 0,194.7"
       style="fill:none;stroke:#000000" /><path
       id="polyline219"
       d="m 1128,398.8 0,-108.4851"
       style="fill:none;stroke:#000000" /><polyline
       id="polyline225"
       points="1128,429.5 1128,456.7 1076.5,456.7 1076.5,472.7 "
       class="st0"
       style="fill:none;stroke:#000000" /><path
       id="polyline427"
       d="M 700.5,303.55813 700.5,417.7"
       style="fill:none;stroke:#000000" /><g
       id="g443"><path
         style="fill:none;stroke:#000000"
         id="path445"
         d="m 742.9,589.4 c 0,6.2 5,11.2 11.2,11.2 6.2,0 11.2,-5 11.2,-11.2"
         class="st0" /><path
         style="fill:none;stroke:#000000"
         id="path447"
         d="m 765.9,589.4 c 0,6.2 5,11.2 11.2,11.2 6.2,0 11.2,-5 11.2,-11.2"
         class="st0" /><path
         style="fill:none;stroke:#000000"
         id="path449"
         d="m 788.9,589.4 c 0,6.2 5,11.2 11.2,11.2 6.2,0 11.2,-5 11.2,-11.2"
         class="st0" /><path
         style="fill:none;stroke:#000000"
         id="path451"
         d="m 811.9,589.4 c 0,6.2 5,11.2 11.2,11.2 6.2,0 11.2,-5 11.2,-11.2"
         class="st0" /><path
         style="fill:none;stroke:#000000"
         id="path453"
         d="m 834.9,589.4 c 0,6.2 5,11.2 11.2,11.2 6.2,0 11.2,-5 11.2,-11.2"
         class="st0" /><path
         style="fill:none;stroke:#000000"
         id="path455"
         d="m 857.9,589.4 c 0,6.2 5,11.2 11.2,11.2 6.2,0 11.2,-5 11.2,-11.2"
         class="st0" /><path
         style="fill:none;stroke:#000000"
         id="path457"
         d="m 880.9,589.4 c 0,6.2 5,11.2 11.2,11.2 6.2,0 11.2,-5 11.2,-11.2"
         class="st0" /><path
         style="fill:none;stroke:#000000"
         id="path459"
         d="m 903.9,589.4 c 0,6.2 5,11.2 11.2,11.2 6.2,0 11.2,-5 11.2,-11.2"
         class="st0" /><path
         style="fill:none;stroke:#000000"
         id="path461"
         d="m 926.9,589.4 c 0,6.2 5,11.2 11.2,11.2 6.2,0 11.2,-5 11.2,-11.2"
         class="st0" /><path
         style="fill:none;stroke:#000000"
         id="path463"
         d="m 949.9,589.4 c 0,6.2 5,11.2 11.2,11.2 6.2,0 11.2,-5 11.2,-11.2"
         class="st0" /><path
         style="fill:none;stroke:#000000"
         id="path465"
         d="m 972.9,589.4 c 0,6.2 5,11.2 11.2,11.2 6.2,0 11.2,-5 11.2,-11.2"
         class="st0" /><path
         style="fill:none;stroke:#000000"
         id="path467"
         d="m 995.9,589.4 c 0,6.2 5,11.2 11.2,11.2 6.2,0 11.2,-5 11.2,-11.2"
         class="st0" /><path
         style="fill:none;stroke:#000000"
         id="path469"
         d="m 1018.9,589.4 c 0,6.2 5,11.2 11.2,11.2 6.2,0 11.2,-5 11.2,-11.2"
         class="st0" /><path
         style="fill:none;stroke:#000000"
         id="path471"
         d="m 1041.9,589.4 c 0,6.2 5,11.2 11.2,11.2 6.2,0 11.2,-5 11.2,-11.2"
         class="st0" /><path
         style="fill:none;stroke:#000000"
         id="path473"
         d="m 1064.9,589.4 c 0,6.2 5,11.2 11.2,11.2 6.2,0 11.2,-5 11.2,-11.2"
         class="st0" /><path
         style="fill:none;stroke:#000000"
         id="path475"
         d="m 1087.9,589.4 c 0,6.2 5,11.2 11.2,11.2 6.2,0 11.2,-5 11.2,-11.2"
         class="st0" /><path
         style="fill:none;stroke:#000000"
         id="path477"
         d="m 1110.9,589.4 c 0,6.2 5,11.2 11.2,11.2 6.2,0 11.2,-5 11.2,-11.2"
         class="st0" /><path
         style="fill:none;stroke:#000000"
         id="path479"
         d="m 1133.9,589.4 c 0,6.2 5,11.2 11.2,11.2 6.2,0 11.2,-5 11.2,-11.2"
         class="st0" /></g><g
       id="g483"><path
         style="fill:none;stroke:#000000"
         id="path485"
         d="m 1185,644.2 0,-92.4 c 0,0 0,-7 -7,-7"
         class="st0" /><path
         style="fill:none;stroke:#000000"
         id="path487"
         d="m 1185,651.6 0,92.6 c 0,0 0,7 -7,7"
         class="st0" /></g><polyline
       id="polyline489"
       points="1184.7,643.4 1190.7,648 1184.7,652 "
       class="st0"
       style="fill:none;stroke:#000000" /><g
       id="g491"><path
         style="fill:none;stroke:#000000"
         id="path493"
         d="m 1185,483.7 0,-22.7 c 0,0 0,-7 -7,-7"
         class="st0" /><path
         style="fill:none;stroke:#000000"
         id="path495"
         d="m 1185,490.7 0,22.7 c 0,0 0,7 -7,7"
         class="st0" /></g><polyline
       id="polyline497"
       points="1184.7,482.8 1190.7,487.5 1184.7,491.5 "
       class="st0"
       style="fill:none;stroke:#000000" /><g
       id="g499"><path
         style="fill:none;stroke:#000000"
         id="path501"
         d="m 1185,358 0,-69.2 c 0,0 0,-7 -7,-7"
         class="st0" /><path
         style="fill:none;stroke:#000000"
         id="path503"
         d="m 1185,365 0,69.2 c 0,0 0,7 -7,7"
         class="st0" /></g><polyline
       id="polyline505"
       points="1184.7,357.3 1190.7,361.9 1184.7,365.9 "
       class="st0"
       style="fill:none;stroke:#000000" /><g
       id="g1389"><path
         id="path1391"
         d="m 1219.2,344.1 c 0,1.8 -0.5,3.1 -1.5,4.1 -1,0.9 -2.5,1.4 -4.3,1.4 l -3,0 0,-10.7 3.4,0 c 1.7,0 3.1,0.5 4.1,1.4 1,0.9 1.3,2.1 1.3,3.8 z m -2.3,0 c 0,-2.3 -1,-3.4 -3,-3.4 l -1.2,0 0,7 1,0 c 2.1,-0.1 3.2,-1.2 3.2,-3.6 z" /><path
         id="path1393"
         d="m 1227.6,349.5 -6.2,0 0,-10.7 6.2,0 0,1.9 -3.9,0 0,2.4 3.6,0 0,1.9 -3.6,0 0,2.8 3.9,0 0,1.7 z" /><path
         id="path1395"
         d="m 1234.4,340.5 c -0.9,0 -1.5,0.3 -2,1 -0.5,0.7 -0.7,1.5 -0.7,2.7 0,2.4 0.9,3.6 2.7,3.6 0.8,0 1.7,-0.2 2.7,-0.6 l 0,1.9 c -0.9,0.4 -1.9,0.5 -2.9,0.5 -1.6,0 -2.7,-0.5 -3.6,-1.4 -0.8,-0.9 -1.2,-2.3 -1.2,-4.1 0,-1.1 0.2,-2.1 0.6,-2.9 0.4,-0.8 1,-1.5 1.7,-1.9 0.8,-0.4 1.6,-0.7 2.7,-0.7 1,0 2.1,0.3 3.1,0.8 l -0.7,1.8 c -0.4,-0.2 -0.8,-0.4 -1.2,-0.5 -0.4,-0.1 -0.8,-0.2 -1.2,-0.2 z" /><path
         id="path1397"
         d="m 1248,349.5 -2.6,0 -2.8,-4.5 -1,0.7 0,3.8 -2.3,0 0,-10.7 2.3,0 0,4.9 0.9,-1.3 2.9,-3.6 2.5,0 -3.7,4.7 3.8,6 z" /></g><g
       id="g1399"><path
         id="path1401"
         d="m 1214.9,358.5 c -0.9,0 -1.5,0.3 -2,1 -0.5,0.7 -0.7,1.5 -0.7,2.7 0,2.4 0.9,3.6 2.7,3.6 0.8,0 1.7,-0.2 2.7,-0.6 l 0,1.9 c -0.9,0.4 -1.9,0.5 -2.9,0.5 -1.6,0 -2.7,-0.5 -3.6,-1.4 -0.8,-0.9 -1.2,-2.3 -1.2,-4.1 0,-1.1 0.2,-2.1 0.6,-2.9 0.4,-0.8 1,-1.5 1.7,-1.9 0.8,-0.4 1.6,-0.7 2.7,-0.7 1,0 2.1,0.3 3.1,0.8 l -0.7,1.8 c -0.4,-0.2 -0.8,-0.4 -1.2,-0.5 -0.4,-0.1 -0.8,-0.2 -1.2,-0.2 z" /><path
         id="path1403"
         d="m 1226.5,367.5 -0.8,-2.5 -3.9,0 -0.8,2.5 -2.4,0 3.8,-10.8 2.8,0 3.8,10.8 -2.5,0 z m -1.4,-4.4 c -0.7,-2.3 -1.1,-3.6 -1.2,-3.9 -0.1,-0.3 -0.2,-0.5 -0.2,-0.7 -0.2,0.6 -0.6,2.2 -1.4,4.6 l 2.8,0 z" /><path
         id="path1405"
         d="m 1230.3,356.8 3.3,0 c 1.5,0 2.6,0.2 3.3,0.6 0.7,0.4 1,1.1 1,2.1 0,0.6 -0.1,1.2 -0.5,1.6 -0.3,0.4 -0.7,0.7 -1.2,0.7 l 0,0.1 c 0.7,0.2 1.2,0.4 1.5,0.8 0.3,0.4 0.5,1 0.5,1.7 0,1 -0.4,1.7 -1.1,2.3 -0.7,0.5 -1.7,0.8 -2.9,0.8 l -4,0 0,-10.7 z m 2.2,4.3 1.3,0 c 0.6,0 1.1,-0.1 1.3,-0.3 0.3,-0.2 0.4,-0.5 0.4,-0.9 0,-0.4 -0.2,-0.7 -0.5,-0.9 -0.3,-0.2 -0.8,-0.3 -1.4,-0.3 l -1.2,0 0,2.4 z m 0,1.8 0,2.8 1.5,0 c 0.6,0 1.1,-0.1 1.4,-0.4 0.3,-0.2 0.4,-0.6 0.4,-1.1 0,-0.9 -0.6,-1.3 -1.9,-1.3 l -1.4,0 z" /><path
         id="path1407"
         d="m 1240.3,367.5 0,-10.7 2.3,0 0,8.8 4.3,0 0,1.9 -6.6,0 z" /><path
         id="path1409"
         d="m 1248.8,367.5 0,-10.7 2.3,0 0,10.7 -2.3,0 z" /><path
         id="path1411"
         d="m 1263.3,367.5 -2.9,0 -4.7,-8.1 -0.1,0 c 0.1,1.4 0.1,2.5 0.1,3.1 l 0,5 -2,0 0,-10.7 2.9,0 4.7,8 0.1,0 c -0.1,-1.4 -0.1,-2.4 -0.1,-3 l 0,-5.1 2,0 0,10.8 z" /><path
         id="path1413"
         d="m 1270,361.5 4.2,0 0,5.6 c -0.7,0.2 -1.3,0.4 -1.9,0.5 -0.6,0.1 -1.2,0.1 -1.9,0.1 -1.6,0 -2.8,-0.5 -3.7,-1.4 -0.9,-0.9 -1.3,-2.3 -1.3,-4.1 0,-1.7 0.5,-3.1 1.5,-4 1,-1 2.4,-1.5 4.1,-1.5 1.1,0 2.2,0.2 3.2,0.7 l -0.8,1.8 c -0.8,-0.4 -1.6,-0.6 -2.4,-0.6 -1,0 -1.8,0.3 -2.4,1 -0.6,0.7 -0.9,1.5 -0.9,2.7 0,1.2 0.2,2 0.7,2.7 0.5,0.6 1.2,0.9 2.1,0.9 0.5,0 1,0 1.4,-0.1 l 0,-2.2 -2,0 0,-2.1 z" /></g><g
       id="g1415"><path
         id="path1417"
         d="m 1213.7,382.3 -4.2,0 0,-0.6 1.7,-1.7 c 0.5,-0.5 0.9,-0.9 1,-1.1 0.1,-0.2 0.3,-0.4 0.4,-0.7 0.1,-0.3 0.1,-0.4 0.1,-0.7 0,-0.3 -0.1,-0.6 -0.3,-0.8 -0.2,-0.2 -0.5,-0.3 -0.9,-0.3 -0.3,0 -0.5,0 -0.8,0.1 -0.2,0.1 -0.5,0.2 -0.8,0.5 l -0.4,-0.5 c 0.6,-0.5 1.2,-0.7 1.9,-0.7 0.6,0 1.1,0.2 1.4,0.5 0.3,0.3 0.5,0.7 0.5,1.2 0,0.4 -0.1,0.8 -0.3,1.2 -0.2,0.4 -0.7,0.9 -1.3,1.5 l -1.4,1.4 0,0 3.3,0 0,0.7 z" /><path
         id="path1419"
         d="m 1218.8,379.1 c 0,1.1 -0.2,1.9 -0.5,2.5 -0.4,0.5 -0.9,0.8 -1.6,0.8 -0.7,0 -1.2,-0.3 -1.6,-0.8 -0.4,-0.6 -0.5,-1.4 -0.5,-2.5 0,-1.1 0.2,-1.9 0.5,-2.5 0.3,-0.6 0.9,-0.8 1.6,-0.8 0.7,0 1.2,0.3 1.6,0.8 0.4,0.6 0.5,1.4 0.5,2.5 z m -3.5,0 c 0,0.9 0.1,1.6 0.3,2 0.2,0.4 0.6,0.6 1.1,0.6 0.5,0 0.8,-0.2 1.1,-0.6 0.2,-0.4 0.3,-1.1 0.3,-2 0,-0.9 -0.1,-1.6 -0.3,-2 -0.2,-0.4 -0.6,-0.6 -1.1,-0.6 -0.5,0 -0.8,0.2 -1.1,0.6 -0.2,0.4 -0.3,1.1 -0.3,2 z" /><path
         id="path1421"
         d="m 1219.7,380.2 0,-0.7 2.2,0 0,0.7 -2.2,0 z" /><path
         id="path1423"
         d="m 1224.6,378.4 c 0.7,0 1.2,0.2 1.6,0.5 0.4,0.3 0.6,0.8 0.6,1.4 0,0.7 -0.2,1.2 -0.6,1.6 -0.4,0.4 -1,0.6 -1.8,0.6 -0.7,0 -1.3,-0.1 -1.7,-0.3 l 0,-0.7 c 0.2,0.1 0.5,0.2 0.8,0.3 0.3,0.1 0.6,0.1 0.9,0.1 0.5,0 0.9,-0.1 1.2,-0.4 0.3,-0.2 0.4,-0.6 0.4,-1.1 0,-0.9 -0.5,-1.3 -1.6,-1.3 -0.3,0 -0.7,0 -1.1,0.1 l -0.4,-0.2 0.2,-3 3.2,0 0,0.7 -2.6,0 -0.2,1.9 c 0.5,-0.2 0.8,-0.2 1.1,-0.2 z" /><path
         id="path1425"
         d="m 1232,379.1 c 0,1.1 -0.2,1.9 -0.5,2.5 -0.4,0.5 -0.9,0.8 -1.6,0.8 -0.7,0 -1.2,-0.3 -1.6,-0.8 -0.4,-0.6 -0.5,-1.4 -0.5,-2.5 0,-1.1 0.2,-1.9 0.5,-2.5 0.3,-0.6 0.9,-0.8 1.6,-0.8 0.7,0 1.2,0.3 1.6,0.8 0.4,0.6 0.5,1.4 0.5,2.5 z m -3.5,0 c 0,0.9 0.1,1.6 0.3,2 0.2,0.4 0.6,0.6 1.1,0.6 0.5,0 0.8,-0.2 1.1,-0.6 0.2,-0.4 0.3,-1.1 0.3,-2 0,-0.9 -0.1,-1.6 -0.3,-2 -0.2,-0.4 -0.6,-0.6 -1.1,-0.6 -0.5,0 -0.8,0.2 -1.1,0.6 -0.2,0.4 -0.3,1.1 -0.3,2 z" /><path
         id="path1427"
         d="m 1236.2,382.3 -2.2,-5.7 0,0 c 0,0.5 0.1,1 0.1,1.6 l 0,4.1 -0.7,0 0,-6.4 1.1,0 2,5.3 0,0 2.1,-5.3 1.1,0 0,6.4 -0.7,0 0,-4.1 c 0,-0.5 0,-1 0.1,-1.5 l 0,0 -2.2,5.7 -0.7,0 z" /><path
         id="path1429"
         d="m 1245.8,382.3 -0.7,0 0,-5.8 -2,0 0,-0.7 4.8,0 0,0.7 -2,0 0,5.8 z" /><path
         id="path1431"
         d="m 1250.4,379.1 1.7,-3.2 0.8,0 -2.1,3.9 0,2.5 -0.8,0 0,-2.5 -2.1,-4 0.8,0 1.7,3.3 z" /><path
         id="path1433"
         d="m 1257.9,377.8 c 0,0.7 -0.2,1.2 -0.7,1.5 -0.4,0.4 -1.1,0.5 -1.9,0.5 l -0.8,0 0,2.5 -0.7,0 0,-6.4 1.7,0 c 1.6,0 2.4,0.6 2.4,1.9 z m -3.3,1.4 0.7,0 c 0.7,0 1.1,-0.1 1.4,-0.3 0.3,-0.2 0.4,-0.6 0.4,-1 0,-0.4 -0.1,-0.7 -0.4,-0.9 -0.3,-0.2 -0.7,-0.3 -1.3,-0.3 l -0.8,0 0,2.5 z" /><path
         id="path1435"
         d="m 1259.3,382.3 0,-6.4 0.7,0 0,6.4 -0.7,0 z" /><path
         id="path1437"
         d="m 1264.5,376.5 c -0.7,0 -1.3,0.2 -1.7,0.7 -0.4,0.5 -0.6,1.1 -0.6,1.9 0,0.8 0.2,1.5 0.6,1.9 0.4,0.5 1,0.7 1.7,0.7 0.4,0 1,-0.1 1.5,-0.2 l 0,0.7 c -0.4,0.2 -1,0.3 -1.6,0.3 -0.9,0 -1.7,-0.3 -2.2,-0.9 -0.5,-0.6 -0.8,-1.4 -0.8,-2.4 0,-0.7 0.1,-1.2 0.4,-1.7 0.2,-0.5 0.6,-0.9 1.1,-1.2 0.5,-0.3 1,-0.4 1.6,-0.4 0.7,0 1.3,0.1 1.8,0.4 l -0.3,0.6 c -0.5,-0.3 -1,-0.4 -1.5,-0.4 z" /><path
         id="path1439"
         d="m 1271.5,382.3 -0.8,-2 -2.6,0 -0.8,2 -0.8,0 2.5,-6.5 0.6,0 2.5,6.5 -0.6,0 z m -1,-2.7 -0.7,-2 c -0.1,-0.3 -0.2,-0.6 -0.3,-0.9 -0.1,0.3 -0.2,0.6 -0.3,0.9 l -0.8,2 2.1,0 z" /><path
         id="path1441"
         d="m 1273.1,382.3 0,-6.4 0.7,0 0,5.7 2.8,0 0,0.7 -3.5,0 z" /><path
         id="path1443"
         d="m 1277.8,382.3 0,-6.4 0.7,0 0,5.7 2.8,0 0,0.7 -3.5,0 z" /><path
         id="path1445"
         d="m 1284.1,379.1 1.7,-3.2 0.8,0 -2.1,3.9 0,2.5 -0.8,0 0,-2.5 -2.1,-4 0.8,0 1.7,3.3 z" /></g><g
       id="g1447"><path
         id="path1449"
         d="m 1219.1,470.1 0,6.9 c 0,0.8 -0.2,1.5 -0.5,2.1 -0.4,0.6 -0.9,1.1 -1.5,1.4 -0.7,0.3 -1.5,0.5 -2.4,0.5 -1.4,0 -2.4,-0.4 -3.2,-1.1 -0.8,-0.7 -1.1,-1.7 -1.1,-2.9 l 0,-6.9 2.3,0 0,6.6 c 0,0.8 0.2,1.4 0.5,1.8 0.3,0.4 0.9,0.6 1.6,0.6 0.7,0 1.3,-0.2 1.6,-0.6 0.3,-0.4 0.5,-1 0.5,-1.8 l 0,-6.5 2.2,0 z" /><path
         id="path1451"
         d="m 1226.2,480.8 -2.6,-8.4 -0.1,0 c 0.1,1.7 0.1,2.8 0.1,3.4 l 0,5 -2,0 0,-10.7 3.1,0 2.5,8.2 0,0 2.7,-8.2 3.1,0 0,10.7 -2.1,0 0,-5.1 c 0,-0.2 0,-0.5 0,-0.8 0,-0.3 0,-1.1 0.1,-2.5 l -0.1,0 -2.8,8.4 -1.9,0 z" /><path
         id="path1453"
         d="m 1235.8,470.1 3.3,0 c 1.5,0 2.6,0.2 3.3,0.6 0.7,0.4 1,1.1 1,2.1 0,0.6 -0.1,1.2 -0.5,1.6 -0.3,0.4 -0.7,0.7 -1.2,0.7 l 0,0.1 c 0.7,0.2 1.2,0.4 1.5,0.8 0.3,0.4 0.5,1 0.5,1.7 0,1 -0.4,1.7 -1.1,2.3 -0.7,0.5 -1.7,0.8 -2.9,0.8 l -4,0 0,-10.7 z m 2.3,4.3 1.3,0 c 0.6,0 1.1,-0.1 1.3,-0.3 0.3,-0.2 0.4,-0.5 0.4,-0.9 0,-0.4 -0.2,-0.7 -0.5,-0.9 -0.3,-0.2 -0.8,-0.3 -1.4,-0.3 l -1.2,0 0,2.4 z m 0,1.8 0,2.8 1.5,0 c 0.6,0 1.1,-0.1 1.4,-0.4 0.3,-0.2 0.4,-0.6 0.4,-1.1 0,-0.9 -0.6,-1.3 -1.9,-1.3 l -1.4,0 z" /><path
         id="path1455"
         d="m 1245.9,480.8 0,-10.7 2.3,0 0,10.7 -2.3,0 z" /><path
         id="path1457"
         d="m 1250.9,480.8 0,-10.7 2.3,0 0,8.8 4.3,0 0,1.9 -6.6,0 z" /><path
         id="path1459"
         d="m 1259.3,480.8 0,-10.7 2.3,0 0,10.7 -2.3,0 z" /><path
         id="path1461"
         d="m 1268.9,471.9 c -0.9,0 -1.5,0.3 -2,1 -0.5,0.6 -0.7,1.5 -0.7,2.7 0,2.4 0.9,3.6 2.7,3.6 0.8,0 1.7,-0.2 2.7,-0.6 l 0,1.9 c -0.9,0.4 -1.9,0.5 -2.9,0.5 -1.6,0 -2.7,-0.5 -3.6,-1.4 -0.8,-0.9 -1.2,-2.3 -1.2,-4.1 0,-1.1 0.2,-2.1 0.6,-2.9 0.4,-0.8 1,-1.5 1.7,-1.9 0.8,-0.4 1.6,-0.7 2.7,-0.7 1,0 2.1,0.3 3.1,0.8 l -0.7,1.8 c -0.4,-0.2 -0.8,-0.4 -1.2,-0.5 -0.4,-0.1 -0.8,-0.2 -1.2,-0.2 z" /><path
         id="path1463"
         d="m 1280.4,480.8 -0.8,-2.5 -3.9,0 -0.8,2.5 -2.4,0 3.8,-10.8 2.8,0 3.8,10.8 -2.5,0 z m -1.3,-4.4 c -0.7,-2.3 -1.1,-3.6 -1.2,-3.9 -0.1,-0.3 -0.2,-0.5 -0.2,-0.7 -0.2,0.6 -0.6,2.2 -1.4,4.6 l 2.8,0 z" /><path
         id="path1465"
         d="m 1284.2,480.8 0,-10.7 2.3,0 0,8.8 4.3,0 0,1.9 -6.6,0 z" /></g><g
       id="g1467"><path
         id="path1469"
         d="m 1212.1,495.6 -0.7,0 0,-4.6 c 0,-0.4 0,-0.7 0,-1.1 -0.1,0.1 -0.1,0.1 -0.2,0.2 -0.1,0.1 -0.4,0.4 -1,0.9 l -0.4,-0.5 1.7,-1.3 0.6,0 0,6.4 z" /><path
         id="path1471"
         d="m 1214.5,493.6 0,-0.7 2.2,0 0,0.7 -2.2,0 z" /><path
         id="path1473"
         d="m 1221.5,490.7 c 0,0.4 -0.1,0.7 -0.3,1 -0.2,0.3 -0.6,0.4 -1,0.5 l 0,0 c 0.5,0.1 0.9,0.2 1.1,0.5 0.2,0.3 0.4,0.6 0.4,1 0,0.6 -0.2,1.1 -0.6,1.4 -0.4,0.3 -1,0.5 -1.8,0.5 -0.3,0 -0.7,0 -0.9,-0.1 -0.3,-0.1 -0.6,-0.1 -0.8,-0.3 l 0,-0.7 c 0.3,0.1 0.6,0.2 0.9,0.3 0.3,0.1 0.6,0.1 0.9,0.1 1.1,0 1.7,-0.4 1.7,-1.3 0,-0.8 -0.6,-1.2 -1.8,-1.2 l -0.6,0 0,-0.4 0.6,0 c 0.5,0 0.9,-0.1 1.2,-0.3 0.3,-0.2 0.4,-0.5 0.4,-0.9 0,-0.3 -0.1,-0.6 -0.3,-0.7 -0.2,-0.2 -0.5,-0.3 -0.9,-0.3 -0.3,0 -0.5,0 -0.8,0.1 -0.2,0.1 -0.5,0.2 -0.9,0.4 l -0.4,-0.5 c 0.3,-0.2 0.6,-0.4 0.9,-0.5 0.3,-0.1 0.7,-0.2 1.1,-0.2 0.6,0 1.1,0.1 1.5,0.4 0.2,0.3 0.4,0.7 0.4,1.2 z" /><path
         id="path1475"
         d="m 1227.7,495.6 -0.9,0 -2.3,-3.1 -0.7,0.6 0,2.5 -0.7,0 0,-6.4 0.7,0 0,3.2 2.9,-3.2 0.9,0 -2.6,2.8 2.7,3.6 z" /><path
         id="path1477"
         d="m 1231.4,495.6 -2.2,-5.7 0,0 c 0,0.5 0.1,1 0.1,1.6 l 0,4.1 -0.7,0 0,-6.4 1.1,0 2,5.3 0,0 2.1,-5.3 1.1,0 0,6.4 -0.7,0 0,-4.1 c 0,-0.5 0,-1 0.1,-1.5 l 0,0 -2.2,5.7 -0.7,0 z" /><path
         id="path1479"
         d="m 1241,495.6 -0.7,0 0,-5.8 -2,0 0,-0.7 4.8,0 0,0.7 -2,0 0,5.8 z" /><path
         id="path1481"
         d="m 1245.7,492.4 1.7,-3.2 0.8,0 -2.1,3.9 0,2.5 -0.8,0 0,-2.5 -2.1,-4 0.8,0 1.7,3.3 z" /><path
         id="path1483"
         d="m 1253.2,491.1 c 0,0.7 -0.2,1.2 -0.7,1.5 -0.4,0.3 -1.1,0.5 -1.9,0.5 l -0.8,0 0,2.5 -0.7,0 0,-6.4 1.7,0 c 1.6,0 2.4,0.6 2.4,1.9 z m -3.4,1.4 0.7,0 c 0.7,0 1.1,-0.1 1.4,-0.3 0.3,-0.2 0.4,-0.6 0.4,-1 0,-0.4 -0.1,-0.7 -0.4,-0.9 -0.3,-0.2 -0.7,-0.3 -1.3,-0.3 l -0.8,0 0,2.5 z" /><path
         id="path1485"
         d="m 1254.5,495.6 0,-6.4 0.7,0 0,6.4 -0.7,0 z" /><path
         id="path1487"
         d="m 1259.8,489.8 c -0.7,0 -1.3,0.2 -1.7,0.7 -0.4,0.5 -0.6,1.1 -0.6,1.9 0,0.8 0.2,1.5 0.6,1.9 0.4,0.5 1,0.7 1.7,0.7 0.4,0 1,-0.1 1.5,-0.2 l 0,0.7 c -0.4,0.2 -1,0.2 -1.6,0.2 -0.9,0 -1.7,-0.3 -2.2,-0.9 -0.5,-0.6 -0.8,-1.4 -0.8,-2.4 0,-0.7 0.1,-1.2 0.4,-1.7 0.2,-0.5 0.6,-0.9 1.1,-1.2 0.5,-0.3 1,-0.4 1.6,-0.4 0.7,0 1.3,0.1 1.8,0.4 l -0.3,0.6 c -0.6,-0.2 -1.1,-0.3 -1.5,-0.3 z" /><path
         id="path1489"
         d="m 1266.7,495.6 -0.8,-2 -2.6,0 -0.8,2 -0.8,0 2.5,-6.5 0.6,0 2.5,6.5 -0.6,0 z m -1,-2.7 -0.7,-2 c -0.1,-0.3 -0.2,-0.6 -0.3,-0.9 -0.1,0.3 -0.2,0.6 -0.3,0.9 l -0.8,2 2.1,0 z" /><path
         id="path1491"
         d="m 1268.4,495.6 0,-6.4 0.7,0 0,5.7 2.8,0 0,0.7 -3.5,0 z" /><path
         id="path1493"
         d="m 1273.1,495.6 0,-6.4 0.7,0 0,5.7 2.8,0 0,0.7 -3.5,0 z" /><path
         id="path1495"
         d="m 1279.4,492.4 1.7,-3.2 0.8,0 -2.1,3.9 0,2.5 -0.8,0 0,-2.5 -2.1,-4 0.8,0 1.7,3.3 z" /></g><g
       id="g1497"><path
         id="path1499"
         d="m 1214.5,644.9 -2.3,0 0,-8.8 -2.9,0 0,-1.9 8.1,0 0,1.9 -2.9,0 0,8.8 z" /><path
         id="path1501"
         d="m 1225.2,644.9 -6.2,0 0,-10.7 6.2,0 0,1.9 -3.9,0 0,2.4 3.6,0 0,1.9 -3.6,0 0,2.8 3.9,0 0,1.7 z" /><path
         id="path1503"
         d="m 1231.6,644.9 -2.3,0 0,-8.8 -2.9,0 0,-1.9 8.1,0 0,1.9 -2.9,0 0,8.8 z" /><path
         id="path1505"
         d="m 1244.9,644.9 -2.3,0 0,-4.6 -4.2,0 0,4.6 -2.3,0 0,-10.7 2.3,0 0,4.2 4.2,0 0,-4.2 2.3,0 0,10.7 z" /><path
         id="path1507"
         d="m 1253.8,644.9 -6.2,0 0,-10.7 6.2,0 0,1.9 -3.9,0 0,2.4 3.6,0 0,1.9 -3.6,0 0,2.8 3.9,0 0,1.7 z" /><path
         id="path1509"
         d="m 1258.3,640.8 0,4.1 -2.3,0 0,-10.7 3.1,0 c 1.5,0 2.5,0.3 3.2,0.8 0.7,0.5 1,1.3 1,2.4 0,0.6 -0.2,1.2 -0.5,1.7 -0.3,0.5 -0.8,0.9 -1.5,1.2 1.6,2.4 2.7,4 3.1,4.7 l -2.5,0 -2.6,-4.1 -1,0 z m 0,-1.8 0.7,0 c 0.7,0 1.2,-0.1 1.6,-0.4 0.4,-0.3 0.5,-0.6 0.5,-1.1 0,-0.5 -0.2,-0.9 -0.5,-1.1 -0.3,-0.2 -0.9,-0.3 -1.6,-0.3 l -0.7,0 0,2.9 z" /></g><g
       id="g1511"><path
         id="path1513"
         d="m 1212.1,659.7 -0.7,0 0,-4.6 c 0,-0.4 0,-0.7 0,-1.1 -0.1,0.1 -0.1,0.1 -0.2,0.2 -0.1,0.1 -0.4,0.4 -1,0.9 l -0.4,-0.5 1.7,-1.3 0.6,0 0,6.4 z" /><path
         id="path1515"
         d="m 1218.8,656.5 c 0,1.1 -0.2,1.9 -0.5,2.5 -0.4,0.5 -0.9,0.8 -1.6,0.8 -0.7,0 -1.2,-0.3 -1.6,-0.8 -0.4,-0.6 -0.5,-1.4 -0.5,-2.5 0,-1.1 0.2,-2 0.5,-2.5 0.3,-0.5 0.9,-0.8 1.6,-0.8 0.7,0 1.2,0.3 1.6,0.8 0.4,0.6 0.5,1.4 0.5,2.5 z m -3.5,0 c 0,0.9 0.1,1.6 0.3,2 0.2,0.4 0.6,0.6 1.1,0.6 0.5,0 0.8,-0.2 1.1,-0.6 0.2,-0.4 0.3,-1.1 0.3,-2 0,-0.9 -0.1,-1.6 -0.3,-2 -0.2,-0.4 -0.6,-0.6 -1.1,-0.6 -0.5,0 -0.8,0.2 -1.1,0.6 -0.2,0.4 -0.3,1.1 -0.3,2 z" /><path
         id="path1517"
         d="m 1224,656.5 c 0,1.1 -0.2,1.9 -0.5,2.5 -0.4,0.5 -0.9,0.8 -1.6,0.8 -0.7,0 -1.2,-0.3 -1.6,-0.8 -0.4,-0.6 -0.5,-1.4 -0.5,-2.5 0,-1.1 0.2,-2 0.5,-2.5 0.3,-0.5 0.9,-0.8 1.6,-0.8 0.7,0 1.2,0.3 1.6,0.8 0.3,0.6 0.5,1.4 0.5,2.5 z m -3.5,0 c 0,0.9 0.1,1.6 0.3,2 0.2,0.4 0.6,0.6 1.1,0.6 0.5,0 0.8,-0.2 1.1,-0.6 0.2,-0.4 0.3,-1.1 0.3,-2 0,-0.9 -0.1,-1.6 -0.3,-2 -0.2,-0.4 -0.6,-0.6 -1.1,-0.6 -0.5,0 -0.8,0.2 -1.1,0.6 -0.2,0.4 -0.3,1.1 -0.3,2 z" /><path
         id="path1519"
         d="m 1224.8,657.7 0,-0.7 2.2,0 0,0.7 -2.2,0 z" /><path
         id="path1521"
         d="m 1232,659.7 -4.2,0 0,-0.6 1.7,-1.7 c 0.5,-0.5 0.9,-0.9 1,-1.1 0.1,-0.2 0.3,-0.4 0.4,-0.7 0.1,-0.3 0.1,-0.4 0.1,-0.7 0,-0.3 -0.1,-0.6 -0.3,-0.8 -0.2,-0.2 -0.5,-0.3 -0.9,-0.3 -0.3,0 -0.5,0 -0.8,0.1 -0.2,0.1 -0.5,0.2 -0.8,0.5 l -0.4,-0.5 c 0.6,-0.5 1.2,-0.7 1.9,-0.7 0.6,0 1.1,0.2 1.4,0.5 0.3,0.3 0.5,0.7 0.5,1.2 0,0.4 -0.1,0.8 -0.3,1.2 -0.2,0.4 -0.7,0.9 -1.3,1.5 l -1.4,1.4 0,0 3.3,0 0,0.7 z" /><path
         id="path1523"
         d="m 1237.2,656.5 c 0,1.1 -0.2,1.9 -0.5,2.5 -0.4,0.5 -0.9,0.8 -1.6,0.8 -0.7,0 -1.2,-0.3 -1.6,-0.8 -0.4,-0.6 -0.5,-1.4 -0.5,-2.5 0,-1.1 0.2,-2 0.5,-2.5 0.3,-0.5 0.9,-0.8 1.6,-0.8 0.7,0 1.2,0.3 1.6,0.8 0.3,0.6 0.5,1.4 0.5,2.5 z m -3.5,0 c 0,0.9 0.1,1.6 0.3,2 0.2,0.4 0.6,0.6 1.1,0.6 0.5,0 0.8,-0.2 1.1,-0.6 0.2,-0.4 0.3,-1.1 0.3,-2 0,-0.9 -0.1,-1.6 -0.3,-2 -0.2,-0.4 -0.6,-0.6 -1.1,-0.6 -0.5,0 -0.8,0.2 -1.1,0.6 -0.2,0.4 -0.3,1.1 -0.3,2 z" /><path
         id="path1525"
         d="m 1242.3,656.5 c 0,1.1 -0.2,1.9 -0.5,2.5 -0.4,0.5 -0.9,0.8 -1.6,0.8 -0.7,0 -1.2,-0.3 -1.6,-0.8 -0.4,-0.6 -0.5,-1.4 -0.5,-2.5 0,-1.1 0.2,-2 0.5,-2.5 0.3,-0.5 0.9,-0.8 1.6,-0.8 0.7,0 1.2,0.3 1.6,0.8 0.3,0.6 0.5,1.4 0.5,2.5 z m -3.5,0 c 0,0.9 0.1,1.6 0.3,2 0.2,0.4 0.6,0.6 1.1,0.6 0.5,0 0.8,-0.2 1.1,-0.6 0.2,-0.4 0.3,-1.1 0.3,-2 0,-0.9 -0.1,-1.6 -0.3,-2 -0.2,-0.4 -0.6,-0.6 -1.1,-0.6 -0.5,0 -0.8,0.2 -1.1,0.6 -0.2,0.4 -0.3,1.1 -0.3,2 z" /><path
         id="path1527"
         d="m 1246.5,659.7 -2.2,-5.7 0,0 c 0,0.5 0.1,1 0.1,1.6 l 0,4.1 -0.7,0 0,-6.4 1.1,0 2,5.3 0,0 2.1,-5.3 1.1,0 0,6.4 -0.7,0 0,-4.1 c 0,-0.5 0,-1 0.1,-1.5 l 0,0 -2.2,5.7 -0.7,0 z" /><path
         id="path1529"
         d="m 1256.1,659.7 -0.7,0 0,-5.7 -2,0 0,-0.7 4.8,0 0,0.7 -2,0 0,5.7 z" /><path
         id="path1531"
         d="m 1260.7,656.5 1.7,-3.2 0.8,0 -2.1,3.9 0,2.5 -0.8,0 0,-2.5 -2.1,-4 0.8,0 1.7,3.3 z" /><path
         id="path1533"
         d="m 1268.2,655.2 c 0,0.7 -0.2,1.2 -0.7,1.5 -0.4,0.3 -1.1,0.5 -1.9,0.5 l -0.8,0 0,2.5 -0.7,0 0,-6.4 1.7,0 c 1.6,0 2.4,0.6 2.4,1.9 z m -3.3,1.4 0.7,0 c 0.7,0 1.1,-0.1 1.4,-0.3 0.3,-0.2 0.4,-0.6 0.4,-1 0,-0.4 -0.1,-0.7 -0.4,-0.9 -0.3,-0.2 -0.7,-0.3 -1.3,-0.3 l -0.8,0 0,2.5 z" /><path
         id="path1535"
         d="m 1269.6,659.7 0,-6.4 0.7,0 0,6.4 -0.7,0 z" /><path
         id="path1537"
         d="m 1274.8,653.9 c -0.7,0 -1.3,0.2 -1.7,0.7 -0.4,0.5 -0.6,1.1 -0.6,1.9 0,0.8 0.2,1.5 0.6,1.9 0.4,0.5 1,0.7 1.7,0.7 0.4,0 1,-0.1 1.5,-0.2 l 0,0.7 c -0.4,0.2 -1,0.2 -1.6,0.2 -0.9,0 -1.7,-0.3 -2.2,-0.9 -0.5,-0.6 -0.8,-1.4 -0.8,-2.4 0,-0.7 0.1,-1.2 0.4,-1.7 0.2,-0.5 0.6,-0.9 1.1,-1.2 0.5,-0.3 1,-0.4 1.6,-0.4 0.7,0 1.3,0.1 1.8,0.4 l -0.3,0.6 c -0.5,-0.2 -1,-0.3 -1.5,-0.3 z" /><path
         id="path1539"
         d="m 1281.8,659.7 -0.8,-2 -2.6,0 -0.8,2 -0.8,0 2.5,-6.5 0.6,0 2.5,6.5 -0.6,0 z m -1,-2.7 -0.7,-2 c -0.1,-0.3 -0.2,-0.6 -0.3,-0.9 -0.1,0.3 -0.2,0.6 -0.3,0.9 l -0.8,2 2.1,0 z" /><path
         id="path1541"
         d="m 1283.4,659.7 0,-6.4 0.7,0 0,5.7 2.8,0 0,0.7 -3.5,0 z" /><path
         id="path1543"
         d="m 1288.1,659.7 0,-6.4 0.7,0 0,5.7 2.8,0 0,0.7 -3.5,0 z" /><path
         id="path1545"
         d="m 1294.4,656.5 1.7,-3.2 0.8,0 -2.1,3.9 0,2.5 -0.8,0 0,-2.5 -2.1,-4 0.8,0 1.7,3.3 z" /></g><g
       id="g1821"><path
         id="path1823"
         d="m 654.1,406.8 c 0,0.7 0.2,1.3 0.7,1.7 0.5,0.4 1.1,0.6 1.9,0.6 0.8,0 1.5,-0.2 1.9,-0.6 0.5,-0.4 0.7,-1 0.7,-1.7 0,-0.4 -0.1,-1 -0.2,-1.5 l 0.7,0 c 0.2,0.4 0.3,1 0.3,1.6 0,0.9 -0.3,1.7 -0.9,2.2 -0.6,0.5 -1.4,0.8 -2.4,0.8 -0.7,0 -1.2,-0.1 -1.7,-0.4 -0.5,-0.2 -0.9,-0.6 -1.2,-1.1 -0.3,-0.5 -0.4,-1 -0.4,-1.6 0,-0.7 0.1,-1.3 0.4,-1.8 l 0.6,0.3 c -0.3,0.5 -0.4,1 -0.4,1.5 z" /><path
         id="path1825"
         d="m 657.3,403.1 2.7,0 0,0.7 -6.4,0 0,-1.8 c 0,-0.8 0.2,-1.4 0.5,-1.7 0.3,-0.4 0.8,-0.6 1.4,-0.6 0.8,0 1.4,0.4 1.7,1.3 l 2.9,-1.7 0,0.9 -2.7,1.6 0,1.3 z m -0.6,0 0,-1 c 0,-0.5 -0.1,-0.9 -0.3,-1.2 -0.2,-0.2 -0.5,-0.4 -0.9,-0.4 -0.4,0 -0.7,0.1 -0.9,0.4 -0.2,0.2 -0.3,0.7 -0.3,1.2 l 0,1 2.4,0 z" /><path
         id="path1827"
         d="m 660,394.3 -2,0.8 0,2.6 2,0.8 0,0.8 -6.5,-2.5 0,-0.8 6.5,-2.5 0,0.8 z m -2.7,1 -2,0.7 c -0.3,0.1 -0.6,0.2 -0.9,0.3 0.3,0.1 0.6,0.2 0.9,0.3 l 2,0.8 0,-2.1 z" /><path
         id="path1829"
         d="m 660,387.6 0,0.9 -5.4,3.5 0,0 c 0.6,0 1.2,-0.1 1.7,-0.1 l 3.7,0 0,0.7 -6.4,0 0,-0.8 5.4,-3.5 0,0 c -0.1,0 -0.3,0 -0.8,0 -0.4,0 -0.7,0 -0.9,0 l -3.7,0 0,-0.7 6.4,0 z" /><path
         id="path1831"
         d="m 660,382.2 0,3.6 -6.4,0 0,-3.6 0.7,0 0,2.8 2.1,0 0,-2.7 0.7,0 0,2.7 2.4,0 0,-2.8 0.5,0 z" /><path
         id="path1833"
         d="m 658.3,374.9 c 0.6,0 1,0.2 1.3,0.6 0.3,0.4 0.5,1 0.5,1.7 0,0.8 -0.1,1.3 -0.3,1.8 l -0.7,0 c 0.1,-0.3 0.2,-0.6 0.3,-0.9 0.1,-0.3 0.1,-0.6 0.1,-0.9 0,-0.5 -0.1,-0.9 -0.3,-1.1 -0.2,-0.3 -0.5,-0.4 -0.8,-0.4 -0.2,0 -0.4,0 -0.5,0.1 -0.1,0.1 -0.3,0.2 -0.4,0.4 -0.1,0.2 -0.3,0.5 -0.4,1 -0.2,0.6 -0.5,1 -0.8,1.3 -0.3,0.3 -0.7,0.4 -1.1,0.4 -0.5,0 -0.9,-0.2 -1.2,-0.6 -0.3,-0.4 -0.4,-0.9 -0.4,-1.5 0,-0.6 0.1,-1.2 0.4,-1.8 l 0.7,0.2 c -0.2,0.5 -0.3,1 -0.3,1.5 0,0.4 0.1,0.7 0.3,0.9 0.2,0.2 0.4,0.3 0.7,0.3 0.2,0 0.4,0 0.5,-0.1 0.1,-0.1 0.3,-0.2 0.4,-0.4 0.1,-0.2 0.2,-0.5 0.4,-0.9 0.2,-0.7 0.5,-1.1 0.8,-1.4 0,-0.1 0.3,-0.2 0.8,-0.2 z" /><path
         id="path1835"
         d="m 653.6,368.7 4.2,0 c 0.7,0 1.3,0.2 1.7,0.7 0.4,0.5 0.6,1.1 0.6,1.8 0,0.7 -0.2,1.4 -0.6,1.8 -0.4,0.4 -1,0.6 -1.7,0.6 l -4.1,0 0,-0.7 4.2,0 c 0.5,0 0.9,-0.1 1.2,-0.4 0.3,-0.3 0.4,-0.7 0.4,-1.3 0,-0.5 -0.1,-1 -0.4,-1.3 -0.3,-0.3 -0.7,-0.4 -1.2,-0.4 l -4.2,0 0,-0.8 z" /><path
         id="path1837"
         d="m 655.4,362.9 c 0.7,0 1.2,0.2 1.5,0.7 0.4,0.4 0.5,1.1 0.5,1.9 l 0,0.8 2.5,0 0,0.7 -6.4,0 0,-1.7 c 0.1,-1.6 0.7,-2.4 1.9,-2.4 z m 1.4,3.3 0,-0.7 c 0,-0.7 -0.1,-1.1 -0.3,-1.4 -0.2,-0.3 -0.6,-0.4 -1,-0.4 -0.4,0 -0.7,0.1 -0.9,0.4 -0.2,0.3 -0.3,0.7 -0.3,1.3 l 0,0.8 2.5,0 z" /><path
         id="path1839"
         d="m 655.4,357.5 c 0.7,0 1.2,0.2 1.5,0.7 0.4,0.4 0.5,1.1 0.5,1.9 l 0,0.8 2.5,0 0,0.7 -6.4,0 0,-1.7 c 0.1,-1.6 0.7,-2.4 1.9,-2.4 z m 1.4,3.3 0,-0.7 c 0,-0.7 -0.1,-1.1 -0.3,-1.4 -0.2,-0.3 -0.6,-0.4 -1,-0.4 -0.4,0 -0.7,0.1 -0.9,0.4 -0.2,0.3 -0.3,0.7 -0.3,1.3 l 0,0.8 2.5,0 z" /><path
         id="path1841"
         d="m 660,356.2 -6.4,0 0,-0.7 5.7,0 0,-2.8 0.7,0 0,3.5 z" /><path
         id="path1843"
         d="m 656.8,349.8 -3.2,-1.7 0,-0.8 3.9,2.1 2.5,0 0,0.8 -2.5,0 -4,2.1 0,-0.8 3.3,-1.7 z" /></g><g
       id="g1855"><path
         id="path1857"
         d="m 711.9,404.5 0,0.7 -4.3,1.3 c -0.2,0.1 -0.4,0.1 -0.7,0.2 -0.3,0.1 -0.5,0.1 -0.5,0.1 0.4,0.1 0.8,0.2 1.3,0.3 l 4.3,1.3 0,0.7 -6.4,1.7 0,-0.8 4,-1 c 0.6,-0.1 1.1,-0.2 1.5,-0.3 -0.5,-0.1 -1.1,-0.2 -1.6,-0.4 l -3.9,-1.2 0,-0.8 3.9,-1.2 c 0.5,-0.1 1,-0.3 1.5,-0.4 -0.4,-0.1 -0.9,-0.2 -1.5,-0.3 l -4,-1 0,-0.8 6.4,1.9 z" /><path
         id="path1859"
         d="m 711.9,401.8 -6.4,0 0,-0.7 6.4,0 0,0.7 z" /><path
         id="path1861"
         d="m 711.9,394.3 0,0.9 -5.4,3.5 0,0 c 0.6,0 1.2,-0.1 1.7,-0.1 l 3.7,0 0,0.7 -6.4,0 0,-0.8 5.4,-3.5 0,0 c -0.1,0 -0.3,0 -0.8,0 -0.4,0 -0.7,0 -0.9,0 l -3.7,0 0,-0.7 6.4,0 z" /><path
         id="path1863"
         d="m 706,389.8 c 0,0.7 0.2,1.3 0.7,1.7 0.5,0.4 1.1,0.6 1.9,0.6 0.8,0 1.5,-0.2 1.9,-0.6 0.5,-0.4 0.7,-1 0.7,-1.7 0,-0.4 -0.1,-1 -0.2,-1.5 l 0.7,0 c 0.2,0.4 0.3,1 0.3,1.6 0,0.9 -0.3,1.7 -0.9,2.2 -0.6,0.5 -1.4,0.8 -2.4,0.8 -0.7,0 -1.2,-0.1 -1.7,-0.4 -0.5,-0.2 -0.9,-0.6 -1.2,-1.1 -0.3,-0.5 -0.4,-1 -0.4,-1.6 0,-0.7 0.1,-1.3 0.4,-1.8 l 0.6,0.3 c -0.3,0.5 -0.4,1 -0.4,1.5 z" /><path
         id="path1865"
         d="m 711.9,382 0,0.7 -3,0 0,3.4 3,0 0,0.7 -6.4,0 0,-0.7 2.7,0 0,-3.4 -2.7,0 0,-0.7 6.4,0 z" /><path
         id="path1867"
         d="m 710.1,374.2 c 0.6,0 1,0.2 1.3,0.6 0.3,0.4 0.5,1 0.5,1.7 0,0.8 -0.1,1.3 -0.3,1.8 l -0.7,0 c 0.1,-0.3 0.2,-0.6 0.3,-0.9 0.1,-0.3 0.1,-0.6 0.1,-0.9 0,-0.5 -0.1,-0.9 -0.3,-1.1 -0.2,-0.3 -0.5,-0.4 -0.8,-0.4 -0.2,0 -0.4,0 -0.5,0.1 -0.1,0.1 -0.3,0.2 -0.4,0.4 -0.1,0.2 -0.3,0.5 -0.4,1 -0.2,0.6 -0.5,1 -0.8,1.3 -0.3,0.3 -0.7,0.4 -1.1,0.4 -0.5,0 -0.9,-0.2 -1.2,-0.6 -0.3,-0.4 -0.4,-0.9 -0.4,-1.5 0,-0.6 0.1,-1.2 0.4,-1.8 l 0.7,0.2 c -0.2,0.5 -0.3,1 -0.3,1.5 0,0.4 0.1,0.7 0.3,0.9 0.2,0.2 0.4,0.3 0.7,0.3 0.2,0 0.4,0 0.5,-0.1 0.1,-0.1 0.3,-0.2 0.4,-0.4 0.1,-0.2 0.2,-0.5 0.4,-0.9 0.2,-0.7 0.5,-1.1 0.8,-1.4 0,0 0.4,-0.2 0.8,-0.2 z" /><path
         id="path1869"
         d="m 705.4,368.1 4.2,0 c 0.7,0 1.3,0.2 1.7,0.7 0.4,0.5 0.6,1.1 0.6,1.8 0,0.7 -0.2,1.4 -0.6,1.8 -0.4,0.4 -1,0.6 -1.7,0.6 l -4.1,0 0,-0.7 4.2,0 c 0.5,0 0.9,-0.1 1.2,-0.4 0.3,-0.3 0.4,-0.7 0.4,-1.3 0,-0.5 -0.1,-1 -0.4,-1.3 -0.3,-0.3 -0.7,-0.4 -1.2,-0.4 l -4.2,0 0,-0.8 z" /><path
         id="path1871"
         d="m 707.3,362.3 c 0.7,0 1.2,0.2 1.5,0.7 0.4,0.4 0.5,1.1 0.5,1.9 l 0,0.8 2.5,0 0,0.7 -6.4,0 0,-1.7 c 0,-1.6 0.7,-2.4 1.9,-2.4 z m 1.4,3.3 0,-0.6 c 0,-0.7 -0.1,-1.1 -0.3,-1.4 -0.2,-0.3 -0.6,-0.4 -1,-0.4 -0.4,0 -0.7,0.1 -0.9,0.4 -0.2,0.3 -0.3,0.7 -0.3,1.3 l 0,0.8 2.5,0 z" /><path
         id="path1873"
         d="m 707.3,356.9 c 0.7,0 1.2,0.2 1.5,0.7 0.4,0.4 0.5,1.1 0.5,1.9 l 0,0.8 2.5,0 0,0.7 -6.4,0 0,-1.7 c 0,-1.6 0.7,-2.4 1.9,-2.4 z m 1.4,3.3 0,-0.7 c 0,-0.7 -0.1,-1.1 -0.3,-1.4 -0.2,-0.3 -0.6,-0.4 -1,-0.4 -0.4,0 -0.7,0.1 -0.9,0.4 -0.2,0.3 -0.3,0.7 -0.3,1.3 l 0,0.8 2.5,0 z" /><path
         id="path1875"
         d="m 711.9,355.5 -6.4,0 0,-0.7 5.7,0 0,-2.8 0.7,0 0,3.5 z" /><path
         id="path1877"
         d="m 708.6,349.2 -3.2,-1.7 0,-0.8 3.9,2.1 2.5,0 0,0.8 -2.5,0 -4,2.1 0,-0.8 3.3,-1.7 z" /></g><g
       id="g1879"><path
         id="path1881"
         d="m 757.2,379.1 c -1.3,0 -2.2,-0.2 -2.8,-0.7 -0.6,-0.5 -0.9,-1.2 -0.9,-2.2 0,-0.3 0,-0.6 0.1,-0.8 l 0.6,0 c -0.1,0.2 -0.1,0.5 -0.1,0.8 0,0.7 0.2,1.2 0.6,1.6 0.4,0.4 1.1,0.6 2,0.6 l 0,-0.1 c -0.5,-0.3 -0.8,-0.8 -0.8,-1.5 0,-0.6 0.2,-1 0.5,-1.4 0.3,-0.3 0.8,-0.5 1.4,-0.5 0.7,0 1.2,0.2 1.6,0.5 0.4,0.4 0.6,0.9 0.6,1.5 0,0.7 -0.2,1.2 -0.7,1.6 -0.5,0.4 -1.3,0.6 -2.1,0.6 z m 2.2,-2.2 c 0,-0.4 -0.1,-0.7 -0.4,-1 -0.3,-0.3 -0.6,-0.3 -1.1,-0.3 -0.4,0 -0.8,0.1 -1,0.3 -0.2,0.2 -0.4,0.5 -0.4,1 0,0.3 0.1,0.5 0.2,0.7 0.1,0.2 0.3,0.4 0.4,0.5 0.2,0.1 0.4,0.2 0.6,0.2 0.3,0 0.6,-0.1 0.8,-0.2 0.2,-0.1 0.5,-0.3 0.6,-0.5 0.2,-0.2 0.3,-0.4 0.3,-0.7 z" /><path
         id="path1883"
         d="m 756.7,369.8 c 1.1,0 1.9,0.2 2.5,0.5 0.5,0.4 0.8,0.9 0.8,1.6 0,0.7 -0.3,1.2 -0.8,1.6 -0.6,0.4 -1.4,0.5 -2.5,0.5 -1.1,0 -1.9,-0.2 -2.5,-0.5 -0.6,-0.3 -0.8,-0.9 -0.8,-1.6 0,-0.7 0.3,-1.2 0.8,-1.6 0.6,-0.4 1.4,-0.5 2.5,-0.5 z m 0,3.5 c 0.9,0 1.6,-0.1 2,-0.3 0.4,-0.2 0.6,-0.6 0.6,-1.1 0,-0.5 -0.2,-0.8 -0.6,-1.1 -0.4,-0.3 -1.1,-0.3 -2,-0.3 -0.9,0 -1.6,0.1 -2,0.3 -0.4,0.2 -0.6,0.6 -0.6,1.1 0,0.5 0.2,0.8 0.6,1.1 0.4,0.3 1,0.3 2,0.3 z" /><path
         id="path1885"
         d="m 756.7,364.6 c 1.1,0 1.9,0.2 2.5,0.5 0.5,0.4 0.8,0.9 0.8,1.6 0,0.7 -0.3,1.2 -0.8,1.6 -0.6,0.4 -1.4,0.5 -2.5,0.5 -1.1,0 -1.9,-0.2 -2.5,-0.5 -0.6,-0.3 -0.8,-0.9 -0.8,-1.6 0,-0.7 0.3,-1.2 0.8,-1.6 0.6,-0.3 1.4,-0.5 2.5,-0.5 z m 0,3.5 c 0.9,0 1.6,-0.1 2,-0.3 0.4,-0.2 0.6,-0.6 0.6,-1.1 0,-0.5 -0.2,-0.8 -0.6,-1.1 -0.4,-0.3 -1.1,-0.3 -2,-0.3 -0.9,0 -1.6,0.1 -2,0.3 -0.4,0.2 -0.6,0.6 -0.6,1.1 0,0.5 0.2,0.8 0.6,1.1 0.4,0.3 1,0.3 2,0.3 z" /><path
         id="path1887"
         d="m 753.5,359.6 0,-0.8 6.4,2.3 0,0.7 -6.4,2.3 0,-0.8 4.2,-1.5 c 0.5,-0.2 0.9,-0.3 1.4,-0.4 -0.5,-0.1 -0.9,-0.2 -1.4,-0.4 l -4.2,-1.4 z" /></g><g
       id="g1889"><path
         id="path1891"
         d="m 770.7,373.7 0,0.7 -4.6,0 c -0.4,0 -0.7,0 -1.1,0 0.1,0.1 0.1,0.1 0.2,0.2 0.1,0.1 0.4,0.4 0.9,1 l -0.5,0.4 -1.3,-1.7 0,-0.6 6.4,0 z" /><path
         id="path1893"
         d="m 768.2,370.2 c -0.2,-0.1 -0.4,-0.3 -0.7,-0.6 l -1.6,-1.6 0,-0.9 2.1,2 2.8,-2.1 0,0.9 -2.3,1.7 0.5,0.5 1.8,0 0,0.7 -6.8,0 0,-0.7 3.6,0 c 0,0.1 0.3,0.1 0.6,0.1 l 0,0 z" /><path
         id="path1895"
         d="m 764.3,362.4 0,-0.8 6.4,2.3 0,0.7 -6.4,2.3 0,-0.8 4.2,-1.5 c 0.5,-0.2 0.9,-0.3 1.4,-0.4 -0.5,-0.1 -0.9,-0.2 -1.4,-0.4 l -4.2,-1.4 z" /></g><g
       id="g1897"><path
         id="path1899"
         d="m 778.3,381.6 c 1,0 1.8,0.3 2.4,0.8 0.6,0.5 0.9,1.2 0.9,2.2 0,0.9 -0.3,1.7 -0.9,2.2 -0.6,0.5 -1.4,0.8 -2.5,0.8 -1,0 -1.9,-0.3 -2.4,-0.8 -0.6,-0.5 -0.9,-1.2 -0.9,-2.2 0,-0.9 0.3,-1.6 0.9,-2.2 0.6,-0.6 1.4,-0.8 2.5,-0.8 z m 0,5.1 c 0.9,0 1.5,-0.2 2,-0.6 0.4,-0.4 0.7,-0.9 0.7,-1.6 0,-0.7 -0.2,-1.2 -0.7,-1.6 -0.5,-0.4 -1.1,-0.5 -2,-0.5 -0.9,0 -1.5,0.2 -2,0.5 -0.4,0.4 -0.7,0.9 -0.7,1.6 0,0.7 0.2,1.3 0.7,1.6 0.5,0.4 1.1,0.6 2,0.6 z" /><path
         id="path1901"
         d="m 778.8,379.4 2.7,0 0,0.7 -6.4,0 0,-1.8 c 0,-0.8 0.2,-1.4 0.5,-1.7 0.3,-0.4 0.8,-0.6 1.4,-0.6 0.8,0 1.4,0.4 1.7,1.3 l 2.9,-1.7 0,0.9 -2.7,1.6 0,1.3 z m -0.6,0 0,-1 c 0,-0.5 -0.1,-0.9 -0.3,-1.2 -0.2,-0.2 -0.5,-0.4 -0.9,-0.4 -0.4,0 -0.7,0.1 -0.9,0.4 -0.2,0.2 -0.3,0.7 -0.3,1.2 l 0,1 2.4,0 z" /><path
         id="path1903"
         d="m 781.5,368.5 0,4.2 -0.6,0 -1.7,-1.7 c -0.5,-0.5 -0.9,-0.9 -1.1,-1 -0.2,-0.1 -0.4,-0.3 -0.7,-0.4 -0.2,-0.1 -0.4,-0.1 -0.7,-0.1 -0.3,0 -0.6,0.1 -0.8,0.3 -0.2,0.2 -0.3,0.5 -0.3,0.9 0,0.3 0,0.5 0.1,0.8 0.1,0.3 0.2,0.5 0.5,0.8 l -0.5,0.4 c -0.5,-0.6 -0.7,-1.2 -0.7,-1.9 0,-0.6 0.2,-1.1 0.5,-1.4 0.3,-0.3 0.7,-0.5 1.2,-0.5 0.4,0 0.8,0.1 1.2,0.3 0.4,0.2 0.9,0.7 1.5,1.3 l 1.4,1.4 0,0 0,-3.3 0.7,0 z" /><path
         id="path1905"
         d="m 781,367.3 c -0.2,0 -0.3,0 -0.4,-0.1 -0.1,-0.1 -0.2,-0.2 -0.2,-0.4 0,-0.2 0.1,-0.3 0.2,-0.4 0.1,-0.1 0.2,-0.1 0.4,-0.1 0.2,0 0.3,0 0.4,0.1 0.1,0.1 0.2,0.2 0.2,0.4 0,0.1 0,0.3 -0.1,0.4 -0.1,0.1 -0.3,0.1 -0.5,0.1 z" /><path
         id="path1907"
         d="m 780,360.6 0,1 1.5,0 0,0.7 -1.5,0 0,3.1 -0.6,0 -4.3,-3 0,-0.8 4.3,0 0,-1 0.6,0 z m -0.6,1.7 -2.1,0 c -0.4,0 -0.9,0 -1.4,0 l 0,0 c 0.3,0.1 0.5,0.3 0.7,0.4 l 2.9,2 0,-2.4 z" /><path
         id="path1909"
         d="m 779,358.9 c -0.2,-0.1 -0.4,-0.3 -0.7,-0.6 l -1.6,-1.6 0,-0.7 2.1,2 2.8,-2.1 0,0.9 -2.3,1.7 0.5,0.5 1.8,0 0,0.7 -6.8,0 0,-0.7 3.6,0 c 0,-0.1 0.3,0 0.6,-0.1 l 0,0 z" /><path
         id="path1911"
         d="m 775.1,351.2 0,-0.8 6.4,2.3 0,0.7 -6.4,2.3 0,-0.8 4.2,-1.5 c 0.5,-0.2 0.9,-0.3 1.4,-0.4 -0.5,-0.1 -0.9,-0.2 -1.4,-0.4 l -4.2,-1.4 z" /></g><g
       id="g1913"><path
         id="path1915"
         d="m 873.7,374 0,0.7 -4.6,0 c -0.4,0 -0.7,0 -1.1,0 0.1,0.1 0.1,0.1 0.2,0.2 0.1,0.1 0.4,0.4 0.9,1 l -0.5,0.4 -1.3,-1.7 0,-0.6 6.4,0 z" /><path
         id="path1917"
         d="m 871.3,370.5 c -0.2,-0.1 -0.4,-0.3 -0.7,-0.6 l -1.6,-1.6 0,-0.9 2.1,2 2.8,-2.1 0,0.9 -2.3,1.7 0.5,0.5 1.8,0 0,0.7 -6.8,0 0,-0.7 3.6,0 c 0,0.1 0.2,0.1 0.6,0.1 l 0,0 z" /><path
         id="path1919"
         d="m 867.3,362.7 0,-0.8 6.4,2.3 0,0.7 -6.4,2.3 0,-0.8 4.2,-1.5 c 0.5,-0.2 0.9,-0.3 1.4,-0.4 -0.5,-0.1 -0.9,-0.2 -1.4,-0.4 l -4.2,-1.4 z" /></g><g
       id="g1921"><path
         id="path1923"
         d="m 881.3,381.9 c 1,0 1.8,0.3 2.4,0.8 0.6,0.5 0.9,1.2 0.9,2.2 0,0.9 -0.3,1.7 -0.9,2.2 -0.6,0.5 -1.4,0.8 -2.4,0.8 -1,0 -1.9,-0.3 -2.4,-0.8 -0.6,-0.5 -0.9,-1.2 -0.9,-2.2 0,-0.9 0.3,-1.6 0.9,-2.2 0.6,-0.5 1.4,-0.8 2.4,-0.8 z m 0,5.2 c 0.9,0 1.5,-0.2 2,-0.6 0.5,-0.4 0.7,-0.9 0.7,-1.6 0,-0.7 -0.2,-1.2 -0.7,-1.6 -0.4,-0.4 -1.1,-0.5 -2,-0.5 -0.9,0 -1.5,0.2 -2,0.5 -0.4,0.4 -0.7,0.9 -0.7,1.6 0,0.7 0.2,1.3 0.7,1.6 0.5,0.4 1.1,0.6 2,0.6 z" /><path
         id="path1925"
         d="m 881.9,379.8 2.7,0 0,0.7 -6.4,0 0,-1.8 c 0,-0.8 0.2,-1.4 0.5,-1.7 0.3,-0.4 0.8,-0.6 1.4,-0.6 0.8,0 1.4,0.4 1.7,1.3 l 2.9,-1.7 0,0.9 -2.7,1.6 0,1.3 z m -0.7,0 0,-1 c 0,-0.5 -0.1,-0.9 -0.3,-1.2 -0.2,-0.2 -0.5,-0.4 -0.9,-0.4 -0.4,0 -0.7,0.1 -0.9,0.4 -0.2,0.2 -0.3,0.7 -0.3,1.2 l 0,1 2.4,0 z" /><path
         id="path1927"
         d="m 884.5,368.8 0,4.2 -0.6,0 -1.7,-1.7 c -0.5,-0.5 -0.9,-0.9 -1.1,-1 -0.2,-0.1 -0.4,-0.3 -0.7,-0.4 -0.3,-0.1 -0.4,-0.1 -0.7,-0.1 -0.3,0 -0.6,0.1 -0.8,0.3 -0.2,0.2 -0.3,0.5 -0.3,0.9 0,0.3 0,0.5 0.1,0.8 0.1,0.2 0.2,0.5 0.5,0.8 l -0.5,0.4 c -0.5,-0.6 -0.7,-1.2 -0.7,-1.9 0,-0.6 0.2,-1.1 0.5,-1.4 0.3,-0.3 0.7,-0.5 1.2,-0.5 0.4,0 0.8,0.1 1.2,0.3 0.4,0.2 0.9,0.7 1.5,1.3 l 1.4,1.4 0,0 0,-3.3 0.7,0 z" /><path
         id="path1929"
         d="m 884.1,367.7 c -0.2,0 -0.3,0 -0.4,-0.1 -0.1,-0.1 -0.2,-0.2 -0.2,-0.4 0,-0.2 0.1,-0.3 0.2,-0.4 0.1,-0.1 0.2,-0.1 0.4,-0.1 0.2,0 0.3,0 0.4,0.1 0.1,0.1 0.2,0.2 0.2,0.4 0,0.1 0,0.3 -0.1,0.4 -0.2,0 -0.3,0.1 -0.5,0.1 z" /><path
         id="path1931"
         d="m 883.1,361 0,1 1.5,0 0,0.7 -1.5,0 0,3.1 -0.6,0 -4.3,-3 0,-0.8 4.3,0 0,-1 0.6,0 z m -0.7,1.6 -2.1,0 c -0.4,0 -0.9,0 -1.4,0 l 0,0 c 0.3,0.1 0.5,0.3 0.7,0.4 l 2.9,2 0,-2.4 z" /><path
         id="path1933"
         d="m 882.1,359.3 c -0.2,-0.1 -0.4,-0.3 -0.7,-0.6 l -1.6,-1.6 0,-0.9 2.1,2 2.8,-2.1 0,0.9 -2.3,1.7 0.5,0.5 1.8,0 0,0.7 -6.8,0 0,-0.7 3.6,0 c 0,0.1 0.2,0.1 0.6,0.1 l 0,0 z" /><path
         id="path1935"
         d="m 878.1,351.5 0,-0.8 6.4,2.3 0,0.7 -6.4,2.3 0,-0.8 4.2,-1.5 c 0.5,-0.2 0.9,-0.3 1.4,-0.4 -0.5,-0.1 -0.9,-0.2 -1.4,-0.4 l -4.2,-1.4 z" /></g><g
       id="g1937"><path
         id="path1939"
         d="m 976.5,374 0,0.7 -4.6,0 c -0.4,0 -0.7,0 -1.1,0 0.1,0.1 0.1,0.1 0.2,0.2 0.1,0.1 0.4,0.4 0.9,1 l -0.5,0.4 -1.3,-1.7 0,-0.6 6.4,0 z" /><path
         id="path1941"
         d="m 974.1,370.5 c -0.2,-0.1 -0.4,-0.3 -0.7,-0.6 l -1.6,-1.6 0,-0.9 2.1,2 2.8,-2.1 0,0.9 -2.3,1.7 0.5,0.5 1.8,0 0,0.7 -6.8,0 0,-0.7 3.6,0 c 0,0.1 0.2,0.1 0.6,0.1 l 0,0 z" /><path
         id="path1943"
         d="m 970.1,362.7 0,-0.8 6.4,2.3 0,0.7 -6.4,2.3 0,-0.8 4.2,-1.5 c 0.5,-0.2 0.9,-0.3 1.4,-0.4 -0.5,-0.1 -0.9,-0.2 -1.4,-0.4 l -4.2,-1.4 z" /></g><g
       id="g1945"><path
         id="path1947"
         d="m 984.1,381.9 c 1,0 1.8,0.3 2.4,0.8 0.6,0.5 0.9,1.2 0.9,2.2 0,0.9 -0.3,1.7 -0.9,2.2 -0.6,0.5 -1.4,0.8 -2.4,0.8 -1,0 -1.9,-0.3 -2.4,-0.8 -0.6,-0.5 -0.9,-1.2 -0.9,-2.2 0,-0.9 0.3,-1.6 0.9,-2.2 0.6,-0.5 1.4,-0.8 2.4,-0.8 z m 0,5.2 c 0.9,0 1.5,-0.2 2,-0.6 0.5,-0.4 0.7,-0.9 0.7,-1.6 0,-0.7 -0.2,-1.2 -0.7,-1.6 -0.4,-0.4 -1.1,-0.5 -2,-0.5 -0.9,0 -1.5,0.2 -2,0.5 -0.4,0.4 -0.7,0.9 -0.7,1.6 0,0.7 0.2,1.3 0.7,1.6 0.5,0.4 1.1,0.6 2,0.6 z" /><path
         id="path1949"
         d="m 984.6,379.8 2.7,0 0,0.7 -6.4,0 0,-1.8 c 0,-0.8 0.2,-1.4 0.5,-1.7 0.3,-0.4 0.8,-0.6 1.4,-0.6 0.8,0 1.4,0.4 1.7,1.3 l 2.9,-1.7 0,0.9 -2.7,1.6 0,1.3 z m -0.6,0 0,-1 c 0,-0.5 -0.1,-0.9 -0.3,-1.2 -0.2,-0.2 -0.5,-0.4 -0.9,-0.4 -0.4,0 -0.7,0.1 -0.9,0.4 -0.2,0.2 -0.3,0.7 -0.3,1.2 l 0,1 2.4,0 z" /><path
         id="path1951"
         d="m 987.3,368.8 0,4.2 -0.6,0 -1.7,-1.7 c -0.5,-0.5 -0.9,-0.9 -1.1,-1 -0.2,-0.1 -0.4,-0.3 -0.7,-0.4 -0.3,-0.1 -0.4,-0.1 -0.7,-0.1 -0.3,0 -0.6,0.1 -0.8,0.3 -0.2,0.2 -0.3,0.5 -0.3,0.9 0,0.3 0,0.5 0.1,0.8 0.1,0.2 0.2,0.5 0.5,0.8 l -0.5,0.4 c -0.5,-0.6 -0.7,-1.2 -0.7,-1.9 0,-0.6 0.2,-1.1 0.5,-1.4 0.3,-0.3 0.7,-0.5 1.2,-0.5 0.4,0 0.8,0.1 1.2,0.3 0.4,0.2 0.9,0.7 1.5,1.3 l 1.4,1.4 0,0 0,-3.3 0.7,0 z" /><path
         id="path1953"
         d="m 986.9,367.7 c -0.2,0 -0.3,0 -0.4,-0.1 -0.1,-0.1 -0.2,-0.2 -0.2,-0.4 0,-0.2 0.1,-0.3 0.2,-0.4 0.1,-0.1 0.2,-0.1 0.4,-0.1 0.2,0 0.3,0 0.4,0.1 0.1,0.1 0.2,0.2 0.2,0.4 0,0.1 0,0.3 -0.1,0.4 -0.2,0 -0.3,0.1 -0.5,0.1 z" /><path
         id="path1955"
         d="m 985.8,361 0,1 1.5,0 0,0.7 -1.5,0 0,3.1 -0.6,0 -4.3,-3 0,-0.8 4.3,0 0,-1 0.6,0 z m -0.6,1.6 -2.2,0 c -0.4,0 -0.9,0 -1.4,0 l 0,0 c 0.3,0.1 0.5,0.3 0.7,0.4 l 2.9,2 0,-2.4 z" /><path
         id="path1957"
         d="m 984.9,359.3 c -0.2,-0.1 -0.4,-0.3 -0.7,-0.6 l -1.6,-1.6 0,-0.9 2.1,2 2.8,-2.1 0,0.9 -2.3,1.7 0.5,0.5 1.8,0 0,0.7 -6.8,0 0,-0.7 3.6,0 c 0,0.1 0.2,0.1 0.6,0.1 l 0,0 z" /><path
         id="path1959"
         d="m 980.9,351.5 0,-0.8 6.4,2.3 0,0.7 -6.4,2.3 0,-0.8 4.2,-1.5 c 0.5,-0.2 0.9,-0.3 1.4,-0.4 -0.5,-0.1 -0.9,-0.2 -1.4,-0.4 l -4.2,-1.4 z" /></g><g
       id="g1981"><path
         id="path1983"
         d="m 1119.9,360.9 c 1,0 1.8,0.3 2.4,0.8 0.6,0.5 0.9,1.2 0.9,2.2 0,0.9 -0.3,1.7 -0.9,2.2 -0.6,0.5 -1.4,0.8 -2.4,0.8 -1,0 -1.9,-0.3 -2.4,-0.8 -0.6,-0.5 -0.9,-1.2 -0.9,-2.2 0,-0.9 0.3,-1.6 0.9,-2.2 0.6,-0.6 1.4,-0.8 2.4,-0.8 z m 0,5.1 c 0.9,0 1.5,-0.2 2,-0.6 0.5,-0.4 0.7,-0.9 0.7,-1.6 0,-0.7 -0.2,-1.2 -0.7,-1.6 -0.4,-0.4 -1.1,-0.5 -2,-0.5 -0.9,0 -1.5,0.2 -2,0.5 -0.4,0.4 -0.7,0.9 -0.7,1.6 0,0.7 0.2,1.3 0.7,1.6 0.5,0.4 1.1,0.6 2,0.6 z" /><path
         id="path1985"
         d="m 1120.4,358.7 2.7,0 0,0.7 -6.4,0 0,-1.8 c 0,-0.8 0.2,-1.4 0.5,-1.7 0.3,-0.4 0.8,-0.6 1.4,-0.6 0.8,0 1.4,0.4 1.7,1.3 l 2.9,-1.7 0,0.9 -2.7,1.6 0,1.3 z m -0.6,0 0,-1 c 0,-0.5 -0.1,-0.9 -0.3,-1.2 -0.2,-0.2 -0.5,-0.4 -0.9,-0.4 -0.4,0 -0.7,0.1 -0.9,0.4 -0.2,0.2 -0.3,0.7 -0.3,1.2 l 0,1 2.4,0 z" /><path
         id="path1987"
         d="m 1123.1,347.8 0,4.2 -0.6,0 -1.7,-1.7 c -0.5,-0.5 -0.9,-0.9 -1.1,-1 -0.2,-0.1 -0.4,-0.3 -0.7,-0.4 -0.3,-0.1 -0.4,-0.1 -0.7,-0.1 -0.3,0 -0.6,0.1 -0.8,0.3 -0.2,0.2 -0.3,0.5 -0.3,0.9 0,0.3 0,0.5 0.1,0.8 0.1,0.2 0.2,0.5 0.5,0.8 l -0.5,0.4 c -0.5,-0.6 -0.7,-1.2 -0.7,-1.9 0,-0.6 0.2,-1.1 0.5,-1.4 0.3,-0.3 0.7,-0.5 1.2,-0.5 0.4,0 0.8,0.1 1.2,0.3 0.4,0.2 0.9,0.7 1.5,1.3 l 1.4,1.4 0,0 0,-3.3 0.7,0 z" /><path
         id="path1989"
         d="m 1122.7,346.6 c -0.2,0 -0.3,0 -0.4,-0.1 -0.1,-0.1 -0.2,-0.2 -0.2,-0.4 0,-0.2 0.1,-0.3 0.2,-0.4 0.1,-0.1 0.2,-0.1 0.4,-0.1 0.2,0 0.3,0 0.4,0.1 0.1,0.1 0.2,0.2 0.2,0.4 0,0.1 0,0.3 -0.1,0.4 -0.2,0.1 -0.3,0.1 -0.5,0.1 z" /><path
         id="path1991"
         d="m 1121.6,339.9 0,1 1.5,0 0,0.7 -1.5,0 0,3.1 -0.6,0 -4.3,-3 0,-0.8 4.3,0 0,-1 0.6,0 z m -0.6,1.7 -2.1,0 c -0.4,0 -0.9,0 -1.4,0 l 0,0 c 0.3,0.1 0.5,0.3 0.7,0.4 l 2.9,2 0,-2.4 z" /><path
         id="path1993"
         d="m 1120.7,338.2 c -0.2,-0.1 -0.4,-0.3 -0.7,-0.6 l -1.6,-1.6 0,-0.9 2.1,2 2.8,-2.1 0,0.9 -2.3,1.7 0.5,0.5 1.8,0 0,0.7 -6.8,0 0,-0.7 3.6,0 c 0,0.1 0.2,0.2 0.6,0.1 l 0,0 z" /><path
         id="path1995"
         d="m 1116.7,330.5 0,-0.8 6.4,2.3 0,0.7 -6.4,2.3 0,-0.8 4.2,-1.5 c 0.5,-0.2 0.9,-0.3 1.4,-0.4 -0.5,-0.1 -0.9,-0.2 -1.4,-0.4 l -4.2,-1.4 z" /></g><g
       id="g1997"><path
         id="path1999"
         d="m 1139.9,369.8 0,0.7 -4.6,0 c -0.4,0 -0.7,0 -1.1,0 0.1,0.1 0.1,0.1 0.2,0.2 0.1,0.1 0.4,0.4 0.9,1 l -0.5,0.4 -1.3,-1.7 0,-0.6 6.4,0 z" /><path
         id="path2001"
         d="m 1136.7,363.1 c 1.1,0 1.9,0.2 2.5,0.5 0.5,0.4 0.8,0.9 0.8,1.6 0,0.7 -0.3,1.2 -0.8,1.6 -0.6,0.4 -1.4,0.5 -2.5,0.5 -1.1,0 -2,-0.2 -2.5,-0.5 -0.5,-0.3 -0.8,-0.9 -0.8,-1.6 0,-0.7 0.3,-1.2 0.8,-1.6 0.6,-0.3 1.4,-0.5 2.5,-0.5 z m 0,3.5 c 0.9,0 1.6,-0.1 2,-0.3 0.4,-0.2 0.6,-0.6 0.6,-1.1 0,-0.5 -0.2,-0.8 -0.6,-1.1 -0.4,-0.2 -1.1,-0.3 -2,-0.3 -0.9,0 -1.6,0.1 -2,0.3 -0.4,0.2 -0.6,0.6 -0.6,1.1 0,0.5 0.2,0.8 0.6,1.1 0.4,0.2 1.1,0.3 2,0.3 z" /><path
         id="path2003"
         d="m 1136.7,357.9 c 1.1,0 1.9,0.2 2.5,0.5 0.5,0.4 0.8,0.9 0.8,1.6 0,0.7 -0.3,1.2 -0.8,1.6 -0.6,0.4 -1.4,0.5 -2.5,0.5 -1.1,0 -2,-0.2 -2.5,-0.5 -0.5,-0.3 -0.8,-0.9 -0.8,-1.6 0,-0.7 0.3,-1.2 0.8,-1.6 0.6,-0.3 1.4,-0.5 2.5,-0.5 z m 0,3.5 c 0.9,0 1.6,-0.1 2,-0.3 0.4,-0.2 0.6,-0.6 0.6,-1.1 0,-0.5 -0.2,-0.8 -0.6,-1.1 -0.4,-0.2 -1.1,-0.3 -2,-0.3 -0.9,0 -1.6,0.1 -2,0.3 -0.4,0.2 -0.6,0.6 -0.6,1.1 0,0.5 0.2,0.8 0.6,1.1 0.4,0.2 1.1,0.3 2,0.3 z" /><path
         id="path2005"
         d="m 1137.8,357.1 -0.7,0 0,-2.1 0.7,0 0,2.1 z" /><path
         id="path2007"
         d="m 1139.9,351.5 0,0.7 -4.6,0 c -0.4,0 -0.7,0 -1.1,0 0.1,0.1 0.1,0.1 0.2,0.2 0.1,0.1 0.4,0.4 0.9,1 l -0.5,0.4 -1.3,-1.7 0,-0.6 6.4,0 z" /><path
         id="path2009"
         d="m 1136,347 c 0,-0.7 0.2,-1.2 0.5,-1.6 0.3,-0.4 0.8,-0.6 1.4,-0.6 0.7,0 1.2,0.2 1.6,0.6 0.4,0.4 0.6,1 0.6,1.8 0,0.7 -0.1,1.3 -0.3,1.7 l -0.7,0 c 0.1,-0.2 0.2,-0.5 0.3,-0.8 0.1,-0.3 0.1,-0.6 0.1,-0.9 0,-0.5 -0.1,-0.9 -0.4,-1.2 -0.2,-0.3 -0.6,-0.4 -1.1,-0.4 -0.9,0 -1.3,0.5 -1.3,1.6 0,0.3 0,0.7 0.1,1.1 l -0.2,0.4 -3,-0.2 0,-3.2 0.7,0 0,2.6 1.9,0.2 c -0.2,-0.4 -0.2,-0.8 -0.2,-1.1 z" /><path
         id="path2011"
         d="m 1136.7,339.6 c 1.1,0 1.9,0.2 2.5,0.5 0.5,0.4 0.8,0.9 0.8,1.6 0,0.7 -0.3,1.2 -0.8,1.6 -0.6,0.4 -1.4,0.5 -2.5,0.5 -1.1,0 -2,-0.2 -2.5,-0.5 -0.5,-0.3 -0.8,-0.9 -0.8,-1.6 0,-0.7 0.3,-1.2 0.8,-1.6 0.6,-0.3 1.4,-0.5 2.5,-0.5 z m 0,3.5 c 0.9,0 1.6,-0.1 2,-0.3 0.4,-0.2 0.6,-0.6 0.6,-1.1 0,-0.5 -0.2,-0.8 -0.6,-1.1 -0.4,-0.2 -1.1,-0.3 -2,-0.3 -0.9,0 -1.6,0.1 -2,0.3 -0.4,0.2 -0.6,0.6 -0.6,1.1 0,0.5 0.2,0.8 0.6,1.1 0.4,0.2 1.1,0.3 2,0.3 z" /><path
         id="path2013"
         d="m 1137.5,337.7 c -0.2,-0.1 -0.4,-0.3 -0.7,-0.6 l -1.6,-1.6 0,-0.9 2.1,2 2.8,-2.1 0,0.9 -2.3,1.7 0.5,0.5 1.8,0 0,0.7 -6.8,0 0,-0.7 3.6,0 c 0,0.1 0.2,0.1 0.6,0.1 l 0,0 z" /><path
         id="path2015"
         d="m 1133.5,329.9 0,-0.8 6.4,2.3 0,0.7 -6.4,2.3 0,-0.8 4.2,-1.5 c 0.5,-0.2 0.9,-0.3 1.4,-0.4 -0.5,-0.1 -0.9,-0.2 -1.4,-0.4 l -4.2,-1.4 z" /><path
         id="path2017"
         d="m 1139.9,325.3 -0.7,0.1 0,0 c 0.3,0.2 0.5,0.5 0.6,0.7 0.1,0.2 0.2,0.5 0.2,0.9 0,0.5 -0.1,0.9 -0.4,1.1 -0.2,0.3 -0.6,0.4 -1,0.4 -1,0 -1.5,-0.8 -1.5,-2.3 l 0,-0.8 -0.3,0 c -0.4,0 -0.7,0.1 -0.8,0.2 -0.2,0.2 -0.3,0.4 -0.3,0.8 0,0.4 0.1,0.9 0.4,1.4 l -0.6,0.2 c -0.1,-0.2 -0.2,-0.5 -0.3,-0.8 -0.1,-0.3 -0.1,-0.6 -0.1,-0.9 0,-0.6 0.1,-1 0.4,-1.3 0.3,-0.3 0.7,-0.4 1.2,-0.4 l 3.3,0 0,0.7 z m -0.5,1.7 c 0,-0.5 -0.1,-0.8 -0.4,-1.1 -0.2,-0.3 -0.6,-0.4 -1,-0.4 l -0.4,0 0,0.7 c 0,0.6 0.1,1 0.3,1.3 0.2,0.3 0.4,0.4 0.7,0.4 0.3,0 0.5,-0.1 0.6,-0.2 0.1,-0.2 0.2,-0.4 0.2,-0.7 z" /></g><g
       id="g2019"><path
         id="path2021"
         d="m 898.8,416 c 0,0.6 -0.2,1 -0.6,1.4 -0.4,0.3 -1,0.5 -1.7,0.5 -0.7,0 -1.3,-0.1 -1.8,-0.4 l 0,-1.3 c 0.4,0.2 0.8,0.3 1.1,0.4 0.3,0.1 0.6,0.1 0.8,0.1 0.3,0 0.5,-0.1 0.7,-0.2 0.2,-0.1 0.2,-0.3 0.2,-0.5 0,-0.1 0,-0.2 -0.1,-0.3 -0.1,-0.1 -0.2,-0.2 -0.3,-0.3 -0.1,-0.1 -0.4,-0.2 -0.8,-0.4 -0.4,-0.2 -0.7,-0.4 -0.9,-0.5 -0.2,-0.1 -0.4,-0.4 -0.5,-0.6 -0.1,-0.2 -0.2,-0.5 -0.2,-0.8 0,-0.6 0.2,-1 0.6,-1.3 0.4,-0.3 0.9,-0.5 1.6,-0.5 0.3,0 0.7,0 1,0.1 0.3,0.1 0.6,0.2 1,0.3 l -0.4,1.1 c -0.3,-0.1 -0.6,-0.2 -0.9,-0.3 -0.2,-0.1 -0.4,-0.1 -0.7,-0.1 -0.3,0 -0.5,0.1 -0.6,0.2 -0.1,0.1 -0.2,0.3 -0.2,0.5 0,0.1 0,0.2 0.1,0.3 0.1,0.1 0.1,0.2 0.3,0.3 0.1,0.1 0.4,0.2 0.9,0.5 0.6,0.3 1,0.6 1.2,0.9 0.1,0.1 0.2,0.4 0.2,0.9 z" /><path
         id="path2023"
         d="m 905.2,411.3 0,4.2 c 0,0.5 -0.1,0.9 -0.3,1.2 -0.2,0.4 -0.5,0.6 -0.9,0.8 -0.4,0.2 -0.9,0.3 -1.4,0.3 -0.8,0 -1.5,-0.2 -1.9,-0.6 -0.4,-0.4 -0.7,-1 -0.7,-1.7 l 0,-4.1 1.4,0 0,3.9 c 0,0.5 0.1,0.9 0.3,1.1 0.2,0.2 0.5,0.3 1,0.3 0.4,0 0.8,-0.1 1,-0.3 0.2,-0.2 0.3,-0.6 0.3,-1.1 l 0,-3.9 1.2,0 z" /><path
         id="path2025"
         d="m 908.1,415.3 0,2.5 -1.4,0 0,-6.4 1.9,0 c 0.9,0 1.5,0.2 1.9,0.5 0.4,0.3 0.6,0.8 0.6,1.4 0,0.4 -0.1,0.7 -0.3,1 -0.2,0.3 -0.5,0.5 -0.9,0.7 1,1.4 1.6,2.4 1.9,2.8 l -1.5,0 -1.5,-2.5 -0.7,0 z m 0,-1.1 0.4,0 c 0.4,0 0.7,-0.1 1,-0.2 0.2,-0.1 0.3,-0.4 0.3,-0.7 0,-0.3 -0.1,-0.5 -0.3,-0.7 -0.2,-0.1 -0.5,-0.2 -1,-0.2 l -0.4,0 0,1.8 z" /><path
         id="path2027"
         d="m 914,417.8 -1.3,0 0,-6.4 3.7,0 0,1.1 -2.4,0 0,1.7 2.2,0 0,1.1 -2.2,0 0,2.5 z" /><path
         id="path2029"
         d="m 921.6,417.8 -0.5,-1.5 -2.3,0 -0.5,1.5 -1.5,0 2.3,-6.5 1.7,0 2.3,6.5 -1.5,0 z m -0.8,-2.7 c -0.4,-1.4 -0.7,-2.2 -0.7,-2.4 -0.1,-0.2 -0.1,-0.3 -0.1,-0.4 -0.1,0.4 -0.4,1.3 -0.8,2.8 l 1.6,0 z" /><path
         id="path2031"
         d="m 926.6,412.4 c -0.5,0 -0.9,0.2 -1.2,0.6 -0.3,0.4 -0.4,0.9 -0.4,1.6 0,1.4 0.5,2.1 1.6,2.1 0.5,0 1,-0.1 1.6,-0.3 l 0,1.1 c -0.5,0.2 -1.1,0.3 -1.8,0.3 -0.9,0 -1.6,-0.3 -2.1,-0.9 -0.5,-0.6 -0.7,-1.4 -0.7,-2.4 0,-0.7 0.1,-1.3 0.4,-1.8 0.3,-0.5 0.6,-0.9 1,-1.2 0.5,-0.3 1,-0.4 1.6,-0.4 0.6,0 1.3,0.2 1.9,0.5 l -0.4,1.1 c -0.2,-0.1 -0.5,-0.2 -0.7,-0.3 -0.2,-0.1 -0.6,0 -0.8,0 z" /><path
         id="path2033"
         d="m 933.3,417.8 -3.7,0 0,-6.4 3.7,0 0,1.1 -2.3,0 0,1.4 2.2,0 0,1.1 -2.2,0 0,1.7 2.3,0 0,1.1 z" /><path
         id="path2035"
         d="m 936.3,419.6 c -0.3,0 -0.6,0 -0.8,-0.1 l 0,-1.1 c 0.2,0.1 0.4,0.1 0.6,0.1 0.3,0 0.5,-0.1 0.6,-0.3 0.1,-0.2 0.2,-0.5 0.2,-0.9 l 0,-6 1.4,0 0,6 c 0,0.8 -0.2,1.3 -0.5,1.7 -0.3,0.4 -0.8,0.6 -1.5,0.6 z" /><path
         id="path2037"
         d="m 945.2,411.3 0,4.2 c 0,0.5 -0.1,0.9 -0.3,1.2 -0.2,0.4 -0.5,0.6 -0.9,0.8 -0.4,0.2 -0.9,0.3 -1.4,0.3 -0.8,0 -1.5,-0.2 -1.9,-0.6 -0.4,-0.4 -0.7,-1 -0.7,-1.7 l 0,-4.1 1.4,0 0,3.9 c 0,0.5 0.1,0.9 0.3,1.1 0.2,0.2 0.5,0.3 1,0.3 0.4,0 0.8,-0.1 1,-0.3 0.2,-0.2 0.3,-0.6 0.3,-1.1 l 0,-3.9 1.2,0 z" /><path
         id="path2039"
         d="m 952.5,417.8 -1.7,0 -2.8,-4.9 0,0 c 0.1,0.9 0.1,1.5 0.1,1.8 l 0,3 -1.2,0 0,-6.4 1.7,0 2.8,4.8 0,0 c 0,-0.8 -0.1,-1.4 -0.1,-1.8 l 0,-3 1.2,0 0,6.5 z" /><path
         id="path2041"
         d="m 956.8,412.4 c -0.5,0 -0.9,0.2 -1.2,0.6 -0.3,0.4 -0.4,0.9 -0.4,1.6 0,1.4 0.5,2.1 1.6,2.1 0.5,0 1,-0.1 1.6,-0.3 l 0,1.1 c -0.5,0.2 -1.1,0.3 -1.8,0.3 -0.9,0 -1.6,-0.3 -2.1,-0.9 -0.5,-0.6 -0.7,-1.4 -0.7,-2.4 0,-0.7 0.1,-1.3 0.4,-1.8 0.3,-0.5 0.6,-0.9 1,-1.2 0.5,-0.3 1,-0.4 1.6,-0.4 0.6,0 1.3,0.2 1.9,0.5 l -0.4,1.1 c -0.2,-0.1 -0.5,-0.2 -0.7,-0.3 -0.2,-0.1 -0.6,0 -0.8,0 z" /><path
         id="path2043"
         d="m 962.3,417.8 -1.4,0 0,-5.3 -1.7,0 0,-1.1 4.9,0 0,1.1 -1.7,0 0,5.3 z" /><path
         id="path2045"
         d="m 965,417.8 0,-6.4 1.4,0 0,6.4 -1.4,0 z" /><path
         id="path2047"
         d="m 973.8,414.5 c 0,1.1 -0.3,1.9 -0.8,2.5 -0.5,0.6 -1.3,0.9 -2.3,0.9 -1,0 -1.7,-0.3 -2.3,-0.9 -0.6,-0.6 -0.8,-1.4 -0.8,-2.5 0,-1.1 0.3,-1.9 0.8,-2.4 0.5,-0.6 1.3,-0.8 2.3,-0.8 1,0 1.7,0.3 2.3,0.9 0.6,0.4 0.8,1.3 0.8,2.3 z m -4.7,0 c 0,0.7 0.1,1.3 0.4,1.6 0.3,0.4 0.7,0.5 1.2,0.5 1.1,0 1.6,-0.7 1.6,-2.2 0,-1.4 -0.5,-2.2 -1.6,-2.2 -0.5,0 -1,0.2 -1.2,0.5 -0.2,0.6 -0.4,1.1 -0.4,1.8 z" /><path
         id="path2049"
         d="m 980.9,417.8 -1.7,0 -2.8,-4.9 0,0 c 0.1,0.9 0.1,1.5 0.1,1.8 l 0,3 -1.2,0 0,-6.4 1.7,0 2.8,4.8 0,0 c 0,-0.8 -0.1,-1.4 -0.1,-1.8 l 0,-3 1.2,0 0,6.5 z" /><path
         id="path2051"
         d="m 984.8,411.3 2,0 c 0.9,0 1.6,0.1 2,0.4 0.4,0.3 0.6,0.7 0.6,1.2 0,0.4 -0.1,0.7 -0.3,0.9 -0.2,0.2 -0.4,0.4 -0.7,0.4 l 0,0 c 0.4,0.1 0.7,0.3 0.9,0.5 0.2,0.2 0.3,0.6 0.3,1 0,0.6 -0.2,1 -0.6,1.4 -0.4,0.3 -1,0.5 -1.7,0.5 l -2.4,0 0,-6.3 z m 1.4,2.6 0.8,0 c 0.4,0 0.6,-0.1 0.8,-0.2 0.2,-0.1 0.2,-0.3 0.2,-0.6 0,-0.2 -0.1,-0.4 -0.3,-0.5 -0.2,-0.1 -0.5,-0.2 -0.9,-0.2 l -0.7,0 0,1.5 z m 0,1.1 0,1.7 0.9,0 c 0.4,0 0.7,-0.1 0.8,-0.2 0.1,-0.1 0.3,-0.4 0.3,-0.7 0,-0.5 -0.4,-0.8 -1.1,-0.8 l -0.9,0 z" /><path
         id="path2053"
         d="m 996.7,414.5 c 0,1.1 -0.3,1.9 -0.8,2.5 -0.5,0.6 -1.3,0.9 -2.3,0.9 -1,0 -1.7,-0.3 -2.3,-0.9 -0.6,-0.6 -0.8,-1.4 -0.8,-2.5 0,-1.1 0.3,-1.9 0.8,-2.4 0.5,-0.6 1.3,-0.8 2.3,-0.8 1,0 1.7,0.3 2.3,0.9 0.5,0.4 0.8,1.3 0.8,2.3 z m -4.7,0 c 0,0.7 0.1,1.3 0.4,1.6 0.3,0.4 0.7,0.5 1.2,0.5 1.1,0 1.6,-0.7 1.6,-2.2 0,-1.4 -0.5,-2.2 -1.6,-2.2 -0.5,0 -1,0.2 -1.2,0.5 -0.3,0.6 -0.4,1.1 -0.4,1.8 z" /><path
         id="path2055"
         d="m 1003.2,417.8 -1.6,0 -1.5,-2.4 -1.5,2.4 -1.5,0 2.1,-3.3 -2,-3.1 1.5,0 1.4,2.3 1.4,-2.3 1.5,0 -2,3.2 2.2,3.2 z" /></g><g
       id="g2057"><path
         id="path2059"
         d="m 888.6,486.5 -1.6,0 -0.9,-3.4 c 0,-0.1 -0.1,-0.4 -0.2,-0.7 -0.1,-0.4 -0.1,-0.6 -0.1,-0.8 0,0.2 -0.1,0.4 -0.1,0.8 -0.1,0.3 -0.1,0.6 -0.2,0.7 l -0.9,3.4 -1.5,0 -1.6,-6.4 1.3,0 0.8,3.5 c 0.1,0.6 0.2,1.2 0.3,1.7 0,-0.2 0.1,-0.4 0.1,-0.8 0.1,-0.3 0.1,-0.6 0.2,-0.8 l 0.9,-3.6 1.3,0 0.9,3.6 c 0,0.2 0.1,0.4 0.2,0.7 0.1,0.3 0.1,0.6 0.1,0.9 0,-0.2 0.1,-0.5 0.1,-0.9 0.1,-0.3 0.1,-0.6 0.2,-0.8 l 0.8,-3.5 1.3,0 -1.4,6.4 z" /><path
         id="path2061"
         d="m 891,486.5 0,-6.5 1.4,0 0,6.4 -1.4,0 z" /><path
         id="path2063"
         d="m 899.7,486.5 -1.7,0 -2.8,-4.9 0,0 c 0.1,0.9 0.1,1.5 0.1,1.8 l 0,3 -1.3,0 0,-6.4 1.7,0 2.8,4.8 0,0 c 0,-0.8 -0.1,-1.4 -0.1,-1.8 l 0,-3 1.2,0 0,6.5 z" /><path
         id="path2065"
         d="m 904.1,481.1 c -0.5,0 -0.9,0.2 -1.2,0.6 -0.3,0.4 -0.4,0.9 -0.4,1.6 0,1.4 0.5,2.1 1.6,2.1 0.5,0 1,-0.1 1.6,-0.3 l 0,1.1 c -0.5,0.2 -1.1,0.3 -1.8,0.3 -0.9,0 -1.6,-0.3 -2.1,-0.9 -0.5,-0.6 -0.7,-1.4 -0.7,-2.4 0,-0.7 0.1,-1.3 0.4,-1.8 0.2,-0.5 0.6,-0.9 1,-1.2 0.5,-0.3 1,-0.4 1.6,-0.4 0.6,0 1.3,0.2 1.9,0.5 l -0.4,1.1 c -0.2,-0.1 -0.5,-0.2 -0.7,-0.3 -0.2,-0.1 -0.6,0 -0.8,0 z" /><path
         id="path2067"
         d="m 912.3,486.5 -1.3,0 0,-2.8 -2.5,0 0,2.8 -1.4,0 0,-6.5 1.4,0 0,2.5 2.5,0 0,-2.5 1.4,0 0,6.5 z" /><path
         id="path2069"
         d="m 920.1,484.7 c 0,0.6 -0.2,1 -0.6,1.4 -0.4,0.3 -1,0.5 -1.7,0.5 -0.7,0 -1.3,-0.1 -1.8,-0.4 l 0,-1.3 c 0.4,0.2 0.8,0.3 1.1,0.4 0.3,0.1 0.6,0.1 0.8,0.1 0.3,0 0.5,-0.1 0.7,-0.2 0.2,-0.1 0.2,-0.3 0.2,-0.5 0,-0.1 0,-0.2 -0.1,-0.3 -0.1,-0.1 -0.2,-0.2 -0.3,-0.3 -0.1,-0.1 -0.4,-0.2 -0.8,-0.4 -0.4,-0.2 -0.7,-0.4 -0.9,-0.5 -0.2,-0.1 -0.4,-0.4 -0.5,-0.6 -0.1,-0.2 -0.2,-0.5 -0.2,-0.8 0,-0.6 0.2,-1 0.6,-1.3 0.4,-0.3 0.9,-0.5 1.6,-0.5 0.3,0 0.7,0 1,0.1 0.3,0.1 0.6,0.2 1,0.3 l -0.4,1.1 c -0.3,-0.1 -0.6,-0.2 -0.9,-0.3 -0.2,-0.1 -0.4,-0.1 -0.7,-0.1 -0.3,0 -0.5,0.1 -0.6,0.2 -0.1,0.1 -0.2,0.3 -0.2,0.5 0,0.1 0,0.2 0.1,0.3 0.1,0.1 0.1,0.2 0.3,0.3 0.1,0.1 0.4,0.2 0.9,0.5 0.6,0.3 1,0.6 1.2,0.9 0.1,0.1 0.2,0.5 0.2,0.9 z" /><path
         id="path2071"
         d="m 923.7,486.5 -1.4,0 0,-5.3 -1.7,0 0,-1.2 4.9,0 0,1.1 -1.7,0 0,5.4 z" /><path
         id="path2073"
         d="m 930.4,486.5 -0.5,-1.5 -2.3,0 -0.5,1.5 -1.5,0 2.3,-6.5 1.7,0 2.3,6.5 -1.5,0 z m -0.8,-2.7 c -0.4,-1.4 -0.7,-2.2 -0.7,-2.4 -0.1,-0.2 -0.1,-0.3 -0.1,-0.4 -0.1,0.4 -0.4,1.3 -0.8,2.8 l 1.6,0 z" /><path
         id="path2075"
         d="m 935.2,486.5 -1.4,0 0,-5.3 -1.7,0 0,-1.2 4.9,0 0,1.1 -1.7,0 0,5.4 z" /><path
         id="path2077"
         d="m 937.9,486.5 0,-6.5 1.4,0 0,6.4 -1.4,0 z" /><path
         id="path2079"
         d="m 943.6,481.1 c -0.5,0 -0.9,0.2 -1.2,0.6 -0.3,0.4 -0.4,0.9 -0.4,1.6 0,1.4 0.5,2.1 1.6,2.1 0.5,0 1,-0.1 1.6,-0.3 l 0,1.1 c -0.5,0.2 -1.1,0.3 -1.8,0.3 -0.9,0 -1.6,-0.3 -2.1,-0.9 -0.5,-0.6 -0.7,-1.4 -0.7,-2.4 0,-0.7 0.1,-1.3 0.4,-1.8 0.2,-0.5 0.6,-0.9 1,-1.2 0.5,-0.3 1,-0.4 1.6,-0.4 0.6,0 1.3,0.2 1.9,0.5 l -0.4,1.1 c -0.2,-0.1 -0.5,-0.2 -0.7,-0.3 -0.2,-0.1 -0.6,0 -0.8,0 z" /><path
         id="path2081"
         d="m 948.3,488.4 c -0.3,0 -0.6,0 -0.8,-0.1 l 0,-1.1 c 0.2,0.1 0.4,0.1 0.6,0.1 0.3,0 0.5,-0.1 0.6,-0.3 0.1,-0.2 0.2,-0.5 0.2,-0.9 l 0,-6 1.4,0 0,6 c 0,0.8 -0.2,1.3 -0.5,1.7 -0.3,0.4 -0.9,0.6 -1.5,0.6 z" /><path
         id="path2083"
         d="m 957.2,480 0,4.2 c 0,0.5 -0.1,0.9 -0.3,1.2 -0.2,0.4 -0.5,0.6 -0.9,0.8 -0.4,0.2 -0.9,0.3 -1.4,0.3 -0.8,0 -1.5,-0.2 -1.9,-0.6 -0.5,-0.4 -0.7,-1 -0.7,-1.7 l 0,-4.2 1.4,0 0,3.9 c 0,0.5 0.1,0.9 0.3,1.1 0.2,0.2 0.5,0.3 1,0.3 0.4,0 0.8,-0.1 1,-0.3 0.2,-0.2 0.3,-0.6 0.3,-1.1 l 0,-3.9 1.2,0 z" /><path
         id="path2085"
         d="m 964.4,486.5 -1.7,0 -2.8,-4.9 0,0 c 0.1,0.9 0.1,1.5 0.1,1.8 l 0,3 -1.2,0 0,-6.4 1.7,0 2.8,4.8 0,0 c 0,-0.8 -0.1,-1.4 -0.1,-1.8 l 0,-3 1.2,0 0,6.5 z" /><path
         id="path2087"
         d="m 968.8,481.1 c -0.5,0 -0.9,0.2 -1.2,0.6 -0.3,0.4 -0.4,0.9 -0.4,1.6 0,1.4 0.5,2.1 1.6,2.1 0.5,0 1,-0.1 1.6,-0.3 l 0,1.1 c -0.5,0.2 -1.1,0.3 -1.8,0.3 -0.9,0 -1.6,-0.3 -2.1,-0.9 -0.5,-0.6 -0.7,-1.4 -0.7,-2.4 0,-0.7 0.1,-1.3 0.4,-1.8 0.2,-0.5 0.6,-0.9 1,-1.2 0.5,-0.3 1,-0.4 1.6,-0.4 0.6,0 1.3,0.2 1.9,0.5 l -0.4,1.1 c -0.2,-0.1 -0.5,-0.2 -0.7,-0.3 -0.2,-0.1 -0.6,0 -0.8,0 z" /><path
         id="path2089"
         d="m 974.3,486.5 -1.4,0 0,-5.3 -1.7,0 0,-1.2 4.9,0 0,1.1 -1.7,0 0,5.4 z" /><path
         id="path2091"
         d="m 977,486.5 0,-6.5 1.4,0 0,6.4 -1.4,0 z" /><path
         id="path2093"
         d="m 985.8,483.3 c 0,1.1 -0.3,1.9 -0.8,2.5 -0.5,0.6 -1.3,0.9 -2.3,0.9 -1,0 -1.7,-0.3 -2.3,-0.9 -0.5,-0.6 -0.8,-1.4 -0.8,-2.5 0,-1.1 0.3,-1.9 0.8,-2.4 0.5,-0.6 1.3,-0.8 2.3,-0.8 1,0 1.7,0.3 2.3,0.9 0.5,0.4 0.8,1.2 0.8,2.3 z m -4.7,0 c 0,0.7 0.1,1.3 0.4,1.6 0.3,0.4 0.7,0.5 1.2,0.5 1.1,0 1.6,-0.7 1.6,-2.2 0,-1.4 -0.5,-2.2 -1.6,-2.2 -0.5,0 -1,0.2 -1.2,0.5 -0.2,0.5 -0.4,1 -0.4,1.8 z" /><path
         id="path2095"
         d="m 992.8,486.5 -1.7,0 -2.8,-4.9 0,0 c 0.1,0.9 0.1,1.5 0.1,1.8 l 0,3 -1.2,0 0,-6.4 1.7,0 2.8,4.8 0,0 c 0,-0.8 -0.1,-1.4 -0.1,-1.8 l 0,-3 1.2,0 0,6.5 z" /><path
         id="path2097"
         d="m 996.8,480 2,0 c 0.9,0 1.6,0.1 2,0.4 0.4,0.3 0.6,0.7 0.6,1.2 0,0.4 -0.1,0.7 -0.3,0.9 -0.2,0.2 -0.4,0.4 -0.7,0.4 l 0,0 c 0.4,0.1 0.7,0.3 0.9,0.5 0.2,0.2 0.3,0.6 0.3,1 0,0.6 -0.2,1 -0.6,1.4 -0.4,0.3 -1,0.5 -1.7,0.5 l -2.4,0 0,-6.3 z m 1.4,2.6 0.8,0 c 0.4,0 0.6,-0.1 0.8,-0.2 0.2,-0.1 0.2,-0.3 0.2,-0.6 0,-0.2 -0.1,-0.4 -0.3,-0.5 -0.2,-0.1 -0.5,-0.2 -0.9,-0.2 l -0.7,0 0,1.5 z m 0,1.1 0,1.7 0.9,0 c 0.4,0 0.7,-0.1 0.8,-0.2 0.1,-0.1 0.3,-0.4 0.3,-0.7 0,-0.5 -0.4,-0.8 -1.1,-0.8 l -0.9,0 z" /><path
         id="path2099"
         d="m 1008.7,483.3 c 0,1.1 -0.3,1.9 -0.8,2.5 -0.5,0.6 -1.3,0.9 -2.3,0.9 -1,0 -1.7,-0.3 -2.3,-0.9 -0.5,-0.6 -0.8,-1.4 -0.8,-2.5 0,-1.1 0.3,-1.9 0.8,-2.4 0.5,-0.6 1.3,-0.8 2.3,-0.8 1,0 1.7,0.3 2.3,0.9 0.5,0.4 0.8,1.2 0.8,2.3 z m -4.7,0 c 0,0.7 0.1,1.3 0.4,1.6 0.3,0.4 0.7,0.5 1.2,0.5 1.1,0 1.6,-0.7 1.6,-2.2 0,-1.4 -0.5,-2.2 -1.6,-2.2 -0.5,0 -1,0.2 -1.2,0.5 -0.3,0.5 -0.4,1 -0.4,1.8 z" /><path
         id="path2101"
         d="m 1015.2,486.5 -1.6,0 -1.5,-2.4 -1.5,2.4 -1.5,0 2.1,-3.3 -2,-3.1 1.5,0 1.4,2.3 1.4,-2.3 1.5,0 -2,3.2 2.2,3.2 z" /></g><g
       id="g2103"><path
         id="path2105"
         d="m 880.8,534.4 -1.6,0 -0.9,-3.4 c 0,-0.1 -0.1,-0.4 -0.2,-0.7 -0.1,-0.4 -0.1,-0.6 -0.1,-0.8 0,0.2 -0.1,0.4 -0.1,0.8 -0.1,0.3 -0.1,0.6 -0.2,0.7 l -0.9,3.4 -1.5,0 -1.6,-6.4 1.3,0 0.8,3.5 c 0.1,0.6 0.2,1.2 0.3,1.7 0,-0.2 0.1,-0.4 0.1,-0.8 0.1,-0.3 0.1,-0.6 0.2,-0.8 l 0.9,-3.6 1.3,0 0.9,3.6 c 0,0.2 0.1,0.4 0.2,0.7 0.1,0.3 0.1,0.6 0.1,0.9 0,-0.2 0.1,-0.5 0.1,-0.9 0.1,-0.3 0.1,-0.6 0.2,-0.8 l 0.8,-3.5 1.3,0 -1.4,6.4 z" /><path
         id="path2107"
         d="m 883.3,534.4 0,-6.4 1.4,0 0,6.4 -1.4,0 z" /><path
         id="path2109"
         d="m 892,534.4 -1.7,0 -2.8,-4.9 0,0 c 0.1,0.9 0.1,1.5 0.1,1.8 l 0,3 -1.2,0 0,-6.3 1.7,0 2.8,4.8 0,0 c 0,-0.8 -0.1,-1.4 -0.1,-1.8 l 0,-3 1.2,0 0,6.4 z" /><path
         id="path2111"
         d="m 896.3,529 c -0.5,0 -0.9,0.2 -1.2,0.6 -0.3,0.4 -0.4,0.9 -0.4,1.6 0,1.4 0.5,2.1 1.6,2.1 0.5,0 1,-0.1 1.6,-0.3 l 0,1.1 c -0.5,0.2 -1.1,0.3 -1.8,0.3 -0.9,0 -1.6,-0.3 -2.1,-0.9 -0.5,-0.6 -0.7,-1.4 -0.7,-2.4 0,-0.7 0.1,-1.3 0.4,-1.8 0.2,-0.5 0.6,-0.9 1,-1.2 0.5,-0.3 1,-0.4 1.6,-0.4 0.6,0 1.3,0.2 1.9,0.5 l -0.4,1.1 c -0.2,-0.1 -0.5,-0.2 -0.7,-0.3 -0.2,-0.1 -0.6,0 -0.8,0 z" /><path
         id="path2113"
         d="m 904.6,534.4 -1.4,0 0,-2.8 -2.5,0 0,2.8 -1.4,0 0,-6.4 1.4,0 0,2.5 2.5,0 0,-2.5 1.4,0 0,6.4 z" /><path
         id="path2115"
         d="m 909.9,531.9 0,2.5 -1.4,0 0,-6.4 1.9,0 c 0.9,0 1.5,0.2 1.9,0.5 0.4,0.3 0.6,0.8 0.6,1.4 0,0.4 -0.1,0.7 -0.3,1 -0.2,0.3 -0.5,0.5 -0.9,0.7 1,1.4 1.6,2.4 1.9,2.8 l -1.5,0 -1.5,-2.5 -0.7,0 z m 0,-1.1 0.4,0 c 0.4,0 0.7,-0.1 1,-0.2 0.2,-0.1 0.3,-0.4 0.3,-0.7 0,-0.3 -0.1,-0.5 -0.3,-0.7 -0.2,-0.1 -0.5,-0.2 -1,-0.2 l -0.4,0 0,1.8 z" /><path
         id="path2117"
         d="m 920.3,531.2 c 0,1.1 -0.3,1.9 -0.8,2.5 -0.5,0.6 -1.3,0.9 -2.3,0.9 -1,0 -1.7,-0.3 -2.3,-0.9 -0.5,-0.6 -0.8,-1.4 -0.8,-2.5 0,-1.1 0.3,-1.9 0.8,-2.4 0.5,-0.6 1.3,-0.8 2.3,-0.8 1,0 1.7,0.3 2.3,0.9 0.5,0.4 0.8,1.2 0.8,2.3 z m -4.7,0 c 0,0.7 0.1,1.3 0.4,1.6 0.3,0.4 0.7,0.5 1.2,0.5 1.1,0 1.6,-0.7 1.6,-2.2 0,-1.4 -0.5,-2.2 -1.6,-2.2 -0.5,0 -1,0.2 -1.2,0.5 -0.3,0.5 -0.4,1.1 -0.4,1.8 z" /><path
         id="path2119"
         d="m 924.1,534.4 -1.4,0 0,-5.3 -1.7,0 0,-1.1 4.9,0 0,1.1 -1.7,0 0,5.3 z" /><path
         id="path2121"
         d="m 930.8,534.4 -0.5,-1.5 -2.3,0 -0.5,1.5 -1.5,0 2.3,-6.5 1.7,0 2.3,6.5 -1.5,0 z m -0.8,-2.7 c -0.4,-1.4 -0.7,-2.2 -0.7,-2.4 -0.1,-0.2 -0.1,-0.3 -0.1,-0.4 -0.1,0.4 -0.4,1.3 -0.8,2.8 l 1.6,0 z" /><path
         id="path2123"
         d="m 935.5,534.4 -1.4,0 0,-5.3 -1.7,0 0,-1.1 4.9,0 0,1.1 -1.7,0 0,5.3 z" /><path
         id="path2125"
         d="m 938.3,534.4 0,-6.4 1.4,0 0,6.4 -1.4,0 z" /><path
         id="path2127"
         d="m 946.9,534.4 -1.7,0 -2.8,-4.9 0,0 c 0.1,0.9 0.1,1.5 0.1,1.8 l 0,3 -1.2,0 0,-6.3 1.7,0 2.8,4.8 0,0 c 0,-0.8 -0.1,-1.4 -0.1,-1.8 l 0,-3 1.2,0 0,6.4 z" /><path
         id="path2129"
         d="m 951,530.8 2.5,0 0,3.3 c -0.4,0.1 -0.8,0.2 -1.2,0.3 -0.4,0.1 -0.7,0.1 -1.1,0.1 -1,0 -1.7,-0.3 -2.2,-0.9 -0.5,-0.6 -0.8,-1.4 -0.8,-2.5 0,-1 0.3,-1.8 0.9,-2.4 0.6,-0.6 1.4,-0.9 2.5,-0.9 0.7,0 1.3,0.1 1.9,0.4 l -0.5,1.1 c -0.5,-0.2 -1,-0.4 -1.5,-0.4 -0.6,0 -1.1,0.2 -1.4,0.6 -0.4,0.4 -0.5,0.9 -0.5,1.6 0,0.7 0.1,1.2 0.4,1.6 0.3,0.4 0.7,0.6 1.2,0.6 0.3,0 0.6,0 0.9,-0.1 l 0,-1.3 -1.1,0 0,-1.1 z" /><path
         id="path2131"
         d="m 956.7,536.3 c -0.3,0 -0.6,0 -0.8,-0.1 l 0,-1.1 c 0.2,0.1 0.4,0.1 0.6,0.1 0.3,0 0.5,-0.1 0.6,-0.3 0.1,-0.2 0.2,-0.5 0.2,-0.9 l 0,-6 1.4,0 0,6 c 0,0.8 -0.2,1.3 -0.5,1.7 -0.3,0.4 -0.8,0.6 -1.5,0.6 z" /><path
         id="path2133"
         d="m 965.6,528 0,4.2 c 0,0.5 -0.1,0.9 -0.3,1.2 -0.2,0.4 -0.5,0.6 -0.9,0.8 -0.4,0.2 -0.9,0.3 -1.4,0.3 -0.8,0 -1.5,-0.2 -1.9,-0.6 -0.5,-0.4 -0.7,-1 -0.7,-1.7 l 0,-4.2 1.4,0 0,3.9 c 0,0.5 0.1,0.9 0.3,1.1 0.2,0.2 0.5,0.3 1,0.3 0.4,0 0.8,-0.1 1,-0.3 0.2,-0.2 0.3,-0.6 0.3,-1.1 l 0,-3.9 1.2,0 z" /><path
         id="path2135"
         d="m 972.9,534.4 -1.7,0 -2.8,-4.9 0,0 c 0.1,0.9 0.1,1.5 0.1,1.8 l 0,3 -1.2,0 0,-6.3 1.7,0 2.8,4.8 0,0 c 0,-0.8 -0.1,-1.4 -0.1,-1.8 l 0,-3 1.2,0 0,6.4 z" /><path
         id="path2137"
         d="m 977.2,529 c -0.5,0 -0.9,0.2 -1.2,0.6 -0.3,0.4 -0.4,0.9 -0.4,1.6 0,1.4 0.5,2.1 1.6,2.1 0.5,0 1,-0.1 1.6,-0.3 l 0,1.1 c -0.5,0.2 -1.1,0.3 -1.8,0.3 -0.9,0 -1.6,-0.3 -2.1,-0.9 -0.5,-0.6 -0.7,-1.4 -0.7,-2.4 0,-0.7 0.1,-1.3 0.4,-1.8 0.2,-0.5 0.6,-0.9 1,-1.2 0.5,-0.3 1,-0.4 1.6,-0.4 0.6,0 1.3,0.2 1.9,0.5 l -0.4,1.1 c -0.2,-0.1 -0.5,-0.2 -0.7,-0.3 -0.2,-0.1 -0.5,0 -0.8,0 z" /><path
         id="path2139"
         d="m 982.7,534.4 -1.4,0 0,-5.3 -1.7,0 0,-1.1 4.9,0 0,1.1 -1.7,0 0,5.3 z" /><path
         id="path2141"
         d="m 985.5,534.4 0,-6.4 1.4,0 0,6.4 -1.4,0 z" /><path
         id="path2143"
         d="m 994.3,531.2 c 0,1.1 -0.3,1.9 -0.8,2.5 -0.5,0.6 -1.3,0.9 -2.3,0.9 -1,0 -1.7,-0.3 -2.3,-0.9 -0.5,-0.6 -0.8,-1.4 -0.8,-2.5 0,-1.1 0.3,-1.9 0.8,-2.4 0.5,-0.6 1.3,-0.8 2.3,-0.8 1,0 1.7,0.3 2.3,0.9 0.5,0.4 0.8,1.2 0.8,2.3 z m -4.7,0 c 0,0.7 0.1,1.3 0.4,1.6 0.3,0.4 0.7,0.5 1.2,0.5 1.1,0 1.6,-0.7 1.6,-2.2 0,-1.4 -0.5,-2.2 -1.6,-2.2 -0.5,0 -1,0.2 -1.2,0.5 -0.3,0.5 -0.4,1.1 -0.4,1.8 z" /><path
         id="path2145"
         d="m 1001.3,534.4 -1.7,0 -2.8,-4.9 0,0 c 0.1,0.9 0.1,1.5 0.1,1.8 l 0,3 -1.2,0 0,-6.3 1.7,0 2.8,4.8 0,0 c 0,-0.8 -0.1,-1.4 -0.1,-1.8 l 0,-3 1.2,0 0,6.4 z" /><path
         id="path2147"
         d="m 1005.3,528 2,0 c 0.9,0 1.6,0.1 2,0.4 0.4,0.3 0.6,0.7 0.6,1.2 0,0.4 -0.1,0.7 -0.3,0.9 -0.2,0.2 -0.4,0.4 -0.7,0.4 l 0,0 c 0.4,0.1 0.7,0.3 0.9,0.5 0.2,0.2 0.3,0.6 0.3,1 0,0.6 -0.2,1 -0.6,1.4 -0.4,0.3 -1,0.5 -1.7,0.5 l -2.4,0 0,-6.3 z m 1.3,2.5 0.8,0 c 0.4,0 0.6,-0.1 0.8,-0.2 0.2,-0.1 0.2,-0.3 0.2,-0.6 0,-0.2 -0.1,-0.4 -0.3,-0.5 -0.2,-0.1 -0.5,-0.2 -0.9,-0.2 l -0.7,0 0,1.5 z m 0,1.1 0,1.7 0.9,0 c 0.4,0 0.7,-0.1 0.8,-0.2 0.1,-0.1 0.3,-0.4 0.3,-0.7 0,-0.5 -0.4,-0.8 -1.1,-0.8 l -0.9,0 z" /><path
         id="path2149"
         d="m 1017.1,531.2 c 0,1.1 -0.3,1.9 -0.8,2.5 -0.5,0.6 -1.3,0.9 -2.3,0.9 -1,0 -1.7,-0.3 -2.3,-0.9 -0.5,-0.6 -0.8,-1.4 -0.8,-2.5 0,-1.1 0.3,-1.9 0.8,-2.4 0.5,-0.6 1.3,-0.8 2.3,-0.8 1,0 1.7,0.3 2.3,0.9 0.6,0.4 0.8,1.2 0.8,2.3 z m -4.7,0 c 0,0.7 0.1,1.3 0.4,1.6 0.3,0.4 0.7,0.5 1.2,0.5 1.1,0 1.6,-0.7 1.6,-2.2 0,-1.4 -0.5,-2.2 -1.6,-2.2 -0.5,0 -1,0.2 -1.2,0.5 -0.2,0.5 -0.4,1.1 -0.4,1.8 z" /><path
         id="path2151"
         d="m 1023.7,534.4 -1.6,0 -1.5,-2.4 -1.5,2.4 -1.5,0 2.1,-3.3 -2,-3.1 1.5,0 1.4,2.3 1.4,-2.3 1.5,0 -2,3.2 2.2,3.2 z" /></g><g
       id="g2153"><path
         id="path2155"
         d="m 891.6,509.6 c 0,0.6 -0.2,1 -0.6,1.4 -0.4,0.3 -1,0.5 -1.7,0.5 -0.7,0 -1.3,-0.1 -1.8,-0.4 l 0,-1.3 c 0.4,0.2 0.8,0.3 1.1,0.4 0.3,0.1 0.6,0.1 0.8,0.1 0.3,0 0.5,-0.1 0.7,-0.2 0.2,-0.1 0.2,-0.3 0.2,-0.5 0,-0.1 0,-0.2 -0.1,-0.3 -0.1,-0.1 -0.2,-0.2 -0.3,-0.3 -0.1,-0.1 -0.4,-0.2 -0.8,-0.4 -0.4,-0.2 -0.7,-0.4 -0.9,-0.5 -0.2,-0.1 -0.4,-0.4 -0.5,-0.6 -0.1,-0.2 -0.2,-0.5 -0.2,-0.8 0,-0.6 0.2,-1 0.6,-1.3 0.4,-0.3 0.9,-0.5 1.6,-0.5 0.3,0 0.7,0 1,0.1 0.3,0.1 0.6,0.2 1,0.3 l -0.4,1.1 c -0.3,-0.1 -0.6,-0.2 -0.9,-0.3 -0.2,-0.1 -0.4,-0.1 -0.7,-0.1 -0.3,0 -0.5,0.1 -0.6,0.2 -0.1,0.1 -0.2,0.3 -0.2,0.5 0,0.1 0,0.2 0.1,0.3 0.1,0.1 0.1,0.2 0.3,0.3 0.1,0.1 0.4,0.2 0.9,0.5 0.6,0.3 1,0.6 1.2,0.9 0.1,0.1 0.2,0.5 0.2,0.9 z" /><path
         id="path2157"
         d="m 898,505 0,4.2 c 0,0.5 -0.1,0.9 -0.3,1.2 -0.2,0.4 -0.5,0.6 -0.9,0.8 -0.4,0.2 -0.9,0.3 -1.4,0.3 -0.8,0 -1.5,-0.2 -1.9,-0.6 -0.5,-0.4 -0.7,-1 -0.7,-1.7 l 0,-4.2 1.4,0 0,3.9 c 0,0.5 0.1,0.9 0.3,1.1 0.2,0.2 0.5,0.3 1,0.3 0.4,0 0.8,-0.1 1,-0.3 0.2,-0.2 0.3,-0.6 0.3,-1.1 l 0,-3.9 1.2,0 z" /><path
         id="path2159"
         d="m 901,508.9 0,2.5 -1.4,0 0,-6.4 1.9,0 c 0.9,0 1.5,0.2 1.9,0.5 0.4,0.3 0.6,0.8 0.6,1.4 0,0.4 -0.1,0.7 -0.3,1 -0.2,0.3 -0.5,0.5 -0.9,0.7 1,1.4 1.6,2.4 1.9,2.8 l -1.5,0 -1.5,-2.5 -0.7,0 z m 0,-1.1 0.4,0 c 0.4,0 0.7,-0.1 1,-0.2 0.2,-0.1 0.3,-0.4 0.3,-0.7 0,-0.3 -0.1,-0.5 -0.3,-0.7 -0.2,-0.1 -0.5,-0.2 -1,-0.2 l -0.4,0 0,1.8 z" /><path
         id="path2161"
         d="m 906.9,511.4 -1.3,0 0,-6.4 3.7,0 0,1.1 -2.3,0 0,1.7 2.2,0 0,1.1 -2.2,0 0,2.5 z" /><path
         id="path2163"
         d="m 914.4,511.4 -0.5,-1.5 -2.3,0 -0.5,1.5 -1.5,0 2.3,-6.5 1.7,0 2.3,6.5 -1.5,0 z m -0.8,-2.7 c -0.4,-1.4 -0.7,-2.2 -0.7,-2.4 -0.1,-0.2 -0.1,-0.3 -0.1,-0.4 -0.1,0.4 -0.4,1.3 -0.8,2.8 l 1.6,0 z" /><path
         id="path2165"
         d="m 919.4,506 c -0.5,0 -0.9,0.2 -1.2,0.6 -0.3,0.4 -0.4,0.9 -0.4,1.6 0,1.4 0.5,2.1 1.6,2.1 0.5,0 1,-0.1 1.6,-0.3 l 0,1.1 c -0.5,0.2 -1.1,0.3 -1.8,0.3 -0.9,0 -1.6,-0.3 -2.1,-0.9 -0.5,-0.6 -0.7,-1.4 -0.7,-2.4 0,-0.7 0.1,-1.3 0.4,-1.8 0.2,-0.5 0.6,-0.9 1,-1.2 0.5,-0.3 1,-0.4 1.6,-0.4 0.6,0 1.3,0.2 1.9,0.5 l -0.4,1.1 c -0.2,-0.1 -0.5,-0.2 -0.7,-0.3 -0.2,-0.1 -0.5,0 -0.8,0 z" /><path
         id="path2167"
         d="m 926.1,511.4 -3.7,0 0,-6.4 3.7,0 0,1.1 -2.3,0 0,1.4 2.2,0 0,1.1 -2.2,0 0,1.7 2.3,0 0,1.1 z" /><path
         id="path2169"
         d="m 936.1,511.4 -1.6,0 -0.9,-3.4 c 0,-0.1 -0.1,-0.4 -0.2,-0.7 -0.1,-0.4 -0.1,-0.6 -0.1,-0.8 0,0.2 -0.1,0.4 -0.1,0.8 -0.1,0.3 -0.1,0.6 -0.2,0.7 l -0.9,3.4 -1.5,0 -1.6,-6.4 1.3,0 0.8,3.5 c 0.1,0.6 0.2,1.2 0.3,1.7 0,-0.2 0.1,-0.4 0.1,-0.8 0.1,-0.3 0.1,-0.6 0.2,-0.8 l 0.9,-3.6 1.3,0 0.9,3.6 c 0,0.2 0.1,0.4 0.2,0.7 0.1,0.3 0.1,0.6 0.1,0.9 0,-0.2 0.1,-0.5 0.1,-0.9 0.1,-0.3 0.1,-0.6 0.2,-0.8 l 0.8,-3.5 1.3,0 -1.4,6.4 z" /><path
         id="path2171"
         d="m 938.5,511.4 0,-6.4 1.4,0 0,6.4 -1.4,0 z" /><path
         id="path2173"
         d="m 947.2,511.4 -1.7,0 -2.8,-4.9 0,0 c 0.1,0.9 0.1,1.5 0.1,1.8 l 0,3 -1.2,0 0,-6.3 1.7,0 2.8,4.8 0,0 c 0,-0.8 -0.1,-1.4 -0.1,-1.8 l 0,-3 1.2,0 0,6.4 z" /><path
         id="path2175"
         d="m 951.5,506 c -0.5,0 -0.9,0.2 -1.2,0.6 -0.3,0.4 -0.4,0.9 -0.4,1.6 0,1.4 0.5,2.1 1.6,2.1 0.5,0 1,-0.1 1.6,-0.3 l 0,1.1 c -0.5,0.2 -1.1,0.3 -1.8,0.3 -0.9,0 -1.6,-0.3 -2.1,-0.9 -0.5,-0.6 -0.7,-1.4 -0.7,-2.4 0,-0.7 0.1,-1.3 0.4,-1.8 0.2,-0.5 0.6,-0.9 1,-1.2 0.5,-0.3 1,-0.4 1.6,-0.4 0.6,0 1.3,0.2 1.9,0.5 l -0.4,1.1 c -0.2,-0.1 -0.5,-0.2 -0.7,-0.3 -0.2,-0.1 -0.5,0 -0.8,0 z" /><path
         id="path2177"
         d="m 959.8,511.4 -1.4,0 0,-2.8 -2.5,0 0,2.8 -1.4,0 0,-6.4 1.4,0 0,2.5 2.5,0 0,-2.5 1.4,0 0,6.4 z" /><path
         id="path2179"
         d="m 967.6,509.6 c 0,0.6 -0.2,1 -0.6,1.4 -0.4,0.3 -1,0.5 -1.7,0.5 -0.7,0 -1.3,-0.1 -1.8,-0.4 l 0,-1.3 c 0.4,0.2 0.8,0.3 1.1,0.4 0.3,0.1 0.6,0.1 0.8,0.1 0.3,0 0.5,-0.1 0.7,-0.2 0.2,-0.1 0.2,-0.3 0.2,-0.5 0,-0.1 0,-0.2 -0.1,-0.3 -0.1,-0.1 -0.2,-0.2 -0.3,-0.3 -0.1,-0.1 -0.4,-0.2 -0.8,-0.4 -0.4,-0.2 -0.7,-0.4 -0.9,-0.5 -0.2,-0.1 -0.4,-0.4 -0.5,-0.6 -0.1,-0.2 -0.2,-0.5 -0.2,-0.8 0,-0.6 0.2,-1 0.6,-1.3 0.4,-0.3 0.9,-0.5 1.6,-0.5 0.3,0 0.7,0 1,0.1 0.3,0.1 0.6,0.2 1,0.3 l -0.4,1.1 c -0.3,-0.1 -0.6,-0.2 -0.9,-0.3 -0.2,-0.1 -0.4,-0.1 -0.7,-0.1 -0.3,0 -0.5,0.1 -0.6,0.2 -0.1,0.1 -0.2,0.3 -0.2,0.5 0,0.1 0,0.2 0.1,0.3 0.1,0.1 0.1,0.2 0.3,0.3 0.1,0.1 0.4,0.2 0.9,0.5 0.6,0.3 1,0.6 1.2,0.9 0,0.1 0.2,0.5 0.2,0.9 z" /><path
         id="path2181"
         d="m 968.7,511.4 0,-6.4 1.4,0 0,5.3 2.6,0 0,1.1 -4,0 z" /><path
         id="path2183"
         d="m 973.8,511.4 0,-6.4 1.4,0 0,6.4 -1.4,0 z" /><path
         id="path2185"
         d="m 981.2,507 c 0,0.7 -0.2,1.2 -0.6,1.6 -0.4,0.4 -1,0.5 -1.8,0.5 l -0.6,0 0,2.3 -1.4,0 0,-6.4 2.1,0 c 0.8,0 1.4,0.2 1.8,0.5 0.3,0.3 0.5,0.8 0.5,1.5 z m -3.1,1 0.4,0 c 0.4,0 0.7,-0.1 0.9,-0.2 0.2,-0.2 0.3,-0.4 0.3,-0.7 0,-0.3 -0.1,-0.6 -0.3,-0.7 -0.2,-0.2 -0.4,-0.2 -0.8,-0.2 l -0.6,0 0,1.8 z" /><path
         id="path2187"
         d="m 986.1,508.9 0,2.5 -1.4,0 0,-6.4 1.9,0 c 0.9,0 1.5,0.2 1.9,0.5 0.4,0.3 0.6,0.8 0.6,1.4 0,0.4 -0.1,0.7 -0.3,1 -0.2,0.3 -0.5,0.5 -0.9,0.7 1,1.4 1.6,2.4 1.9,2.8 l -1.5,0 -1.5,-2.5 -0.7,0 z m 0,-1.1 0.4,0 c 0.4,0 0.7,-0.1 1,-0.2 0.2,-0.1 0.3,-0.4 0.3,-0.7 0,-0.3 -0.1,-0.5 -0.3,-0.7 -0.2,-0.1 -0.5,-0.2 -1,-0.2 l -0.4,0 0,1.8 z" /><path
         id="path2189"
         d="m 990.7,511.4 0,-6.4 1.4,0 0,6.4 -1.4,0 z" /><path
         id="path2191"
         d="m 999.4,511.4 -1.7,0 -2.8,-4.9 0,0 c 0.1,0.9 0.1,1.5 0.1,1.8 l 0,3 -1.2,0 0,-6.3 1.7,0 2.8,4.8 0,0 c 0,-0.8 -0.1,-1.4 -0.1,-1.8 l 0,-3 1.2,0 0,6.4 z" /><path
         id="path2193"
         d="m 1003.5,507.8 2.5,0 0,3.3 c -0.4,0.1 -0.8,0.2 -1.2,0.3 -0.4,0.1 -0.7,0.1 -1.1,0.1 -1,0 -1.7,-0.3 -2.2,-0.9 -0.5,-0.6 -0.8,-1.4 -0.8,-2.5 0,-1 0.3,-1.8 0.9,-2.4 0.6,-0.6 1.4,-0.9 2.5,-0.9 0.7,0 1.3,0.1 1.9,0.4 l -0.5,1.1 c -0.5,-0.2 -1,-0.4 -1.5,-0.4 -0.6,0 -1.1,0.2 -1.4,0.6 -0.4,0.4 -0.5,0.9 -0.5,1.6 0,0.7 0.1,1.2 0.4,1.6 0.3,0.4 0.7,0.6 1.2,0.6 0.3,0 0.6,0 0.9,-0.1 l 0,-1.3 -1.2,0 0,-1.1 z" /><path
         id="path2195"
         d="m 1011.3,509.6 c 0,0.6 -0.2,1 -0.6,1.4 -0.4,0.3 -1,0.5 -1.7,0.5 -0.7,0 -1.3,-0.1 -1.8,-0.4 l 0,-1.3 c 0.4,0.2 0.8,0.3 1.1,0.4 0.3,0.1 0.6,0.1 0.8,0.1 0.3,0 0.5,-0.1 0.7,-0.2 0.2,-0.1 0.2,-0.3 0.2,-0.5 0,-0.1 0,-0.2 -0.1,-0.3 -0.1,-0.1 -0.2,-0.2 -0.3,-0.3 -0.1,-0.1 -0.4,-0.2 -0.8,-0.4 -0.4,-0.2 -0.7,-0.4 -0.9,-0.5 -0.2,-0.1 -0.4,-0.4 -0.5,-0.6 -0.1,-0.2 -0.2,-0.5 -0.2,-0.8 0,-0.6 0.2,-1 0.6,-1.3 0.4,-0.3 0.9,-0.5 1.6,-0.5 0.3,0 0.7,0 1,0.1 0.3,0.1 0.6,0.2 1,0.3 l -0.4,1.1 c -0.3,-0.1 -0.6,-0.2 -0.9,-0.3 -0.2,-0.1 -0.4,-0.1 -0.7,-0.1 -0.3,0 -0.5,0.1 -0.6,0.2 -0.1,0.1 -0.2,0.3 -0.2,0.5 0,0.1 0,0.2 0.1,0.3 0.1,0.1 0.1,0.2 0.3,0.3 0.1,0.1 0.4,0.2 0.9,0.5 0.6,0.3 1,0.6 1.2,0.9 0.1,0.1 0.2,0.5 0.2,0.9 z" /></g></g><g
     transform="translate(-569.31653,-269.85556)"
     style="display:inline"
     id="layer1"><circle
       r="13.258252"
       cy="414.34589"
       cx="1130.5797"
       id="circle8688"
       style="color:#000000;clip-rule:nonzero;display:inline;overflow:visible;visibility:visible;opacity:1;isolation:auto;mix-blend-mode:normal;color-interpolation:sRGB;color-interpolation-filters:linearRGB;solid-color:#000000;solid-opacity:1;fill:url(#linearGradient8694);fill-opacity:1;fill-rule:nonzero;stroke:url(#radialGradient8696);stroke-width:4;stroke-linecap:butt;stroke-linejoin:miter;stroke-miterlimit:4;stroke-dasharray:none;stroke-dashoffset:0;stroke-opacity:0;color-rendering:auto;image-rendering:auto;shape-rendering:auto;text-rendering:auto;enable-background:accumulate" /><circle
       style="color:#000000;clip-rule:nonzero;display:inline;overflow:visible;visibility:visible;opacity:1;isolation:auto;mix-blend-mode:normal;color-interpolation:sRGB;color-interpolation-filters:linearRGB;solid-color:#000000;solid-opacity:1;fill:url(#linearGradient8704);fill-opacity:1;fill-rule:nonzero;stroke:url(#radialGradient8706);stroke-width:4;stroke-linecap:butt;stroke-linejoin:miter;stroke-miterlimit:4;stroke-dasharray:none;stroke-dashoffset:0;stroke-opacity:0;color-rendering:auto;image-rendering:auto;shape-rendering:auto;text-rendering:auto;enable-background:accumulate"
       id="circle8698"
       cx="1030.1705"
       cy="477.9855"
       r="13.258252" /><circle
       r="13.258252"
       cy="532.43274"
       cx="1040.7771"
       id="circle8708"
       style="color:#000000;clip-rule:nonzero;display:inline;overflow:visible;visibility:visible;opacity:1;isolation:auto;mix-blend-mode:normal;color-interpolation:sRGB;color-interpolation-filters:linearRGB;solid-color:#000000;solid-opacity:1;fill:url(#linearGradient8714);fill-opacity:1;fill-rule:nonzero;stroke:url(#radialGradient8716);stroke-width:4;stroke-linecap:butt;stroke-linejoin:miter;stroke-miterlimit:4;stroke-dasharray:none;stroke-dashoffset:0;stroke-opacity:0;color-rendering:auto;image-rendering:auto;shape-rendering:auto;text-rendering:auto;enable-background:accumulate" /><circle
       style="color:#000000;clip-rule:nonzero;display:inline;overflow:visible;visibility:visible;opacity:1;isolation:auto;mix-blend-mode:normal;color-interpolation:sRGB;color-interpolation-filters:linearRGB;solid-color:#000000;solid-opacity:1;fill:url(#linearGradient8724);fill-opacity:1;fill-rule:nonzero;stroke:url(#radialGradient8726);stroke-width:4;stroke-linecap:butt;stroke-linejoin:miter;stroke-miterlimit:4;stroke-dasharray:none;stroke-dashoffset:0;stroke-opacity:0;color-rendering:auto;image-rendering:auto;shape-rendering:auto;text-rendering:auto;enable-background:accumulate"
       id="circle8718"
       cx="1136.9436"
       cy="506.9769"
       r="13.258252" /></g><g
     transform="translate(-569.31653,-269.85556)"
     style="display:inline"
     id="layer3"><text
       id="text8690"
       y="421.31931"
       x="1118.6091"
       style="font-style:normal;font-variant:normal;font-weight:normal;font-stretch:normal;font-size:17.5px;line-height:125%;font-family:sans-serif;-inkscape-font-specification:'sans-serif, Normal';text-align:start;letter-spacing:0px;word-spacing:0px;writing-mode:lr-tb;text-anchor:start;display:inline;fill:#ffffff;fill-opacity:1;stroke:none;stroke-width:1px;stroke-linecap:butt;stroke-linejoin:miter;stroke-opacity:1"
       xml:space="preserve"><tspan
         y="421.31931"
         x="1118.6091"
         id="tspan8692">12</tspan></text>
<text
       xml:space="preserve"
       style="font-style:normal;font-variant:normal;font-weight:normal;font-stretch:normal;font-size:17.5px;line-height:125%;font-family:sans-serif;-inkscape-font-specification:'sans-serif, Normal';text-align:start;letter-spacing:0px;word-spacing:0px;writing-mode:lr-tb;text-anchor:start;display:inline;fill:#ffffff;fill-opacity:1;stroke:none;stroke-width:1px;stroke-linecap:butt;stroke-linejoin:miter;stroke-opacity:1"
       x="1018.3872"
       y="484.09778"
       id="text8700"><tspan
         id="tspan8702"
         x="1018.3872"
         y="484.09778">14</tspan></text>
<text
       id="text8710"
       y="538.43732"
       x="1028.8861"
       style="font-style:normal;font-variant:normal;font-weight:normal;font-stretch:normal;font-size:17.5px;line-height:125%;font-family:sans-serif;-inkscape-font-specification:'sans-serif, Normal';text-align:start;letter-spacing:0px;word-spacing:0px;writing-mode:lr-tb;text-anchor:start;display:inline;fill:#ffffff;fill-opacity:1;stroke:none;stroke-width:1px;stroke-linecap:butt;stroke-linejoin:miter;stroke-opacity:1"
       xml:space="preserve"><tspan
         y="538.43732"
         x="1028.8861"
         id="tspan8712">14</tspan></text>
<text
       xml:space="preserve"
       style="font-style:normal;font-variant:normal;font-weight:normal;font-stretch:normal;font-size:17.5px;line-height:125%;font-family:sans-serif;-inkscape-font-specification:'sans-serif, Normal';text-align:start;letter-spacing:0px;word-spacing:0px;writing-mode:lr-tb;text-anchor:start;display:inline;fill:#ffffff;fill-opacity:1;stroke:none;stroke-width:1px;stroke-linecap:butt;stroke-linejoin:miter;stroke-opacity:1"
       x="1130.973"
       y="513.95026"
       id="text8720"><tspan
         id="tspan8722"
         x="1130.973"
         y="513.95026">9</tspan></text>
</g><g
     transform="translate(-569.31653,-269.85556)"
     style="display:none"
     id="layer5"><rect
       y="25.584738"
       x="12.178486"
       height="864.67249"
       width="1573.4603"
       id="rect5845"
       style="color:#000000;clip-rule:nonzero;display:inline;overflow:visible;visibility:visible;opacity:1;isolation:auto;mix-blend-mode:normal;color-interpolation:sRGB;color-interpolation-filters:linearRGB;solid-color:#000000;solid-opacity:1;fill:#000080;fill-opacity:1;fill-rule:nonzero;stroke:none;stroke-width:4;stroke-linecap:butt;stroke-linejoin:miter;stroke-miterlimit:4;stroke-dasharray:none;stroke-dashoffset:0;stroke-opacity:0;color-rendering:auto;image-rendering:auto;shape-rendering:auto;text-rendering:auto;enable-background:accumulate" /></g><g
     transform="translate(-569.31653,-269.85556)"
     id="g5666"
     style="display:inline"><ellipse
       ry="21.870644"
       rx="22.247652"
       cy="453.957"
       cx="927.44897"
       id="circle5670"
       style="color:#000000;clip-rule:nonzero;display:inline;overflow:visible;visibility:visible;opacity:1;isolation:auto;mix-blend-mode:normal;color-interpolation:sRGB;color-interpolation-filters:linearRGB;solid-color:#000000;solid-opacity:1;fill:#ff0000;fill-opacity:1;fill-rule:nonzero;stroke:url(#radialGradient5851);stroke-width:6.65497732;stroke-linecap:butt;stroke-linejoin:miter;stroke-miterlimit:4;stroke-dasharray:none;stroke-dashoffset:0;stroke-opacity:0;color-rendering:auto;image-rendering:auto;shape-rendering:auto;text-rendering:auto;enable-background:accumulate" /></g><g
     transform="translate(-569.31653,-269.85556)"
     id="g5730"
     style="display:inline"><text
       transform="scale(1.0085822,0.99149083)"
       id="text5736"
       y="469.45502"
       x="909.6236"
       style="font-style:normal;font-variant:normal;font-weight:normal;font-stretch:normal;font-size:29.1155262px;line-height:125%;font-family:sans-serif;-inkscape-font-specification:'sans-serif, Normal';text-align:start;letter-spacing:0px;word-spacing:0px;writing-mode:lr-tb;text-anchor:start;display:inline;fill:#ffffff;fill-opacity:1;stroke:none;stroke-width:1px;stroke-linecap:butt;stroke-linejoin:miter;stroke-opacity:1"
       xml:space="preserve"><tspan
         y="469.45502"
         x="909.6236"
         id="tspan5738">3</tspan></text>
</g></svg>