<?xml version="1.0" encoding="UTF-8" standalone="no"?>
<svg
   xmlns:dc="http://purl.org/dc/elements/1.1/"
   xmlns:cc="http://creativecommons.org/ns#"
   xmlns:rdf="http://www.w3.org/1999/02/22-rdf-syntax-ns#"
   xmlns:svg="http://www.w3.org/2000/svg"
   xmlns="http://www.w3.org/2000/svg"
   xmlns:xlink="http://www.w3.org/1999/xlink"
   height="439.02008"
   width="596.66034"
   xml:space="preserve"
   viewBox="0 0 596.66036 439.02008"
   y="0px"
   x="0px"
   id="Layer_1"
   version="1.1"><metadata
     id="metadata2809"><rdf:RDF><cc:Work
         rdf:about=""><dc:format>image/svg+xml</dc:format><dc:type
           rdf:resource="http://purl.org/dc/dcmitype/StillImage" /><dc:title></dc:title></cc:Work></rdf:RDF></metadata><defs
     id="defs2807"><linearGradient
       id="linearGradient8540"><stop
         style="stop-color:#198ce7;stop-opacity:1"
         offset="0"
         id="stop8542" /><stop
         style="stop-color:#198ce7;stop-opacity:1"
         offset="1"
         id="stop8544" /></linearGradient><linearGradient
       id="linearGradient6949"><stop
         id="stop6951"
         offset="0"
         style="stop-color:#198ce7;stop-opacity:1;" /><stop
         id="stop6953"
         offset="1"
         style="stop-color:#198ce7;stop-opacity:0;" /></linearGradient><linearGradient
       gradientUnits="userSpaceOnUse"
       y2="148.43127"
       x2="798.89215"
       y1="134.29173"
       x1="776.2265"
       id="linearGradient8538-9"
       xlink:href="#linearGradient8540"
       gradientTransform="translate(-769.71306,-117.82241)" /><radialGradient
       gradientUnits="userSpaceOnUse"
       r="15.258252"
       fy="133.08066"
       fx="784.97131"
       cy="133.08066"
       cx="784.97131"
       id="radialGradient8524-3"
       xlink:href="#linearGradient8540"
       gradientTransform="translate(-769.71306,-117.82241)" /><radialGradient
       gradientUnits="userSpaceOnUse"
       r="15.258252"
       fy="133.08066"
       fx="784.97131"
       cy="133.08066"
       cx="784.97131"
       id="radialGradient8524-4"
       xlink:href="#linearGradient8540"
       gradientTransform="translate(-769.71306,-117.82241)" /><radialGradient
       gradientUnits="userSpaceOnUse"
       r="15.258252"
       fy="133.08066"
       fx="784.97131"
       cy="133.08066"
       cx="784.97131"
       id="radialGradient8524-6"
       xlink:href="#linearGradient8540"
       gradientTransform="translate(-769.71306,-117.82241)" /><radialGradient
       gradientUnits="userSpaceOnUse"
       r="15.258252"
       fy="133.08066"
       fx="784.97131"
       cy="133.08066"
       cx="784.97131"
       id="radialGradient8524-1"
       xlink:href="#linearGradient8540"
       gradientTransform="translate(-769.71306,-117.82241)" /><radialGradient
       gradientUnits="userSpaceOnUse"
       r="15.258252"
       fy="133.08066"
       fx="784.97131"
       cy="133.08066"
       cx="784.97131"
       id="radialGradient8524-2"
       xlink:href="#linearGradient8540"
       gradientTransform="translate(-769.71306,-117.82241)" /><radialGradient
       gradientUnits="userSpaceOnUse"
       r="15.258252"
       fy="133.08066"
       fx="784.97131"
       cy="133.08066"
       cx="784.97131"
       id="radialGradient8524-9"
       xlink:href="#linearGradient8540"
       gradientTransform="translate(-769.71306,-117.82241)" /><radialGradient
       gradientTransform="matrix(1.6780229,0,0,1.6495873,-328.15836,-155.91929)"
       r="15.258252"
       fy="133.08066"
       fx="784.97131"
       cy="133.08066"
       cx="784.97131"
       gradientUnits="userSpaceOnUse"
       id="radialGradient5849"
       xlink:href="#linearGradient6949" /><linearGradient
       y2="148.43127"
       x2="798.89215"
       y1="134.29173"
       x1="776.2265"
       gradientUnits="userSpaceOnUse"
       id="linearGradient5855"
       xlink:href="#linearGradient8540" /><radialGradient
       r="15.258252"
       fy="133.08066"
       fx="784.97131"
       cy="133.08066"
       cx="784.97131"
       gradientUnits="userSpaceOnUse"
       id="radialGradient5857"
       xlink:href="#linearGradient6949" /><linearGradient
       y2="148.43127"
       x2="798.89215"
       y1="134.29173"
       x1="776.2265"
       gradientUnits="userSpaceOnUse"
       id="linearGradient5859"
       xlink:href="#linearGradient8540" /><radialGradient
       r="15.258252"
       fy="133.08066"
       fx="784.97131"
       cy="133.08066"
       cx="784.97131"
       gradientUnits="userSpaceOnUse"
       id="radialGradient5861"
       xlink:href="#linearGradient6949" /><linearGradient
       y2="148.43127"
       x2="798.89215"
       y1="134.29173"
       x1="776.2265"
       gradientUnits="userSpaceOnUse"
       id="linearGradient5863"
       xlink:href="#linearGradient8540" /><radialGradient
       r="15.258252"
       fy="133.08066"
       fx="784.97131"
       cy="133.08066"
       cx="784.97131"
       gradientUnits="userSpaceOnUse"
       id="radialGradient5865"
       xlink:href="#linearGradient6949" /><linearGradient
       y2="148.43127"
       x2="798.89215"
       y1="134.29173"
       x1="776.2265"
       gradientUnits="userSpaceOnUse"
       id="linearGradient5867"
       xlink:href="#linearGradient8540" /><radialGradient
       r="15.258252"
       fy="133.08066"
       fx="784.97131"
       cy="133.08066"
       cx="784.97131"
       gradientUnits="userSpaceOnUse"
       id="radialGradient5869"
       xlink:href="#linearGradient6949" /><linearGradient
       y2="148.43127"
       x2="798.89215"
       y1="134.29173"
       x1="776.2265"
       gradientUnits="userSpaceOnUse"
       id="linearGradient5871"
       xlink:href="#linearGradient8540" /><radialGradient
       r="15.258252"
       fy="133.08066"
       fx="784.97131"
       cy="133.08066"
       cx="784.97131"
       gradientUnits="userSpaceOnUse"
       id="radialGradient5873"
       xlink:href="#linearGradient6949" /></defs><style
     id="style3"
     type="text/css">
	.st0{fill:none;stroke:#000000;}
	.st1{fill:#FFFFFF;}
	.st2{fill:none;stroke:#000000;stroke-dasharray:3.845,3.845;}
	.st3{fill:none;stroke:#000000;stroke-dasharray:3.689,3.689;}
	.st4{fill:none;stroke:#000000;stroke-dasharray:3.909,3.909;}
	.st5{fill:none;stroke:#000000;stroke-dasharray:4.042,4.042;}
	.st6{fill:none;stroke:#000000;stroke-dasharray:4.2,4.2;}
	.st7{fill:none;stroke:#000000;stroke-dasharray:3.714,3.714;}
	.st8{fill:none;stroke:#000000;stroke-dasharray:3.336,3.336;}
	.st9{fill:none;stroke:#000000;stroke-dasharray:4,4;}
	.st10{fill:none;stroke:#000000;stroke-dasharray:3.401,3.401;}
	.st11{fill:none;stroke:#000000;stroke-dasharray:3.693,3.693;}
	.st12{fill:none;stroke:#000000;stroke-dasharray:3.634,3.634;}
	.st13{fill:none;stroke:#000000;stroke-dasharray:4.286,4.286;}
	.st14{fill:none;stroke:#000000;stroke-dasharray:3.802,3.802;}
	.st15{fill:none;stroke:#000000;stroke-dasharray:3.938,3.938;}
	.st16{fill:none;stroke:#000000;stroke-dasharray:3.99,3.99;}
	.st17{fill:#007BB9;}
</style><g
     transform="translate(-26.792667,-30.456133)"
     id="layer4"><rect
       y="30.456133"
       x="26.792667"
       height="439.02008"
       width="596.66034"
       id="rect5665"
       style="color:#000000;clip-rule:nonzero;display:inline;overflow:visible;visibility:visible;opacity:1;isolation:auto;mix-blend-mode:normal;color-interpolation:sRGB;color-interpolation-filters:linearRGB;solid-color:#000000;solid-opacity:1;fill:#ffffff;fill-opacity:1;fill-rule:nonzero;stroke:none;stroke-width:4;stroke-linecap:butt;stroke-linejoin:miter;stroke-miterlimit:4;stroke-dasharray:none;stroke-dashoffset:0;stroke-opacity:0;color-rendering:auto;image-rendering:auto;shape-rendering:auto;text-rendering:auto;enable-background:accumulate" /></g><g
     transform="translate(-26.792667,-30.456133)"
     style="display:inline"
     id="layer2"><rect
       id="rect5"
       height="424.61661"
       width="561.32465"
       class="st0"
       y="40.238579"
       x="40.238579"
       style="fill:none;stroke:#000000;stroke-width:0.47715658" /><line
       id="line17"
       y2="204.5"
       x2="375"
       y1="204.5"
       x1="83"
       class="st0"
       style="fill:none;stroke:#000000" /><rect
       id="rect23"
       height="56"
       width="93"
       class="st1"
       y="99.5"
       x="83.5"
       style="fill:#ffffff" /><rect
       id="rect25"
       height="56"
       width="93"
       class="st0"
       y="99.5"
       x="83.5"
       style="fill:none;stroke:#000000" /><rect
       id="rect27"
       height="56"
       width="93"
       class="st1"
       y="176.5"
       x="132.5"
       style="fill:#ffffff" /><rect
       id="rect29"
       height="56"
       width="93"
       class="st0"
       y="176.5"
       x="132.5"
       style="fill:none;stroke:#000000" /><rect
       id="rect87"
       height="28.5"
       width="61"
       class="st1"
       y="141"
       x="338.5"
       style="fill:#ffffff" /><rect
       id="rect89"
       height="28.5"
       width="61"
       class="st0"
       y="141"
       x="338.5"
       style="fill:none;stroke:#000000" /><polyline
       id="polyline109"
       points="177,127.5 238,127.5 238,187 "
       class="st0"
       style="fill:none;stroke:#000000" /><polyline
       id="polyline111"
       points="238,220 238,281 83,281.5 "
       class="st0"
       style="fill:none;stroke:#000000" /><line
       id="line113"
       y2="207"
       x2="255.5"
       y1="202"
       x1="255.5"
       class="st0"
       style="fill:none;stroke:#000000" /><line
       id="line115"
       y2="201.8"
       x2="252.89999"
       y1="188.2"
       x1="239.3"
       class="st2"
       style="fill:none;stroke:#000000;stroke-dasharray:3.845, 3.845" /><line
       id="line117"
       y2="219.8"
       x2="239.8"
       y1="206.8"
       x1="252.89999"
       class="st3"
       style="fill:none;stroke:#000000;stroke-dasharray:3.689, 3.689" /><polyline
       id="polyline119"
       points="369.8,140.5 369.8,84.5 444.8,84.5 "
       class="st0"
       style="fill:none;stroke:#000000" /><polygon
       id="polygon121"
       points="443.3,87.1 450.3,84.5 443.3,81.9 " /><polyline
       id="polyline123"
       points="329.8,204.5 329.8,155.2 339,155.2 "
       class="st0"
       style="fill:none;stroke:#000000" /><polyline
       id="polyline125"
       points="361,280.5 317.8,280.5 317.8,217 "
       class="st0"
       style="fill:none;stroke:#000000" /><polyline
       id="polyline127"
       points="354,127.5 317.8,127.5 317.8,191 "
       class="st0"
       style="fill:none;stroke:#000000" /><line
       id="line129"
       y2="280.5"
       x2="406"
       y1="280.5"
       x1="363"
       class="st4"
       style="fill:none;stroke:#000000;stroke-dasharray:3.909, 3.909" /><line
       id="line131"
       y2="127.5"
       x2="387"
       y1="127.5"
       x1="358.70001"
       class="st5"
       style="fill:none;stroke:#000000;stroke-dasharray:4.042, 4.042" /><line
       id="line133"
       y2="127.5"
       x2="456"
       y1="127.5"
       x1="392"
       class="st0"
       style="fill:none;stroke:#000000" /><line
       id="line135"
       y2="280.5"
       x2="439"
       y1="280.5"
       x1="410.29999"
       class="st0"
       style="fill:none;stroke:#000000" /><line
       id="line137"
       y2="280.5"
       x2="463"
       y1="280.5"
       x1="442"
       class="st6"
       style="fill:none;stroke:#000000;stroke-dasharray:4.2, 4.2" /><line
       id="line139"
       y2="127.5"
       x2="487"
       y1="127.5"
       x1="461"
       class="st7"
       style="fill:none;stroke:#000000;stroke-dasharray:3.714, 3.714" /><polyline
       id="polyline141"
       points="550.5,217.2 550.5,280.5 466,280.5 "
       class="st0"
       style="fill:none;stroke:#000000" /><polyline
       id="polyline143"
       points="550.5,190.8 550.5,127.5 491,127.5 "
       class="st0"
       style="fill:none;stroke:#000000" /><line
       id="line145"
       y2="213.39999"
       x2="317.79999"
       y1="195"
       x1="317.79999"
       class="st3"
       style="fill:none;stroke:#000000;stroke-dasharray:3.689, 3.689" /><line
       id="line147"
       y2="213.39999"
       x2="550.5"
       y1="195"
       x1="550.5"
       class="st3"
       style="fill:none;stroke:#000000;stroke-dasharray:3.689, 3.689" /><line
       id="line149"
       y2="243"
       x2="409.70001"
       y1="204.7"
       x1="409.70001"
       class="st0"
       style="fill:none;stroke:#000000" /><line
       id="line151"
       y2="243"
       x2="498.79999"
       y1="204.7"
       x1="498.79999"
       class="st0"
       style="fill:none;stroke:#000000" /><line
       id="line153"
       y2="410"
       x2="410.29999"
       y1="296"
       x1="410.29999"
       class="st0"
       style="fill:none;stroke:#000000" /><line
       id="line155"
       y2="410"
       x2="498.79999"
       y1="296"
       x1="498.79999"
       class="st0"
       style="fill:none;stroke:#000000" /><line
       id="line157"
       y2="410"
       x2="432.39999"
       y1="410"
       x1="387"
       class="st0"
       style="fill:none;stroke:#000000" /><line
       id="line159"
       y2="410"
       x2="521.5"
       y1="410"
       x1="476.10001"
       class="st0"
       style="fill:none;stroke:#000000" /><polyline
       id="polyline161"
       points="388.1,409.8 391.9,414.5 395.4,409.8 " /><polyline
       id="polyline163"
       points="388.1,409.8 391.9,414.5 395.4,409.8 "
       class="st0"
       style="fill:none;stroke:#000000" /><polyline
       id="polyline165"
       points="400.1,409.8 403.9,414.5 407.4,409.8 " /><polyline
       id="polyline167"
       points="400.1,409.8 403.9,414.5 407.4,409.8 "
       class="st0"
       style="fill:none;stroke:#000000" /><polyline
       id="polyline169"
       points="412.1,409.8 415.9,414.5 419.4,409.8 " /><polyline
       id="polyline171"
       points="412.1,409.8 415.9,414.5 419.4,409.8 "
       class="st0"
       style="fill:none;stroke:#000000" /><polyline
       id="polyline173"
       points="424.1,409.8 427.9,414.5 431.4,409.8 " /><polyline
       id="polyline175"
       points="424.1,409.8 427.9,414.5 431.4,409.8 "
       class="st0"
       style="fill:none;stroke:#000000" /><polyline
       id="polyline177"
       points="477.1,409.8 480.9,414.5 484.4,409.8 " /><polyline
       id="polyline179"
       points="477.1,409.8 480.9,414.5 484.4,409.8 "
       class="st0"
       style="fill:none;stroke:#000000" /><polyline
       id="polyline181"
       points="489.1,409.8 492.9,414.5 496.4,409.8 " /><polyline
       id="polyline183"
       points="489.1,409.8 492.9,414.5 496.4,409.8 "
       class="st0"
       style="fill:none;stroke:#000000" /><polyline
       id="polyline185"
       points="501.1,409.8 504.9,414.5 508.4,409.8 " /><polyline
       id="polyline187"
       points="501.1,409.8 504.9,414.5 508.4,409.8 "
       class="st0"
       style="fill:none;stroke:#000000" /><polyline
       id="polyline189"
       points="513.1,409.8 516.9,414.5 520.4,409.8 " /><polyline
       id="polyline191"
       points="513.1,409.8 516.9,414.5 520.4,409.8 "
       class="st0"
       style="fill:none;stroke:#000000" /><rect
       id="rect201"
       height="56"
       width="83"
       class="st1"
       y="310.5"
       x="458.5"
       style="fill:#ffffff" /><rect
       id="rect203"
       height="56"
       width="83"
       class="st0"
       y="310.5"
       x="458.5"
       style="fill:none;stroke:#000000" /><rect
       id="rect205"
       height="56"
       width="83"
       class="st1"
       y="310.5"
       x="367.5"
       style="fill:#ffffff" /><rect
       id="rect207"
       height="56"
       width="83"
       class="st0"
       y="310.5"
       x="367.5"
       style="fill:none;stroke:#000000" /><polyline
       id="polyline429"
       points="512,242.7 498.8,261.2 498.8,295.8 "
       class="st0"
       style="fill:none;stroke:#000000" /><polygon
       id="polygon431"
       points="496.2,294.3 498.8,301.3 501.3,294.3 " /><polyline
       id="polyline433"
       points="423.4,242.7 410.2,261.2 410.2,295.8 "
       class="st0"
       style="fill:none;stroke:#000000" /><polygon
       id="polygon435"
       points="407.6,294.3 410.2,301.3 412.7,294.3 " /><polyline
       id="polyline481"
       points="375.4,191.3 394,204.5 605.6,204.5 "
       class="st0"
       style="fill:none;stroke:#000000" /><g
       id="g515"><path
         id="path517"
         d="m 95,117 c 0,1.1 -0.3,1.9 -0.9,2.4 -0.6,0.6 -1.4,0.8 -2.5,0.8 l -1.8,0 0,-6.4 2,0 c 1,0 1.8,0.3 2.3,0.8 0.5,0.5 0.9,1.4 0.9,2.4 z m -0.8,0 c 0,-0.8 -0.2,-1.5 -0.6,-1.9 -0.4,-0.4 -1,-0.6 -1.9,-0.6 l -1.1,0 0,5.1 0.9,0 c 0.9,0 1.6,-0.2 2,-0.7 0.4,-0.5 0.7,-1 0.7,-1.9 z" /><path
         id="path519"
         d="m 96.4,120.3 0,-6.4 0.7,0 0,6.4 -0.7,0 z" /><path
         id="path521"
         d="m 102.5,120.3 -3.5,0 0,-6.4 3.6,0 0,0.7 -2.8,0 0,2.1 2.7,0 0,0.7 -2.7,0 0,2.4 2.8,0 0,0.5 z" /><path
         id="path523"
         d="m 107.6,118.6 c 0,0.6 -0.2,1 -0.6,1.3 -0.4,0.3 -1,0.5 -1.7,0.5 -0.8,0 -1.3,-0.1 -1.8,-0.3 l 0,-0.7 c 0.3,0.1 0.6,0.2 0.9,0.3 0.3,0.1 0.6,0.1 0.9,0.1 0.5,0 0.9,-0.1 1.1,-0.3 0.3,-0.2 0.4,-0.5 0.4,-0.8 0,-0.2 0,-0.4 -0.1,-0.5 -0.1,-0.1 -0.2,-0.3 -0.4,-0.4 -0.2,-0.1 -0.5,-0.3 -1,-0.4 -0.6,-0.2 -1,-0.5 -1.3,-0.8 -0.3,-0.3 -0.4,-0.7 -0.4,-1.1 0,-0.5 0.2,-0.9 0.6,-1.2 0.4,-0.3 0.9,-0.4 1.5,-0.4 0.6,0 1.2,0.1 1.8,0.4 l -0.2,0.7 c -0.5,-0.2 -1,-0.3 -1.5,-0.3 -0.4,0 -0.7,0.1 -0.9,0.3 -0.2,0.2 -0.3,0.4 -0.3,0.7 0,0.2 0,0.4 0.1,0.5 0.1,0.1 0.2,0.3 0.4,0.4 0.2,0.1 0.5,0.2 0.9,0.4 0.7,0.2 1.1,0.5 1.4,0.8 0.1,0 0.2,0.3 0.2,0.8 z" /><path
         id="path525"
         d="m 112.5,120.3 -3.6,0 0,-6.4 3.6,0 0,0.7 -2.8,0 0,2.1 2.7,0 0,0.7 -2.7,0 0,2.4 2.8,0 0,0.5 z" /><path
         id="path527"
         d="m 113.9,120.3 0,-6.4 0.7,0 0,5.7 2.8,0 0,0.7 -3.5,0 z" /></g><g
       id="g529"><path
         id="path531"
         d="m 92.7,127.7 2.2,0 0,3.1 c -0.3,0.1 -0.7,0.2 -1,0.2 -0.3,0 -0.8,0.1 -1.2,0.1 -1,0 -1.7,-0.3 -2.3,-0.9 -0.5,-0.6 -0.8,-1.4 -0.8,-2.4 0,-0.7 0.1,-1.3 0.4,-1.8 0.3,-0.5 0.7,-0.9 1.2,-1.2 0.5,-0.3 1.1,-0.4 1.8,-0.4 0.7,0 1.3,0.1 1.9,0.4 l -0.3,0.7 c -0.6,-0.2 -1.1,-0.4 -1.7,-0.4 -0.8,0 -1.4,0.2 -1.8,0.7 -0.4,0.5 -0.7,1.1 -0.7,1.9 0,0.9 0.2,1.5 0.6,2 0.4,0.4 1,0.7 1.9,0.7 0.4,0 0.9,-0.1 1.3,-0.2 l 0,-2 -1.4,0 0,-0.5 z" /><path
         id="path533"
         d="m 100,131.1 -3.6,0 0,-6.4 3.6,0 0,0.7 -2.8,0 0,2.1 2.7,0 0,0.7 -2.7,0 0,2.4 2.8,0 0,0.5 z" /><path
         id="path535"
         d="m 106.5,131.1 -0.9,0 -3.5,-5.4 0,0 c 0,0.6 0.1,1.2 0.1,1.7 l 0,3.7 -0.7,0 0,-6.4 0.8,0 3.5,5.4 0,0 c 0,-0.1 0,-0.3 0,-0.8 0,-0.4 0,-0.7 0,-0.9 l 0,-3.7 0.7,0 0,6.4 z" /><path
         id="path537"
         d="m 111.8,131.1 -3.6,0 0,-6.4 3.6,0 0,0.7 -2.8,0 0,2.1 2.7,0 0,0.7 -2.7,0 0,2.4 2.8,0 0,0.5 z" /><path
         id="path539"
         d="m 114,128.4 0,2.7 -0.7,0 0,-6.4 1.8,0 c 0.8,0 1.4,0.2 1.7,0.5 0.4,0.3 0.6,0.8 0.6,1.4 0,0.8 -0.4,1.4 -1.3,1.7 l 1.7,2.9 -0.9,0 -1.6,-2.7 -1.3,0 z m 0,-0.6 1,0 c 0.5,0 0.9,-0.1 1.2,-0.3 0.2,-0.2 0.4,-0.5 0.4,-0.9 0,-0.4 -0.1,-0.7 -0.4,-0.9 -0.2,-0.2 -0.7,-0.3 -1.2,-0.3 l -1,0 0,2.4 z" /><path
         id="path541"
         d="m 122.8,131.1 -0.8,-2 -2.6,0 -0.8,2 -0.8,0 2.5,-6.5 0.6,0 2.5,6.5 -0.6,0 z m -1,-2.7 -0.7,-2 c -0.1,-0.3 -0.2,-0.6 -0.3,-0.9 -0.1,0.3 -0.2,0.6 -0.3,0.9 l -0.8,2 2.1,0 z" /><path
         id="path543"
         d="m 126.5,131.1 -0.7,0 0,-5.8 -2,0 0,-0.7 4.8,0 0,0.7 -2,0 0,5.8 z" /><path
         id="path545"
         d="m 135,127.9 c 0,1 -0.3,1.8 -0.8,2.4 -0.5,0.6 -1.2,0.9 -2.2,0.9 -0.9,0 -1.7,-0.3 -2.2,-0.9 -0.5,-0.6 -0.8,-1.4 -0.8,-2.4 0,-1 0.3,-1.9 0.8,-2.4 0.5,-0.6 1.2,-0.9 2.2,-0.9 0.9,0 1.6,0.3 2.2,0.9 0.6,0.6 0.8,1.3 0.8,2.4 z m -5.1,0 c 0,0.9 0.2,1.5 0.6,2 0.4,0.4 0.9,0.7 1.6,0.7 0.7,0 1.2,-0.2 1.6,-0.7 0.4,-0.5 0.5,-1.1 0.5,-2 0,-0.9 -0.2,-1.5 -0.5,-2 -0.3,-0.5 -0.9,-0.7 -1.6,-0.7 -0.7,0 -1.3,0.2 -1.6,0.7 -0.4,0.4 -0.6,1.1 -0.6,2 z" /><path
         id="path547"
         d="m 137.2,128.4 0,2.7 -0.7,0 0,-6.4 1.8,0 c 0.8,0 1.4,0.2 1.7,0.5 0.4,0.3 0.6,0.8 0.6,1.4 0,0.8 -0.4,1.4 -1.3,1.7 l 1.7,2.9 -0.9,0 -1.6,-2.7 -1.3,0 z m 0,-0.6 1,0 c 0.5,0 0.9,-0.1 1.2,-0.3 0.2,-0.2 0.4,-0.5 0.4,-0.9 0,-0.4 -0.1,-0.7 -0.4,-0.9 -0.2,-0.2 -0.7,-0.3 -1.2,-0.3 l -1,0 0,2.4 z" /></g><g
       id="g549"><path
         id="path551"
         d="m 93.5,140.2 c 0,0.6 -0.2,1 -0.6,1.3 -0.4,0.3 -1,0.5 -1.7,0.5 -0.8,0 -1.3,-0.1 -1.8,-0.3 l 0,-0.7 c 0.3,0.1 0.6,0.2 0.9,0.3 0.3,0.1 0.6,0.1 0.9,0.1 0.5,0 0.9,-0.1 1.1,-0.3 0.3,-0.2 0.4,-0.5 0.4,-0.8 0,-0.2 0,-0.4 -0.1,-0.5 -0.1,-0.1 -0.2,-0.3 -0.4,-0.4 -0.2,-0.1 -0.5,-0.3 -1,-0.4 -0.6,-0.2 -1,-0.5 -1.3,-0.8 -0.3,-0.3 -0.4,-0.7 -0.4,-1.1 0,-0.5 0.2,-0.9 0.6,-1.2 0.4,-0.3 0.9,-0.4 1.5,-0.4 0.6,0 1.2,0.1 1.8,0.4 l -0.2,0.7 c -0.5,-0.2 -1,-0.3 -1.5,-0.3 -0.4,0 -0.7,0.1 -0.9,0.3 -0.2,0.2 -0.3,0.4 -0.3,0.7 0,0.2 0,0.4 0.1,0.5 0.1,0.1 0.2,0.3 0.4,0.4 0.2,0.1 0.5,0.2 0.9,0.4 0.7,0.2 1.1,0.5 1.4,0.8 0.1,0 0.2,0.3 0.2,0.8 z" /><path
         id="path553"
         d="m 98.4,141.9 -3.6,0 0,-6.4 3.6,0 0,0.7 -2.8,0 0,2.1 2.7,0 0,0.7 -2.7,0 0,2.4 2.8,0 0,0.5 z" /><path
         id="path555"
         d="m 101.8,141.9 -0.7,0 0,-5.8 -2,0 0,-0.7 4.8,0 0,0.7 -2,0 0,5.8 z" /></g><g
       id="g557"><path
         id="path559"
         d="m 141.2,197.1 -2.2,-5.7 0,0 c 0,0.5 0.1,1 0.1,1.6 l 0,4.1 -0.7,0 0,-6.4 1.1,0 2,5.3 0,0 2.1,-5.3 1.1,0 0,6.4 -0.7,0 0,-4.1 c 0,-0.5 0,-1 0.1,-1.5 l 0,0 -2.2,5.7 -0.7,0 z" /><path
         id="path561"
         d="m 152.1,193.9 c 0,1 -0.3,1.8 -0.8,2.4 -0.5,0.6 -1.2,0.9 -2.2,0.9 -0.9,0 -1.7,-0.3 -2.2,-0.9 -0.5,-0.6 -0.8,-1.4 -0.8,-2.4 0,-1 0.3,-1.9 0.8,-2.4 0.5,-0.6 1.2,-0.9 2.2,-0.9 0.9,0 1.6,0.3 2.2,0.9 0.6,0.6 0.8,1.4 0.8,2.4 z m -5.1,0 c 0,0.9 0.2,1.5 0.6,2 0.4,0.4 0.9,0.7 1.6,0.7 0.7,0 1.2,-0.2 1.6,-0.7 0.4,-0.5 0.5,-1.1 0.5,-2 0,-0.9 -0.2,-1.5 -0.5,-2 -0.3,-0.5 -0.9,-0.7 -1.6,-0.7 -0.7,0 -1.3,0.2 -1.6,0.7 -0.4,0.5 -0.6,1.2 -0.6,2 z" /><path
         id="path563"
         d="m 155.5,197.1 -0.7,0 0,-5.8 -2,0 0,-0.7 4.8,0 0,0.7 -2,0 0,5.8 z" /><path
         id="path565"
         d="m 164.1,193.9 c 0,1 -0.3,1.8 -0.8,2.4 -0.5,0.6 -1.2,0.9 -2.2,0.9 -0.9,0 -1.7,-0.3 -2.2,-0.9 -0.5,-0.6 -0.8,-1.4 -0.8,-2.4 0,-1 0.3,-1.9 0.8,-2.4 0.5,-0.6 1.2,-0.9 2.2,-0.9 0.9,0 1.6,0.3 2.2,0.9 0.6,0.6 0.8,1.4 0.8,2.4 z m -5.1,0 c 0,0.9 0.2,1.5 0.6,2 0.4,0.4 0.9,0.7 1.6,0.7 0.7,0 1.2,-0.2 1.6,-0.7 0.4,-0.5 0.5,-1.1 0.5,-2 0,-0.9 -0.2,-1.5 -0.5,-2 -0.3,-0.5 -0.9,-0.7 -1.6,-0.7 -0.7,0 -1.3,0.2 -1.6,0.7 -0.5,0.5 -0.6,1.2 -0.6,2 z" /><path
         id="path567"
         d="m 166.3,194.5 0,2.7 -0.7,0 0,-6.4 1.8,0 c 0.8,0 1.4,0.2 1.7,0.5 0.4,0.3 0.6,0.8 0.6,1.4 0,0.8 -0.4,1.4 -1.3,1.7 l 1.7,2.9 -0.9,0 -1.6,-2.7 -1.3,0 z m 0,-0.7 1,0 c 0.5,0 0.9,-0.1 1.2,-0.3 0.2,-0.2 0.4,-0.5 0.4,-0.9 0,-0.4 -0.1,-0.7 -0.4,-0.9 -0.2,-0.2 -0.7,-0.3 -1.2,-0.3 l -1,0 0,2.4 z" /></g><g
       id="g569"><path
         id="path571"
         d="m 142.4,207.9 -0.8,-2 -2.6,0 -0.8,2 -0.8,0 2.5,-6.5 0.6,0 2.5,6.5 -0.6,0 z m -1,-2.7 -0.7,-2 c -0.1,-0.3 -0.2,-0.6 -0.3,-0.9 -0.1,0.3 -0.2,0.6 -0.3,0.9 l -0.8,2 2.1,0 z" /><path
         id="path573"
         d="m 144.1,207.9 0,-6.4 0.7,0 0,5.7 2.8,0 0,0.7 -3.5,0 z" /><path
         id="path575"
         d="m 150.7,207.9 -0.7,0 0,-5.8 -2,0 0,-0.7 4.8,0 0,0.7 -2,0 0,5.8 z" /><path
         id="path577"
         d="m 157.3,207.9 -3.6,0 0,-6.4 3.6,0 0,0.7 -2.8,0 0,2.1 2.7,0 0,0.7 -2.7,0 0,2.4 2.8,0 0,0.5 z" /><path
         id="path579"
         d="m 159.5,205.3 0,2.7 -0.7,0 0,-6.4 1.8,0 c 0.8,0 1.4,0.2 1.7,0.5 0.4,0.3 0.6,0.8 0.6,1.4 0,0.8 -0.4,1.4 -1.3,1.7 l 1.7,2.9 -0.9,0 -1.6,-2.7 -1.3,0 z m 0,-0.7 1,0 c 0.5,0 0.9,-0.1 1.2,-0.3 0.2,-0.2 0.4,-0.5 0.4,-0.9 0,-0.4 -0.1,-0.7 -0.4,-0.9 -0.2,-0.2 -0.7,-0.3 -1.2,-0.3 l -1,0 0,2.4 z" /><path
         id="path581"
         d="m 169.3,207.9 -0.9,0 -3.5,-5.4 0,0 c 0,0.6 0.1,1.2 0.1,1.7 l 0,3.7 -0.7,0 0,-6.4 0.8,0 3.5,5.4 0,0 c 0,-0.1 0,-0.3 0,-0.8 0,-0.4 0,-0.7 0,-0.9 l 0,-3.7 0.7,0 0,6.4 z" /><path
         id="path583"
         d="m 175.1,207.9 -0.8,-2 -2.6,0 -0.8,2 -0.8,0 2.5,-6.5 0.6,0 2.5,6.5 -0.6,0 z m -1,-2.7 -0.7,-2 c -0.1,-0.3 -0.2,-0.6 -0.3,-0.9 -0.1,0.3 -0.2,0.6 -0.3,0.9 l -0.8,2 2.1,0 z" /><path
         id="path585"
         d="m 178.8,207.9 -0.8,0 0,-5.8 -2,0 0,-0.7 4.8,0 0,0.7 -2,0 0,5.8 z" /><path
         id="path587"
         d="m 187.3,204.7 c 0,1 -0.3,1.8 -0.8,2.4 -0.5,0.6 -1.2,0.9 -2.2,0.9 -0.9,0 -1.7,-0.3 -2.2,-0.9 -0.5,-0.6 -0.8,-1.4 -0.8,-2.4 0,-1 0.3,-1.9 0.8,-2.4 0.5,-0.6 1.2,-0.9 2.2,-0.9 0.9,0 1.6,0.3 2.2,0.9 0.6,0.6 0.8,1.4 0.8,2.4 z m -5.1,0 c 0,0.9 0.2,1.5 0.6,2 0.4,0.4 0.9,0.7 1.6,0.7 0.7,0 1.2,-0.2 1.6,-0.7 0.4,-0.5 0.5,-1.1 0.5,-2 0,-0.9 -0.2,-1.5 -0.5,-2 -0.3,-0.5 -0.9,-0.7 -1.6,-0.7 -0.7,0 -1.3,0.2 -1.6,0.7 -0.4,0.5 -0.6,1.2 -0.6,2 z" /><path
         id="path589"
         d="m 189.5,205.3 0,2.7 -0.7,0 0,-6.4 1.8,0 c 0.8,0 1.4,0.2 1.7,0.5 0.4,0.3 0.6,0.8 0.6,1.4 0,0.8 -0.4,1.4 -1.3,1.7 l 1.7,2.9 -0.9,0 -1.6,-2.7 -1.3,0 z m 0,-0.7 1,0 c 0.5,0 0.9,-0.1 1.2,-0.3 0.2,-0.2 0.4,-0.5 0.4,-0.9 0,-0.4 -0.1,-0.7 -0.4,-0.9 -0.2,-0.2 -0.7,-0.3 -1.2,-0.3 l -1,0 0,2.4 z" /></g><g
       id="g591"><path
         id="path593"
         d="m 142,217 c 0,0.6 -0.2,1 -0.6,1.3 -0.4,0.3 -1,0.5 -1.7,0.5 -0.8,0 -1.3,-0.1 -1.8,-0.3 l 0,-0.7 c 0.3,0.1 0.6,0.2 0.9,0.3 0.3,0.1 0.6,0.1 0.9,0.1 0.5,0 0.9,-0.1 1.1,-0.3 0.3,-0.2 0.4,-0.5 0.4,-0.8 0,-0.2 0,-0.4 -0.1,-0.5 -0.1,-0.1 -0.2,-0.3 -0.4,-0.4 -0.2,-0.1 -0.5,-0.3 -1,-0.4 -0.6,-0.2 -1,-0.5 -1.3,-0.8 -0.3,-0.3 -0.4,-0.7 -0.4,-1.1 0,-0.5 0.2,-0.9 0.6,-1.2 0.4,-0.3 0.9,-0.4 1.5,-0.4 0.6,0 1.2,0.1 1.8,0.4 l -0.2,0.7 c -0.5,-0.2 -1,-0.3 -1.5,-0.3 -0.4,0 -0.7,0.1 -0.9,0.3 -0.2,0.2 -0.3,0.4 -0.3,0.7 0,0.2 0,0.4 0.1,0.5 0.1,0.1 0.2,0.3 0.4,0.4 0.2,0.1 0.5,0.2 0.9,0.4 0.7,0.2 1.1,0.5 1.4,0.8 0.1,0 0.2,0.4 0.2,0.8 z" /><path
         id="path595"
         d="m 146.9,218.7 -3.6,0 0,-6.4 3.6,0 0,0.7 -2.8,0 0,2.1 2.7,0 0,0.7 -2.7,0 0,2.4 2.8,0 0,0.5 z" /><path
         id="path597"
         d="m 150.3,218.7 -0.7,0 0,-5.7 -2,0 0,-0.7 4.8,0 0,0.7 -2,0 0,5.7 z" /></g><g
       id="g599"><path
         id="path601"
         d="m 87.7,254.2 0.8,0 -2.3,6.4 -0.7,0 -2.3,-6.4 0.8,0 1.5,4.2 c 0.2,0.5 0.3,0.9 0.4,1.4 0.1,-0.5 0.2,-0.9 0.4,-1.4 l 1.4,-4.2 z" /><path
         id="path603"
         d="m 92.9,260.6 -3.6,0 0,-6.4 3.6,0 0,0.7 -2.8,0 0,2.1 2.7,0 0,0.7 -2.7,0 0,2.4 2.8,0 0,0.5 z" /><path
         id="path605"
         d="m 98,258.9 c 0,0.6 -0.2,1 -0.6,1.3 -0.4,0.3 -1,0.5 -1.7,0.5 -0.8,0 -1.3,-0.1 -1.8,-0.3 l 0,-0.7 c 0.3,0.1 0.6,0.2 0.9,0.3 0.3,0.1 0.6,0.1 0.9,0.1 0.5,0 0.9,-0.1 1.1,-0.3 0.3,-0.2 0.4,-0.5 0.4,-0.8 0,-0.2 0,-0.4 -0.1,-0.5 -0.1,-0.1 -0.2,-0.3 -0.4,-0.4 -0.2,-0.1 -0.5,-0.3 -1,-0.4 -0.6,-0.2 -1,-0.5 -1.3,-0.8 -0.3,-0.3 -0.4,-0.7 -0.4,-1.1 0,-0.5 0.2,-0.9 0.6,-1.2 0.4,-0.3 0.9,-0.4 1.5,-0.4 0.6,0 1.2,0.1 1.8,0.4 l -0.2,0.7 c -0.5,-0.2 -1,-0.3 -1.5,-0.3 -0.4,0 -0.7,0.1 -0.9,0.3 -0.2,0.2 -0.3,0.4 -0.3,0.7 0,0.2 0,0.4 0.1,0.5 0.1,0.1 0.2,0.3 0.4,0.4 0.2,0.1 0.5,0.2 0.9,0.4 0.7,0.2 1.1,0.5 1.4,0.8 0.1,0 0.2,0.3 0.2,0.8 z" /><path
         id="path607"
         d="m 102.9,258.9 c 0,0.6 -0.2,1 -0.6,1.3 -0.4,0.3 -1,0.5 -1.7,0.5 -0.8,0 -1.3,-0.1 -1.8,-0.3 l 0,-0.7 c 0.3,0.1 0.6,0.2 0.9,0.3 0.3,0.1 0.6,0.1 0.9,0.1 0.5,0 0.9,-0.1 1.1,-0.3 0.3,-0.2 0.4,-0.5 0.4,-0.8 0,-0.2 0,-0.4 -0.1,-0.5 -0.1,-0.1 -0.2,-0.3 -0.4,-0.4 -0.2,-0.1 -0.5,-0.3 -1,-0.4 -0.6,-0.2 -1,-0.5 -1.3,-0.8 -0.3,-0.3 -0.4,-0.7 -0.4,-1.1 0,-0.5 0.2,-0.9 0.6,-1.2 0.4,-0.3 0.9,-0.4 1.5,-0.4 0.6,0 1.2,0.1 1.8,0.4 l -0.2,0.7 c -0.5,-0.2 -1,-0.3 -1.5,-0.3 -0.4,0 -0.7,0.1 -0.9,0.3 -0.2,0.2 -0.3,0.4 -0.3,0.7 0,0.2 0,0.4 0.1,0.5 0.1,0.1 0.2,0.3 0.4,0.4 0.2,0.1 0.5,0.2 0.9,0.4 0.7,0.2 1.1,0.5 1.4,0.8 0.1,0 0.2,0.3 0.2,0.8 z" /><path
         id="path609"
         d="m 107.8,260.6 -3.6,0 0,-6.4 3.6,0 0,0.7 -2.8,0 0,2.1 2.7,0 0,0.7 -2.7,0 0,2.4 2.8,0 0,0.5 z" /><path
         id="path611"
         d="m 109.3,260.6 0,-6.4 0.7,0 0,5.7 2.8,0 0,0.7 -3.5,0 z" /></g><g
       id="g613"><path
         id="path615"
         d="m 87.6,269.7 c 0,0.6 -0.2,1 -0.6,1.3 -0.4,0.3 -1,0.5 -1.7,0.5 -0.8,0 -1.3,-0.1 -1.8,-0.3 l 0,-0.7 c 0.3,0.1 0.6,0.2 0.9,0.3 0.3,0.1 0.6,0.1 0.9,0.1 0.5,0 0.9,-0.1 1.1,-0.3 0.3,-0.2 0.4,-0.5 0.4,-0.8 0,-0.2 0,-0.4 -0.1,-0.5 -0.1,-0.1 -0.2,-0.3 -0.4,-0.4 -0.2,-0.1 -0.5,-0.3 -1,-0.4 -0.6,-0.2 -1,-0.5 -1.3,-0.8 -0.3,-0.3 -0.4,-0.7 -0.4,-1.1 0,-0.5 0.2,-0.9 0.6,-1.2 0.4,-0.3 0.9,-0.4 1.5,-0.4 0.6,0 1.2,0.1 1.8,0.4 l -0.2,0.7 c -0.5,-0.2 -1,-0.3 -1.5,-0.3 -0.4,0 -0.7,0.1 -0.9,0.3 -0.2,0.2 -0.3,0.4 -0.3,0.7 0,0.2 0,0.4 0.1,0.5 0.1,0.1 0.2,0.3 0.4,0.4 0.2,0.1 0.5,0.2 0.9,0.4 0.7,0.2 1.1,0.5 1.4,0.8 0.1,0 0.2,0.3 0.2,0.8 z" /><path
         id="path617"
         d="m 93.8,265 0,4.2 c 0,0.7 -0.2,1.3 -0.7,1.7 -0.5,0.4 -1.1,0.6 -1.8,0.6 -0.7,0 -1.4,-0.2 -1.8,-0.6 -0.4,-0.4 -0.6,-1 -0.6,-1.7 l 0,-4.2 0.7,0 0,4.2 c 0,0.5 0.1,0.9 0.4,1.2 0.3,0.3 0.7,0.4 1.3,0.4 0.5,0 1,-0.1 1.3,-0.4 0.3,-0.3 0.4,-0.7 0.4,-1.2 l 0,-4.2 0.8,0 z" /><path
         id="path619"
         d="m 99.6,266.8 c 0,0.7 -0.2,1.2 -0.7,1.5 -0.4,0.4 -1.1,0.5 -1.9,0.5 l -0.8,0 0,2.5 -0.7,0 0,-6.3 1.7,0 c 1.6,0 2.4,0.6 2.4,1.8 z m -3.4,1.4 0.7,0 c 0.7,0 1.1,-0.1 1.4,-0.3 0.3,-0.2 0.4,-0.6 0.4,-1 0,-0.4 -0.1,-0.7 -0.4,-0.9 -0.3,-0.2 -0.7,-0.3 -1.3,-0.3 l -0.8,0 0,2.5 z" /><path
         id="path621"
         d="m 105,266.8 c 0,0.7 -0.2,1.2 -0.7,1.5 -0.4,0.4 -1.1,0.5 -1.9,0.5 l -0.8,0 0,2.5 -0.7,0 0,-6.3 1.7,0 c 1.6,0 2.4,0.6 2.4,1.8 z m -3.3,1.4 0.7,0 c 0.7,0 1.1,-0.1 1.4,-0.3 0.3,-0.2 0.4,-0.6 0.4,-1 0,-0.4 -0.1,-0.7 -0.4,-0.9 -0.3,-0.2 -0.7,-0.3 -1.3,-0.3 l -0.8,0 0,2.5 z" /><path
         id="path623"
         d="m 106.3,271.4 0,-6.4 0.7,0 0,5.7 2.8,0 0,0.7 -3.5,0 z" /><path
         id="path625"
         d="m 112.6,268.2 1.7,-3.2 0.8,0 -2.1,3.9 0,2.5 -0.8,0 0,-2.5 -2.1,-4 0.8,0 1.7,3.3 z" /></g><g
       id="g627"><path
         id="path629"
         d="m 87.7,177.1 0.8,0 -2.3,6.4 -0.7,0 -2.3,-6.4 0.8,0 1.5,4.2 c 0.2,0.5 0.3,0.9 0.4,1.4 0.1,-0.5 0.2,-0.9 0.4,-1.4 l 1.4,-4.2 z" /><path
         id="path631"
         d="m 92.9,183.5 -3.6,0 0,-6.4 3.6,0 0,0.7 -2.8,0 0,2.1 2.7,0 0,0.7 -2.7,0 0,2.4 2.8,0 0,0.5 z" /><path
         id="path633"
         d="m 98,181.8 c 0,0.6 -0.2,1 -0.6,1.3 -0.4,0.3 -1,0.5 -1.7,0.5 -0.8,0 -1.3,-0.1 -1.8,-0.3 l 0,-0.7 c 0.3,0.1 0.6,0.2 0.9,0.3 0.3,0.1 0.6,0.1 0.9,0.1 0.5,0 0.9,-0.1 1.1,-0.3 0.3,-0.2 0.4,-0.5 0.4,-0.8 0,-0.2 0,-0.4 -0.1,-0.5 -0.1,-0.1 -0.2,-0.3 -0.4,-0.4 -0.2,-0.1 -0.5,-0.3 -1,-0.4 -0.6,-0.2 -1,-0.5 -1.3,-0.8 -0.3,-0.3 -0.4,-0.7 -0.4,-1.1 0,-0.5 0.2,-0.9 0.6,-1.2 0.4,-0.3 0.9,-0.4 1.5,-0.4 0.6,0 1.2,0.1 1.8,0.4 l -0.2,0.7 c -0.5,-0.2 -1,-0.3 -1.5,-0.3 -0.4,0 -0.7,0.1 -0.9,0.3 -0.2,0.2 -0.3,0.4 -0.3,0.7 0,0.2 0,0.4 0.1,0.5 0.1,0.1 0.2,0.3 0.4,0.4 0.2,0.1 0.5,0.2 0.9,0.4 0.7,0.2 1.1,0.5 1.4,0.8 0.1,0 0.2,0.4 0.2,0.8 z" /><path
         id="path635"
         d="m 102.9,181.8 c 0,0.6 -0.2,1 -0.6,1.3 -0.4,0.3 -1,0.5 -1.7,0.5 -0.8,0 -1.3,-0.1 -1.8,-0.3 l 0,-0.7 c 0.3,0.1 0.6,0.2 0.9,0.3 0.3,0.1 0.6,0.1 0.9,0.1 0.5,0 0.9,-0.1 1.1,-0.3 0.3,-0.2 0.4,-0.5 0.4,-0.8 0,-0.2 0,-0.4 -0.1,-0.5 -0.1,-0.1 -0.2,-0.3 -0.4,-0.4 -0.2,-0.1 -0.5,-0.3 -1,-0.4 -0.6,-0.2 -1,-0.5 -1.3,-0.8 -0.3,-0.3 -0.4,-0.7 -0.4,-1.1 0,-0.5 0.2,-0.9 0.6,-1.2 0.4,-0.3 0.9,-0.4 1.5,-0.4 0.6,0 1.2,0.1 1.8,0.4 l -0.2,0.7 c -0.5,-0.2 -1,-0.3 -1.5,-0.3 -0.4,0 -0.7,0.1 -0.9,0.3 -0.2,0.2 -0.3,0.4 -0.3,0.7 0,0.2 0,0.4 0.1,0.5 0.1,0.1 0.2,0.3 0.4,0.4 0.2,0.1 0.5,0.2 0.9,0.4 0.7,0.2 1.1,0.5 1.4,0.8 0.1,0 0.2,0.4 0.2,0.8 z" /><path
         id="path637"
         d="m 107.8,183.5 -3.6,0 0,-6.4 3.6,0 0,0.7 -2.8,0 0,2.1 2.7,0 0,0.7 -2.7,0 0,2.4 2.8,0 0,0.5 z" /><path
         id="path639"
         d="m 109.3,183.5 0,-6.4 0.7,0 0,5.7 2.8,0 0,0.7 -3.5,0 z" /></g><g
       id="g641"><path
         id="path643"
         d="m 87.6,192.6 c 0,0.6 -0.2,1 -0.6,1.3 -0.4,0.3 -1,0.5 -1.7,0.5 -0.8,0 -1.3,-0.1 -1.8,-0.3 l 0,-0.7 c 0.3,0.1 0.6,0.2 0.9,0.3 0.3,0.1 0.6,0.1 0.9,0.1 0.5,0 0.9,-0.1 1.1,-0.3 0.3,-0.2 0.4,-0.5 0.4,-0.8 0,-0.2 0,-0.4 -0.1,-0.5 -0.1,-0.1 -0.2,-0.3 -0.4,-0.4 -0.2,-0.1 -0.5,-0.3 -1,-0.4 -0.6,-0.2 -1,-0.5 -1.3,-0.8 -0.3,-0.3 -0.4,-0.7 -0.4,-1.1 0,-0.5 0.2,-0.9 0.6,-1.2 0.4,-0.3 0.9,-0.4 1.5,-0.4 0.6,0 1.2,0.1 1.8,0.4 l -0.2,0.7 c -0.5,-0.2 -1,-0.3 -1.5,-0.3 -0.4,0 -0.7,0.1 -0.9,0.3 -0.2,0.2 -0.3,0.4 -0.3,0.7 0,0.2 0,0.4 0.1,0.5 0.1,0.1 0.2,0.3 0.4,0.4 0.2,0.1 0.5,0.2 0.9,0.4 0.7,0.2 1.1,0.5 1.4,0.8 0.1,0 0.2,0.4 0.2,0.8 z" /><path
         id="path645"
         d="m 93.8,187.9 0,4.2 c 0,0.7 -0.2,1.3 -0.7,1.7 -0.5,0.4 -1.1,0.6 -1.8,0.6 -0.7,0 -1.4,-0.2 -1.8,-0.6 -0.4,-0.4 -0.6,-1 -0.6,-1.7 l 0,-4.1 0.7,0 0,4.2 c 0,0.5 0.1,0.9 0.4,1.2 0.3,0.3 0.7,0.4 1.3,0.4 0.5,0 1,-0.1 1.3,-0.4 0.3,-0.3 0.4,-0.7 0.4,-1.2 l 0,-4.2 0.8,0 z" /><path
         id="path647"
         d="m 99.6,189.8 c 0,0.7 -0.2,1.2 -0.7,1.5 -0.4,0.4 -1.1,0.5 -1.9,0.5 l -0.8,0 0,2.5 -0.7,0 0,-6.4 1.7,0 c 1.6,0 2.4,0.6 2.4,1.9 z m -3.4,1.4 0.7,0 c 0.7,0 1.1,-0.1 1.4,-0.3 0.3,-0.2 0.4,-0.6 0.4,-1 0,-0.4 -0.1,-0.7 -0.4,-0.9 -0.3,-0.2 -0.7,-0.3 -1.3,-0.3 l -0.8,0 0,2.5 z" /><path
         id="path649"
         d="m 105,189.8 c 0,0.7 -0.2,1.2 -0.7,1.5 -0.4,0.4 -1.1,0.5 -1.9,0.5 l -0.8,0 0,2.5 -0.7,0 0,-6.4 1.7,0 c 1.6,0 2.4,0.6 2.4,1.9 z m -3.3,1.4 0.7,0 c 0.7,0 1.1,-0.1 1.4,-0.3 0.3,-0.2 0.4,-0.6 0.4,-1 0,-0.4 -0.1,-0.7 -0.4,-0.9 -0.3,-0.2 -0.7,-0.3 -1.3,-0.3 l -0.8,0 0,2.5 z" /><path
         id="path651"
         d="m 106.3,194.3 0,-6.4 0.7,0 0,5.7 2.8,0 0,0.7 -3.5,0 z" /><path
         id="path653"
         d="m 112.6,191.1 1.7,-3.2 0.8,0 -2.1,3.9 0,2.5 -0.8,0 0,-2.5 -2.1,-4 0.8,0 1.7,3.3 z" /></g><g
       id="g655"><path
         id="path657"
         d="m 200,79.4 -1,0 0,1.5 -0.7,0 0,-1.5 -3.1,0 0,-0.6 3,-4.3 0.8,0 0,4.3 1,0 0,0.6 z m -1.7,-0.6 0,-2.1 c 0,-0.4 0,-0.9 0,-1.4 l 0,0 c -0.1,0.3 -0.3,0.5 -0.4,0.7 l -2,2.9 2.4,0 z" /><path
         id="path659"
         d="m 205.1,79.4 -1,0 0,1.5 -0.7,0 0,-1.5 -3.1,0 0,-0.6 3,-4.3 0.8,0 0,4.3 1,0 0,0.6 z m -1.6,-0.6 0,-2.1 c 0,-0.4 0,-0.9 0,-1.4 l 0,0 c -0.1,0.3 -0.3,0.5 -0.4,0.7 l -2,2.9 2.4,0 z" /><path
         id="path661"
         d="m 210,77.7 c 0,1.1 -0.2,1.9 -0.5,2.5 -0.4,0.5 -0.9,0.8 -1.6,0.8 -0.7,0 -1.2,-0.3 -1.6,-0.8 -0.4,-0.6 -0.5,-1.4 -0.5,-2.5 0,-1.1 0.2,-1.9 0.5,-2.5 0.3,-0.6 0.9,-0.8 1.6,-0.8 0.7,0 1.2,0.3 1.6,0.8 0.3,0.6 0.5,1.4 0.5,2.5 z m -3.5,0 c 0,0.9 0.1,1.6 0.3,2 0.2,0.4 0.6,0.6 1.1,0.6 0.5,0 0.8,-0.2 1.1,-0.6 0.3,-0.4 0.3,-1.1 0.3,-2 0,-0.9 -0.1,-1.6 -0.3,-2 -0.2,-0.4 -0.6,-0.6 -1.1,-0.6 -0.5,0 -0.8,0.2 -1.1,0.6 -0.3,0.4 -0.3,1 -0.3,2 z" /><path
         id="path663"
         d="m 215,74.5 0.8,0 -2.3,6.4 -0.7,0 -2.3,-6.4 0.8,0 1.5,4.2 c 0.2,0.5 0.3,0.9 0.4,1.4 0.1,-0.5 0.2,-0.9 0.4,-1.4 l 1.4,-4.2 z" /><path
         id="path665"
         d="m 223,80.9 -0.8,-2 -2.6,0 -0.8,2 -0.8,0 2.5,-6.5 0.6,0 2.5,6.5 -0.6,0 z m -1,-2.7 -0.7,-2 c -0.1,-0.3 -0.2,-0.6 -0.3,-0.9 -0.1,0.3 -0.2,0.6 -0.3,0.9 l -0.8,2 2.1,0 z" /><path
         id="path667"
         d="m 227.5,75 c -0.7,0 -1.3,0.2 -1.7,0.7 -0.4,0.5 -0.6,1.1 -0.6,1.9 0,0.8 0.2,1.5 0.6,1.9 0.4,0.5 1,0.7 1.7,0.7 0.4,0 1,-0.1 1.5,-0.2 l 0,0.7 c -0.4,0.2 -1,0.3 -1.6,0.3 -0.9,0 -1.7,-0.3 -2.2,-0.9 -0.5,-0.6 -0.8,-1.4 -0.8,-2.4 0,-0.7 0.1,-1.2 0.4,-1.7 0.2,-0.5 0.6,-0.9 1.1,-1.2 0.5,-0.3 1,-0.4 1.6,-0.4 0.7,0 1.3,0.1 1.8,0.4 L 229,75.4 C 228.4,75.2 227.9,75 227.5,75 Z" /></g><g
       id="g669"><path
         id="path671"
         d="m 195.5,88.9 c 0,-1.3 0.2,-2.2 0.7,-2.8 0.5,-0.6 1.2,-0.9 2.2,-0.9 0.3,0 0.6,0 0.8,0.1 l 0,0.6 c -0.2,-0.1 -0.5,-0.1 -0.8,-0.1 -0.7,0 -1.2,0.2 -1.6,0.6 -0.4,0.4 -0.6,1.1 -0.6,2 l 0.1,0 c 0.3,-0.5 0.8,-0.8 1.5,-0.8 0.6,0 1,0.2 1.4,0.5 0.3,0.3 0.5,0.8 0.5,1.4 0,0.7 -0.2,1.2 -0.5,1.6 -0.4,0.4 -0.9,0.6 -1.5,0.6 -0.7,0 -1.2,-0.2 -1.6,-0.7 -0.4,-0.5 -0.6,-1.2 -0.6,-2.1 z m 2.2,2.3 c 0.4,0 0.7,-0.1 1,-0.4 0.3,-0.3 0.3,-0.6 0.3,-1.1 0,-0.4 -0.1,-0.8 -0.3,-1 -0.2,-0.2 -0.5,-0.4 -1,-0.4 -0.3,0 -0.5,0.1 -0.7,0.2 -0.2,0.1 -0.4,0.3 -0.5,0.4 -0.1,0.2 -0.2,0.4 -0.2,0.6 0,0.3 0.1,0.6 0.2,0.8 0.1,0.2 0.3,0.5 0.5,0.6 0.1,0.2 0.4,0.3 0.7,0.3 z" /><path
         id="path673"
         d="m 204.8,88.5 c 0,1.1 -0.2,1.9 -0.5,2.5 -0.4,0.5 -0.9,0.8 -1.6,0.8 -0.7,0 -1.2,-0.3 -1.6,-0.8 -0.4,-0.6 -0.5,-1.4 -0.5,-2.5 0,-1.1 0.2,-1.9 0.5,-2.5 0.3,-0.6 0.9,-0.8 1.6,-0.8 0.7,0 1.2,0.3 1.6,0.8 0.4,0.6 0.5,1.4 0.5,2.5 z m -3.5,0 c 0,0.9 0.1,1.6 0.3,2 0.2,0.4 0.6,0.6 1.1,0.6 0.5,0 0.8,-0.2 1.1,-0.6 0.3,-0.4 0.3,-1.1 0.3,-2 0,-0.9 -0.1,-1.6 -0.3,-2 -0.2,-0.4 -0.6,-0.6 -1.1,-0.6 -0.5,0 -0.8,0.2 -1.1,0.6 -0.3,0.4 -0.3,1 -0.3,2 z" /><path
         id="path675"
         d="m 208.5,85.3 -2.4,6.4 -0.7,0 2.4,-6.4 0.7,0 z" /><path
         id="path677"
         d="m 211,87.8 c 0.7,0 1.2,0.2 1.6,0.5 0.4,0.3 0.6,0.8 0.6,1.4 0,0.7 -0.2,1.2 -0.6,1.6 -0.4,0.4 -1,0.6 -1.8,0.6 -0.7,0 -1.3,-0.1 -1.7,-0.3 l 0,-0.7 c 0.2,0.1 0.5,0.2 0.8,0.3 0.3,0.1 0.6,0.1 0.9,0.1 0.5,0 0.9,-0.1 1.2,-0.4 0.3,-0.2 0.4,-0.6 0.4,-1.1 0,-0.9 -0.5,-1.3 -1.6,-1.3 -0.3,0 -0.7,0 -1.1,0.1 l -0.4,-0.2 0.2,-3 3.2,0 0,0.7 -2.6,0 -0.2,1.9 c 0.5,-0.2 0.8,-0.2 1.1,-0.2 z" /><path
         id="path679"
         d="m 218.4,88.5 c 0,1.1 -0.2,1.9 -0.5,2.5 -0.4,0.5 -0.9,0.8 -1.6,0.8 -0.7,0 -1.2,-0.3 -1.6,-0.8 -0.4,-0.6 -0.5,-1.4 -0.5,-2.5 0,-1.1 0.2,-1.9 0.5,-2.5 0.3,-0.6 0.9,-0.8 1.6,-0.8 0.7,0 1.2,0.3 1.6,0.8 0.4,0.6 0.5,1.4 0.5,2.5 z m -3.5,0 c 0,0.9 0.1,1.6 0.3,2 0.2,0.4 0.6,0.6 1.1,0.6 0.5,0 0.8,-0.2 1.1,-0.6 0.3,-0.4 0.3,-1.1 0.3,-2 0,-0.9 -0.1,-1.6 -0.3,-2 -0.2,-0.4 -0.6,-0.6 -1.1,-0.6 -0.5,0 -0.8,0.2 -1.1,0.6 -0.3,0.4 -0.3,1 -0.3,2 z" /><path
         id="path681"
         d="m 224.6,91.7 -0.7,0 0,-3 -3.4,0 0,3 -0.7,0 0,-6.4 0.7,0 0,2.7 3.4,0 0,-2.7 0.7,0 0,6.4 z" /><path
         id="path683"
         d="m 229.4,91.7 -3.5,0 0,-0.5 2.6,-3.8 -2.5,0 0,-0.6 3.3,0 0,0.6 -2.6,3.7 2.7,0 0,0.6 z" /></g><g
       id="g685"><path
         id="path687"
         d="m 199.4,97.6 c 0,0.4 -0.1,0.7 -0.3,1 -0.2,0.3 -0.6,0.4 -1,0.5 l 0,0 c 0.5,0.1 0.9,0.2 1.1,0.5 0.2,0.3 0.4,0.6 0.4,1 0,0.6 -0.2,1.1 -0.6,1.4 -0.4,0.3 -1,0.5 -1.8,0.5 -0.3,0 -0.7,0 -0.9,-0.1 -0.3,-0.1 -0.6,-0.1 -0.8,-0.3 l 0,-0.7 c 0.3,0.1 0.6,0.2 0.9,0.3 0.3,0.1 0.6,0.1 0.9,0.1 1.1,0 1.7,-0.4 1.7,-1.3 0,-0.8 -0.6,-1.2 -1.8,-1.2 l -0.6,0 0,-0.6 0.6,0 c 0.5,0 0.9,-0.1 1.2,-0.3 0.3,-0.2 0.4,-0.5 0.4,-0.9 0,-0.3 -0.1,-0.6 -0.3,-0.7 -0.2,-0.2 -0.5,-0.3 -0.9,-0.3 -0.3,0 -0.5,0 -0.8,0.1 -0.3,0.1 -0.5,0.2 -0.9,0.4 l -0.4,-0.5 c 0.3,-0.2 0.6,-0.4 0.9,-0.5 0.3,-0.1 0.7,-0.2 1.1,-0.2 0.6,0 1.1,0.1 1.5,0.4 0.2,0.5 0.4,0.9 0.4,1.4 z" /><path
         id="path689"
         d="m 204.8,99.3 c 0,1.1 -0.2,1.9 -0.5,2.5 -0.4,0.5 -0.9,0.8 -1.6,0.8 -0.7,0 -1.2,-0.3 -1.6,-0.8 -0.4,-0.6 -0.5,-1.4 -0.5,-2.5 0,-1.1 0.2,-1.9 0.5,-2.5 0.3,-0.6 0.9,-0.8 1.6,-0.8 0.7,0 1.2,0.3 1.6,0.8 0.4,0.6 0.5,1.4 0.5,2.5 z m -3.5,0 c 0,0.9 0.1,1.6 0.3,2 0.2,0.4 0.6,0.6 1.1,0.6 0.5,0 0.8,-0.2 1.1,-0.6 0.3,-0.4 0.3,-1.1 0.3,-2 0,-0.9 -0.1,-1.6 -0.3,-2 -0.2,-0.4 -0.6,-0.6 -1.1,-0.6 -0.5,0 -0.8,0.2 -1.1,0.6 -0.3,0.4 -0.3,1 -0.3,2 z" /><path
         id="path691"
         d="m 210,99.3 c 0,1.1 -0.2,1.9 -0.5,2.5 -0.4,0.5 -0.9,0.8 -1.6,0.8 -0.7,0 -1.2,-0.3 -1.6,-0.8 -0.4,-0.6 -0.5,-1.4 -0.5,-2.5 0,-1.1 0.2,-1.9 0.5,-2.5 0.3,-0.6 0.9,-0.8 1.6,-0.8 0.7,0 1.2,0.3 1.6,0.8 0.3,0.6 0.5,1.4 0.5,2.5 z m -3.5,0 c 0,0.9 0.1,1.6 0.3,2 0.2,0.4 0.6,0.6 1.1,0.6 0.5,0 0.8,-0.2 1.1,-0.6 0.3,-0.4 0.3,-1.1 0.3,-2 0,-0.9 -0.1,-1.6 -0.3,-2 -0.2,-0.4 -0.6,-0.6 -1.1,-0.6 -0.5,0 -0.8,0.2 -1.1,0.6 -0.3,0.4 -0.3,1 -0.3,2 z" /><path
         id="path693"
         d="m 216,102.5 -0.9,0 -2.3,-3.1 -0.7,0.6 0,2.5 -0.7,0 0,-6.4 0.7,0 0,3.2 2.9,-3.2 0.9,0 -2.6,2.8 2.7,3.6 z" /><path
         id="path695"
         d="m 220.5,96.1 0.8,0 -2.3,6.4 -0.7,0 -2.3,-6.4 0.8,0 1.5,4.2 c 0.2,0.5 0.3,0.9 0.4,1.4 0.1,-0.5 0.2,-0.9 0.4,-1.4 l 1.4,-4.2 z" /><path
         id="path697"
         d="m 225,102.5 -0.1,-0.7 0,0 c -0.2,0.3 -0.5,0.5 -0.7,0.6 -0.2,0.1 -0.5,0.2 -0.9,0.2 -0.5,0 -0.9,-0.1 -1.1,-0.4 -0.2,-0.3 -0.4,-0.6 -0.4,-1.1 0,-1 0.8,-1.5 2.3,-1.5 l 0.8,0 0,-0.3 c 0,-0.4 -0.1,-0.7 -0.2,-0.8 -0.2,-0.2 -0.4,-0.3 -0.8,-0.3 -0.4,0 -0.9,0.1 -1.4,0.4 L 222.3,98 c 0.2,-0.1 0.5,-0.2 0.8,-0.3 0.3,-0.1 0.6,-0.1 0.9,-0.1 0.6,0 1,0.1 1.3,0.4 0.3,0.3 0.4,0.7 0.4,1.2 l 0,3.3 -0.7,0 z m -1.6,-0.5 c 0.5,0 0.8,-0.1 1.1,-0.4 0.3,-0.2 0.4,-0.6 0.4,-1 l 0,-0.4 -0.7,0 c -0.6,0 -1,0.1 -1.3,0.3 -0.3,0.2 -0.4,0.4 -0.4,0.7 0,0.3 0.1,0.5 0.2,0.6 0.1,0.1 0.4,0.2 0.7,0.2 z" /></g><g
       id="g699"><path
         id="path701"
         d="m 460.9,77.3 -0.7,0 0,-5.8 -2,0 0,-0.7 4.8,0 0,0.7 -2,0 0,5.8 z" /><path
         id="path703"
         d="m 469.4,74.1 c 0,1 -0.3,1.8 -0.8,2.4 -0.5,0.6 -1.2,0.9 -2.2,0.9 -0.9,0 -1.7,-0.3 -2.2,-0.9 -0.5,-0.6 -0.8,-1.4 -0.8,-2.4 0,-1 0.3,-1.9 0.8,-2.4 0.5,-0.6 1.2,-0.9 2.2,-0.9 0.9,0 1.6,0.3 2.2,0.9 0.6,0.6 0.8,1.4 0.8,2.4 z m -5.1,0 c 0,0.9 0.2,1.5 0.6,2 0.4,0.4 0.9,0.7 1.6,0.7 0.7,0 1.2,-0.2 1.6,-0.7 0.4,-0.5 0.5,-1.1 0.5,-2 0,-0.9 -0.2,-1.5 -0.5,-2 -0.3,-0.5 -0.9,-0.7 -1.6,-0.7 -0.7,0 -1.3,0.2 -1.6,0.7 -0.4,0.5 -0.6,1.2 -0.6,2 z" /><path
         id="path705"
         d="m 473.9,74.7 0,2.7 -0.7,0 0,-6.4 1.8,0 c 0.8,0 1.4,0.2 1.7,0.5 0.4,0.3 0.6,0.8 0.6,1.4 0,0.8 -0.4,1.4 -1.3,1.7 l 1.7,2.9 -0.9,0 -1.6,-2.7 -1.3,0 z m 0,-0.7 1,0 c 0.5,0 0.9,-0.1 1.2,-0.3 0.2,-0.2 0.4,-0.5 0.4,-0.9 0,-0.4 -0.1,-0.7 -0.4,-0.9 -0.2,-0.2 -0.7,-0.3 -1.2,-0.3 l -1,0 0,2.4 z" /><path
         id="path707"
         d="m 482.3,77.3 -3.6,0 0,-6.4 3.6,0 0,0.7 -2.8,0 0,2.1 2.7,0 0,0.7 -2.7,0 0,2.4 2.8,0 0,0.5 z" /><path
         id="path709"
         d="m 486.6,77.3 -2.2,-5.7 0,0 c 0,0.5 0.1,1 0.1,1.6 l 0,4.1 -0.7,0 0,-6.4 1.1,0 2,5.3 0,0 2.1,-5.3 1.1,0 0,6.4 -0.7,0 0,-4.1 c 0,-0.5 0,-1 0.1,-1.5 l 0,0 -2.2,5.7 -0.7,0 z" /><path
         id="path711"
         d="m 497.5,74.1 c 0,1 -0.3,1.8 -0.8,2.4 -0.5,0.6 -1.2,0.9 -2.2,0.9 -0.9,0 -1.7,-0.3 -2.2,-0.9 -0.5,-0.6 -0.8,-1.4 -0.8,-2.4 0,-1 0.3,-1.9 0.8,-2.4 0.5,-0.6 1.2,-0.9 2.2,-0.9 0.9,0 1.6,0.3 2.2,0.9 0.6,0.6 0.8,1.4 0.8,2.4 z m -5.1,0 c 0,0.9 0.2,1.5 0.6,2 0.4,0.4 0.9,0.7 1.6,0.7 0.7,0 1.2,-0.2 1.6,-0.7 0.4,-0.5 0.5,-1.1 0.5,-2 0,-0.9 -0.2,-1.5 -0.5,-2 -0.3,-0.5 -0.9,-0.7 -1.6,-0.7 -0.7,0 -1.3,0.2 -1.6,0.7 -0.5,0.5 -0.6,1.2 -0.6,2 z" /><path
         id="path713"
         d="m 500.9,77.3 -0.7,0 0,-5.8 -2,0 0,-0.7 4.8,0 0,0.7 -2,0 0,5.8 z" /><path
         id="path715"
         d="m 507.5,77.3 -3.6,0 0,-6.4 3.6,0 0,0.7 -2.8,0 0,2.1 2.7,0 0,0.7 -2.7,0 0,2.4 2.8,0 0,0.5 z" /><path
         id="path717"
         d="m 508.9,77.3 0,-6.4 0.7,0 0,5.7 2.8,0 0,0.7 -3.5,0 z" /><path
         id="path719"
         d="m 515.2,74.1 1.7,-3.2 0.8,0 -2.1,3.9 0,2.5 -0.8,0 0,-2.5 -2.1,-4 0.8,0 1.7,3.3 z" /><path
         id="path721"
         d="m 520.9,77.3 0,-6.4 0.7,0 0,5.7 2.8,0 0,0.7 -3.5,0 z" /><path
         id="path723"
         d="m 531.2,74.1 c 0,1 -0.3,1.8 -0.8,2.4 -0.5,0.6 -1.2,0.9 -2.2,0.9 -0.9,0 -1.7,-0.3 -2.2,-0.9 -0.5,-0.6 -0.8,-1.4 -0.8,-2.4 0,-1 0.3,-1.9 0.8,-2.4 0.5,-0.6 1.2,-0.9 2.2,-0.9 0.9,0 1.6,0.3 2.2,0.9 0.6,0.6 0.8,1.4 0.8,2.4 z m -5.1,0 c 0,0.9 0.2,1.5 0.6,2 0.4,0.4 0.9,0.7 1.6,0.7 0.7,0 1.2,-0.2 1.6,-0.7 0.4,-0.5 0.5,-1.1 0.5,-2 0,-0.9 -0.2,-1.5 -0.5,-2 -0.3,-0.5 -0.9,-0.7 -1.6,-0.7 -0.7,0 -1.3,0.2 -1.6,0.7 -0.4,0.5 -0.6,1.2 -0.6,2 z" /><path
         id="path725"
         d="m 535.4,71.5 c -0.7,0 -1.3,0.2 -1.7,0.7 -0.4,0.5 -0.6,1.1 -0.6,1.9 0,0.8 0.2,1.5 0.6,1.9 0.4,0.5 1,0.7 1.7,0.7 0.4,0 1,-0.1 1.5,-0.2 l 0,0.7 c -0.4,0.2 -1,0.3 -1.6,0.3 -0.9,0 -1.7,-0.3 -2.2,-0.9 -0.5,-0.6 -0.8,-1.4 -0.8,-2.4 0,-0.7 0.1,-1.2 0.4,-1.7 0.2,-0.5 0.6,-0.9 1.1,-1.2 0.5,-0.3 1,-0.4 1.6,-0.4 0.7,0 1.3,0.1 1.8,0.4 l -0.3,0.6 c -0.6,-0.3 -1,-0.4 -1.5,-0.4 z" /><path
         id="path727"
         d="m 542.3,77.3 -0.8,-2 -2.5,0 -0.8,2 -0.8,0 2.5,-6.5 0.6,0 2.5,6.5 -0.7,0 z m -1,-2.7 -0.7,-2 c -0.1,-0.3 -0.2,-0.6 -0.3,-0.9 -0.1,0.3 -0.2,0.6 -0.3,0.9 l -0.8,2 2.1,0 z" /><path
         id="path729"
         d="m 546,77.3 -0.7,0 0,-5.8 -2,0 0,-0.7 4.8,0 0,0.7 -2,0 0,5.8 z" /><path
         id="path731"
         d="m 552.6,77.3 -3.6,0 0,-6.4 3.6,0 0,0.7 -2.8,0 0,2.1 2.7,0 0,0.7 -2.7,0 0,2.4 2.8,0 0,0.5 z" /><path
         id="path733"
         d="m 559.1,74.1 c 0,1.1 -0.3,1.9 -0.9,2.4 -0.6,0.6 -1.4,0.8 -2.5,0.8 l -1.7,0 0,-6.4 2,0 c 1,0 1.8,0.3 2.3,0.8 0.5,0.5 0.8,1.4 0.8,2.4 z m -0.8,0 c 0,-0.8 -0.2,-1.5 -0.6,-1.9 -0.4,-0.4 -1,-0.6 -1.9,-0.6 l -1.1,0 0,5.1 0.9,0 c 0.9,0 1.6,-0.2 2,-0.7 0.4,-0.5 0.7,-1 0.7,-1.9 z" /></g><g
       id="g735"><path
         id="path737"
         d="m 461.6,82.3 c -0.7,0 -1.3,0.2 -1.7,0.7 -0.4,0.5 -0.6,1.1 -0.6,1.9 0,0.8 0.2,1.5 0.6,1.9 0.4,0.5 1,0.7 1.7,0.7 0.4,0 1,-0.1 1.5,-0.2 l 0,0.7 c -0.4,0.2 -1,0.3 -1.6,0.3 -0.9,0 -1.7,-0.3 -2.2,-0.9 -0.5,-0.6 -0.8,-1.4 -0.8,-2.4 0,-0.7 0.1,-1.2 0.4,-1.7 0.2,-0.5 0.6,-0.9 1.1,-1.2 0.5,-0.3 1,-0.4 1.6,-0.4 0.7,0 1.3,0.1 1.8,0.4 l -0.3,0.6 c -0.5,-0.3 -1,-0.4 -1.5,-0.4 z" /><path
         id="path739"
         d="m 470.1,84.9 c 0,1 -0.3,1.8 -0.8,2.4 -0.5,0.6 -1.2,0.9 -2.2,0.9 -0.9,0 -1.7,-0.3 -2.2,-0.9 -0.5,-0.6 -0.8,-1.4 -0.8,-2.4 0,-1 0.3,-1.9 0.8,-2.4 0.5,-0.6 1.2,-0.9 2.2,-0.9 0.9,0 1.6,0.3 2.2,0.9 0.6,0.6 0.8,1.4 0.8,2.4 z m -5.1,0 c 0,0.9 0.2,1.5 0.6,2 0.4,0.4 0.9,0.7 1.6,0.7 0.7,0 1.2,-0.2 1.6,-0.7 0.4,-0.5 0.5,-1.1 0.5,-2 0,-0.9 -0.2,-1.5 -0.5,-2 -0.3,-0.5 -0.9,-0.7 -1.6,-0.7 -0.7,0 -1.3,0.2 -1.6,0.7 -0.4,0.5 -0.6,1.2 -0.6,2 z" /><path
         id="path741"
         d="m 476.6,88.1 -0.9,0 -3.5,-5.4 0,0 c 0,0.6 0.1,1.2 0.1,1.7 l 0,3.7 -0.7,0 0,-6.4 0.8,0 3.5,5.4 0,0 c 0,-0.1 0,-0.3 0,-0.8 0,-0.4 0,-0.7 0,-0.9 l 0,-3.7 0.7,0 0,6.4 z" /><path
         id="path743"
         d="m 480.3,88.1 -0.7,0 0,-5.8 -2,0 0,-0.7 4.8,0 0,0.7 -2,0 0,5.8 z" /><path
         id="path745"
         d="m 484.1,85.5 0,2.7 -0.7,0 0,-6.4 1.8,0 c 0.8,0 1.4,0.2 1.7,0.5 0.4,0.3 0.6,0.8 0.6,1.4 0,0.8 -0.4,1.4 -1.3,1.7 l 1.7,2.9 -0.9,0 -1.6,-2.7 -1.3,0 z m 0,-0.7 1,0 c 0.5,0 0.9,-0.1 1.2,-0.3 0.2,-0.2 0.4,-0.5 0.4,-0.9 0,-0.4 -0.1,-0.7 -0.4,-0.9 -0.2,-0.2 -0.7,-0.3 -1.2,-0.3 l -1,0 0,2.4 z" /><path
         id="path747"
         d="m 494.5,84.9 c 0,1 -0.3,1.8 -0.8,2.4 -0.5,0.6 -1.2,0.9 -2.2,0.9 -0.9,0 -1.7,-0.3 -2.2,-0.9 -0.5,-0.6 -0.8,-1.4 -0.8,-2.4 0,-1 0.3,-1.9 0.8,-2.4 0.5,-0.6 1.2,-0.9 2.2,-0.9 0.9,0 1.6,0.3 2.2,0.9 0.6,0.6 0.8,1.4 0.8,2.4 z m -5.2,0 c 0,0.9 0.2,1.5 0.6,2 0.4,0.4 0.9,0.7 1.6,0.7 0.7,0 1.2,-0.2 1.6,-0.7 0.4,-0.5 0.5,-1.1 0.5,-2 0,-0.9 -0.2,-1.5 -0.5,-2 -0.3,-0.5 -0.9,-0.7 -1.6,-0.7 -0.7,0 -1.3,0.2 -1.6,0.7 -0.4,0.5 -0.6,1.2 -0.6,2 z" /><path
         id="path749"
         d="m 495.9,88.1 0,-6.4 0.7,0 0,5.7 2.8,0 0,0.7 -3.5,0 z" /><path
         id="path751"
         d="m 505.7,82.3 c -0.7,0 -1.3,0.2 -1.7,0.7 -0.4,0.5 -0.6,1.1 -0.6,1.9 0,0.8 0.2,1.5 0.6,1.9 0.4,0.5 1,0.7 1.7,0.7 0.4,0 1,-0.1 1.5,-0.2 l 0,0.7 c -0.4,0.2 -1,0.3 -1.6,0.3 -0.9,0 -1.7,-0.3 -2.2,-0.9 -0.5,-0.6 -0.8,-1.4 -0.8,-2.4 0,-0.7 0.1,-1.2 0.4,-1.7 0.2,-0.5 0.6,-0.9 1.1,-1.2 0.5,-0.3 1,-0.4 1.6,-0.4 0.7,0 1.3,0.1 1.8,0.4 l -0.3,0.6 c -0.6,-0.3 -1.1,-0.4 -1.5,-0.4 z" /><path
         id="path753"
         d="m 514.2,84.9 c 0,1 -0.3,1.8 -0.8,2.4 -0.5,0.6 -1.2,0.9 -2.2,0.9 -0.9,0 -1.7,-0.3 -2.2,-0.9 -0.5,-0.6 -0.8,-1.4 -0.8,-2.4 0,-1 0.3,-1.9 0.8,-2.4 0.5,-0.6 1.2,-0.9 2.2,-0.9 0.9,0 1.6,0.3 2.2,0.9 0.6,0.6 0.8,1.4 0.8,2.4 z m -5.2,0 c 0,0.9 0.2,1.5 0.6,2 0.4,0.4 0.9,0.7 1.6,0.7 0.7,0 1.2,-0.2 1.6,-0.7 0.4,-0.5 0.5,-1.1 0.5,-2 0,-0.9 -0.2,-1.5 -0.5,-2 -0.3,-0.5 -0.9,-0.7 -1.6,-0.7 -0.7,0 -1.3,0.2 -1.6,0.7 -0.4,0.5 -0.6,1.2 -0.6,2 z" /><path
         id="path755"
         d="m 520.6,88.1 -0.9,0 -3.5,-5.4 0,0 c 0,0.6 0.1,1.2 0.1,1.7 l 0,3.7 -0.7,0 0,-6.4 0.8,0 3.5,5.4 0,0 c 0,-0.1 0,-0.3 0,-0.8 0,-0.4 0,-0.7 0,-0.9 l 0,-3.7 0.7,0 0,6.4 z" /><path
         id="path757"
         d="m 524.4,88.1 -0.7,0 0,-5.8 -2,0 0,-0.7 4.8,0 0,0.7 -2,0 0,5.8 z" /><path
         id="path759"
         d="m 531.4,88.1 -0.8,-2 -2.6,0 -0.8,2 -0.8,0 2.5,-6.5 0.6,0 2.5,6.5 -0.6,0 z m -1,-2.7 -0.7,-2 c -0.1,-0.3 -0.2,-0.6 -0.3,-0.9 -0.1,0.3 -0.2,0.6 -0.3,0.9 l -0.8,2 2.1,0 z" /><path
         id="path761"
         d="m 533.1,88.1 0,-6.4 0.7,0 0,6.4 -0.7,0 z" /><path
         id="path763"
         d="m 540.6,88.1 -0.9,0 -3.5,-5.4 0,0 c 0,0.6 0.1,1.2 0.1,1.7 l 0,3.7 -0.7,0 0,-6.4 0.8,0 3.5,5.4 0,0 c 0,-0.1 0,-0.3 0,-0.8 0,-0.4 0,-0.7 0,-0.9 l 0,-3.7 0.7,0 0,6.4 z" /><path
         id="path765"
         d="m 545.9,88.1 -3.6,0 0,-6.4 3.6,0 0,0.7 -2.8,0 0,2.1 2.7,0 0,0.7 -2.7,0 0,2.4 2.8,0 0,0.5 z" /><path
         id="path767"
         d="m 548.1,85.5 0,2.7 -0.7,0 0,-6.4 1.8,0 c 0.8,0 1.4,0.2 1.7,0.5 0.4,0.3 0.6,0.8 0.6,1.4 0,0.8 -0.4,1.4 -1.3,1.7 l 1.7,2.9 -0.9,0 -1.6,-2.7 -1.3,0 z m 0,-0.7 1,0 c 0.5,0 0.9,-0.1 1.2,-0.3 0.2,-0.2 0.4,-0.5 0.4,-0.9 0,-0.4 -0.1,-0.7 -0.4,-0.9 -0.2,-0.2 -0.7,-0.3 -1.2,-0.3 l -1,0 0,2.4 z" /></g><g
       id="g769"><path
         id="path771"
         d="m 462.9,94.4 c 0,0.7 -0.2,1.2 -0.7,1.5 -0.4,0.4 -1.1,0.5 -1.9,0.5 l -0.8,0 0,2.5 -0.7,0 0,-6.4 1.7,0 c 1.6,0 2.4,0.6 2.4,1.9 z m -3.3,1.4 0.7,0 c 0.7,0 1.1,-0.1 1.4,-0.3 0.3,-0.2 0.4,-0.6 0.4,-1 0,-0.4 -0.1,-0.7 -0.4,-0.9 -0.3,-0.2 -0.7,-0.3 -1.3,-0.3 l -0.8,0 0,2.5 z" /><path
         id="path773"
         d="m 469.1,92.5 0,4.2 c 0,0.7 -0.2,1.3 -0.7,1.7 -0.5,0.4 -1.1,0.6 -1.8,0.6 -0.7,0 -1.4,-0.2 -1.8,-0.6 -0.4,-0.4 -0.6,-1 -0.6,-1.7 l 0,-4.1 0.7,0 0,4.2 c 0,0.5 0.1,0.9 0.4,1.2 0.3,0.3 0.7,0.4 1.3,0.4 0.5,0 1,-0.1 1.3,-0.4 0.3,-0.3 0.4,-0.7 0.4,-1.2 l 0,-4.2 0.8,0 z" /><path
         id="path775"
         d="m 471.6,96.3 0,2.7 -0.7,0 0,-6.4 1.8,0 c 0.8,0 1.4,0.2 1.7,0.5 0.4,0.3 0.6,0.8 0.6,1.4 0,0.8 -0.4,1.4 -1.3,1.7 l 1.7,2.9 -0.9,0 -1.6,-2.7 -1.3,0 z m 0,-0.7 1,0 c 0.5,0 0.9,-0.1 1.2,-0.3 0.2,-0.2 0.4,-0.5 0.4,-0.9 0,-0.4 -0.1,-0.7 -0.4,-0.9 -0.2,-0.2 -0.7,-0.3 -1.2,-0.3 l -1,0 0,2.4 z" /><path
         id="path777"
         d="m 479.2,95.6 2.2,0 0,3.1 c -0.3,0.1 -0.7,0.2 -1,0.2 -0.3,0 -0.8,0.1 -1.2,0.1 -1,0 -1.7,-0.3 -2.3,-0.9 -0.5,-0.6 -0.8,-1.4 -0.8,-2.4 0,-0.7 0.1,-1.3 0.4,-1.8 0.3,-0.5 0.7,-0.9 1.2,-1.2 0.5,-0.3 1.1,-0.4 1.8,-0.4 0.7,0 1.3,0.1 1.9,0.4 l -0.3,0.7 C 480.5,93.2 480,93 479.4,93 c -0.8,0 -1.4,0.2 -1.8,0.7 -0.4,0.5 -0.7,1.1 -0.7,1.9 0,0.9 0.2,1.5 0.6,2 0.4,0.4 1,0.7 1.9,0.7 0.4,0 0.9,-0.1 1.3,-0.2 l 0,-2 -1.4,0 0,-0.5 z" /><path
         id="path779"
         d="m 486.5,98.9 -3.5,0 0,-6.4 3.6,0 0,0.7 -2.8,0 0,2.1 2.7,0 0,0.7 -2.7,0 0,2.4 2.8,0 0,0.5 z" /><path
         id="path781"
         d="m 491.1,98.9 -0.7,0 0,-6.4 3.6,0 0,0.7 -2.8,0 0,2.4 2.7,0 0,0.7 -2.7,0 0,2.6 z" /><path
         id="path783"
         d="m 499,98.9 -0.8,-2 -2.6,0 -0.8,2 -0.8,0 2.5,-6.5 0.6,0 2.5,6.5 -0.6,0 z m -1,-2.7 -0.7,-2 c -0.1,-0.3 -0.2,-0.6 -0.3,-0.9 -0.1,0.3 -0.2,0.6 -0.3,0.9 l -0.8,2 2.1,0 z" /><path
         id="path785"
         d="m 505.7,98.9 -0.9,0 -3.5,-5.4 0,0 c 0,0.6 0.1,1.2 0.1,1.7 l 0,3.7 -0.7,0 0,-6.4 0.8,0 3.5,5.4 0,0 c 0,-0.1 0,-0.3 0,-0.8 0,-0.4 0,-0.7 0,-0.9 l 0,-3.7 0.7,0 0,6.4 z" /></g><g
       id="g787"><path
         id="path789"
         d="m 347.4,147.4 c -0.7,0 -1.3,0.2 -1.7,0.7 -0.4,0.5 -0.6,1.1 -0.6,1.9 0,0.8 0.2,1.5 0.6,1.9 0.4,0.5 1,0.7 1.7,0.7 0.4,0 1,-0.1 1.5,-0.2 l 0,0.7 c -0.4,0.2 -1,0.3 -1.6,0.3 -0.9,0 -1.7,-0.3 -2.2,-0.9 -0.5,-0.6 -0.8,-1.4 -0.8,-2.4 0,-0.7 0.1,-1.2 0.4,-1.7 0.2,-0.5 0.6,-0.9 1.1,-1.2 0.5,-0.3 1,-0.4 1.6,-0.4 0.7,0 1.3,0.1 1.8,0.4 l -0.3,0.6 c -0.5,-0.2 -1,-0.4 -1.5,-0.4 z" /><path
         id="path791"
         d="m 355.9,150.1 c 0,1 -0.3,1.8 -0.8,2.4 -0.5,0.6 -1.2,0.9 -2.2,0.9 -0.9,0 -1.7,-0.3 -2.2,-0.9 -0.5,-0.6 -0.8,-1.4 -0.8,-2.4 0,-1 0.3,-1.9 0.8,-2.4 0.5,-0.6 1.2,-0.9 2.2,-0.9 0.9,0 1.6,0.3 2.2,0.9 0.6,0.6 0.8,1.3 0.8,2.4 z m -5.1,0 c 0,0.9 0.2,1.5 0.6,2 0.4,0.4 0.9,0.7 1.6,0.7 0.7,0 1.2,-0.2 1.6,-0.7 0.4,-0.5 0.5,-1.1 0.5,-2 0,-0.9 -0.2,-1.5 -0.5,-2 -0.3,-0.5 -0.9,-0.7 -1.6,-0.7 -0.7,0 -1.3,0.2 -1.6,0.7 -0.5,0.5 -0.6,1.1 -0.6,2 z" /><path
         id="path793"
         d="m 362.3,153.3 -0.9,0 -3.5,-5.4 0,0 c 0,0.6 0.1,1.2 0.1,1.7 l 0,3.7 -0.7,0 0,-6.4 0.8,0 3.5,5.4 0,0 c 0,-0.1 0,-0.3 0,-0.8 0,-0.4 0,-0.7 0,-0.9 l 0,-3.7 0.7,0 0,6.4 z" /><path
         id="path795"
         d="m 366.1,153.3 -0.7,0 0,-5.8 -2,0 0,-0.7 4.8,0 0,0.7 -2,0 0,5.8 z" /><path
         id="path797"
         d="m 369.8,150.6 0,2.7 -0.7,0 0,-6.4 1.8,0 c 0.8,0 1.4,0.2 1.7,0.5 0.4,0.3 0.6,0.8 0.6,1.4 0,0.8 -0.4,1.4 -1.3,1.7 l 1.7,2.9 -0.9,0 -1.6,-2.7 -1.3,0 z m 0,-0.6 1,0 c 0.5,0 0.9,-0.1 1.2,-0.3 0.2,-0.2 0.4,-0.5 0.4,-0.9 0,-0.4 -0.1,-0.7 -0.4,-0.9 -0.2,-0.2 -0.7,-0.3 -1.2,-0.3 l -1,0 0,2.4 z" /><path
         id="path799"
         d="m 380.2,150.1 c 0,1 -0.3,1.8 -0.8,2.4 -0.5,0.6 -1.2,0.9 -2.2,0.9 -0.9,0 -1.7,-0.3 -2.2,-0.9 -0.5,-0.6 -0.8,-1.4 -0.8,-2.4 0,-1 0.3,-1.9 0.8,-2.4 0.5,-0.6 1.2,-0.9 2.2,-0.9 0.9,0 1.6,0.3 2.2,0.9 0.6,0.6 0.8,1.3 0.8,2.4 z m -5.1,0 c 0,0.9 0.2,1.5 0.6,2 0.4,0.4 0.9,0.7 1.6,0.7 0.7,0 1.2,-0.2 1.6,-0.7 0.4,-0.5 0.5,-1.1 0.5,-2 0,-0.9 -0.2,-1.5 -0.5,-2 -0.3,-0.5 -0.9,-0.7 -1.6,-0.7 -0.7,0 -1.3,0.2 -1.6,0.7 -0.4,0.5 -0.6,1.1 -0.6,2 z" /><path
         id="path801"
         d="m 381.7,153.3 0,-6.4 0.7,0 0,5.7 2.8,0 0,0.7 -3.5,0 z" /></g><g
       id="g803"><path
         id="path805"
         d="m 348.2,164.1 -3.6,0 0,-6.4 3.6,0 0,0.7 -2.8,0 0,2.1 2.7,0 0,0.7 -2.7,0 0,2.4 2.8,0 0,0.5 z" /><path
         id="path807"
         d="m 349.6,164.1 0,-6.4 0.7,0 0,5.7 2.8,0 0,0.7 -3.5,0 z" /><path
         id="path809"
         d="m 357.9,164.1 -3.6,0 0,-6.4 3.6,0 0,0.7 -2.8,0 0,2.1 2.7,0 0,0.7 -2.7,0 0,2.4 2.8,0 0,0.5 z" /><path
         id="path811"
         d="m 362.1,158.2 c -0.7,0 -1.3,0.2 -1.7,0.7 -0.4,0.5 -0.6,1.1 -0.6,1.9 0,0.8 0.2,1.5 0.6,1.9 0.4,0.5 1,0.7 1.7,0.7 0.4,0 1,-0.1 1.5,-0.2 l 0,0.7 c -0.4,0.2 -1,0.3 -1.6,0.3 -0.9,0 -1.7,-0.3 -2.2,-0.9 -0.5,-0.6 -0.8,-1.4 -0.8,-2.4 0,-0.7 0.1,-1.2 0.4,-1.7 0.2,-0.5 0.6,-0.9 1.1,-1.2 0.5,-0.3 1,-0.4 1.6,-0.4 0.7,0 1.3,0.1 1.8,0.4 l -0.3,0.6 c -0.6,-0.2 -1.1,-0.4 -1.5,-0.4 z" /><path
         id="path813"
         d="m 367,164.1 -0.7,0 0,-5.8 -2,0 0,-0.7 4.8,0 0,0.7 -2,0 0,5.8 z" /><path
         id="path815"
         d="m 370.7,161.4 0,2.7 -0.7,0 0,-6.4 1.8,0 c 0.8,0 1.4,0.2 1.7,0.5 0.4,0.3 0.6,0.8 0.6,1.4 0,0.8 -0.4,1.4 -1.3,1.7 l 1.7,2.9 -0.9,0 -1.6,-2.7 -1.3,0 z m 0,-0.6 1,0 c 0.5,0 0.9,-0.1 1.2,-0.3 0.2,-0.2 0.4,-0.5 0.4,-0.9 0,-0.4 -0.1,-0.7 -0.4,-0.9 -0.2,-0.2 -0.7,-0.3 -1.2,-0.3 l -1,0 0,2.4 z" /><path
         id="path817"
         d="m 375.5,164.1 0,-6.4 0.7,0 0,6.4 -0.7,0 z" /><path
         id="path819"
         d="m 380.8,158.2 c -0.7,0 -1.3,0.2 -1.7,0.7 -0.4,0.5 -0.6,1.1 -0.6,1.9 0,0.8 0.2,1.5 0.6,1.9 0.4,0.5 1,0.7 1.7,0.7 0.4,0 1,-0.1 1.5,-0.2 l 0,0.7 c -0.4,0.2 -1,0.3 -1.6,0.3 -0.9,0 -1.7,-0.3 -2.2,-0.9 -0.5,-0.6 -0.8,-1.4 -0.8,-2.4 0,-0.7 0.1,-1.2 0.4,-1.7 0.2,-0.5 0.6,-0.9 1.1,-1.2 0.5,-0.3 1,-0.4 1.6,-0.4 0.7,0 1.3,0.1 1.8,0.4 l -0.3,0.6 c -0.5,-0.2 -1,-0.4 -1.5,-0.4 z" /><path
         id="path821"
         d="m 387.3,162.4 c 0,0.6 -0.2,1 -0.6,1.3 -0.4,0.3 -1,0.5 -1.7,0.5 -0.8,0 -1.3,-0.1 -1.8,-0.3 l 0,-0.7 c 0.3,0.1 0.6,0.2 0.9,0.3 0.3,0.1 0.6,0.1 0.9,0.1 0.5,0 0.9,-0.1 1.1,-0.3 0.3,-0.2 0.4,-0.5 0.4,-0.8 0,-0.2 0,-0.4 -0.1,-0.5 -0.1,-0.1 -0.2,-0.3 -0.4,-0.4 -0.2,-0.1 -0.5,-0.3 -1,-0.4 -0.6,-0.2 -1,-0.5 -1.3,-0.8 -0.3,-0.3 -0.4,-0.7 -0.4,-1.1 0,-0.5 0.2,-0.9 0.6,-1.2 0.4,-0.3 0.9,-0.4 1.5,-0.4 0.6,0 1.2,0.1 1.8,0.4 l -0.2,0.7 c -0.5,-0.2 -1,-0.3 -1.5,-0.3 -0.4,0 -0.7,0.1 -0.9,0.3 -0.2,0.2 -0.3,0.4 -0.3,0.7 0,0.2 0,0.4 0.1,0.5 0.1,0.1 0.2,0.3 0.4,0.4 0.2,0.1 0.5,0.2 0.9,0.4 0.7,0.2 1.1,0.5 1.4,0.8 0.1,0 0.2,0.3 0.2,0.8 z" /></g><g
       id="g823"><path
         id="path825"
         d="m 463.1,152.7 c -0.5,0 -0.9,0.2 -1.2,0.6 -0.3,0.4 -0.4,0.9 -0.4,1.6 0,1.4 0.5,2.1 1.6,2.1 0.5,0 1,-0.1 1.6,-0.3 l 0,1.1 c -0.5,0.2 -1.1,0.3 -1.8,0.3 -0.9,0 -1.6,-0.3 -2.1,-0.9 -0.5,-0.6 -0.7,-1.4 -0.7,-2.4 0,-0.7 0.1,-1.3 0.4,-1.8 0.3,-0.5 0.6,-0.9 1,-1.2 0.5,-0.3 1,-0.4 1.6,-0.4 0.6,0 1.3,0.2 1.9,0.5 l -0.4,1.1 c -0.2,-0.1 -0.5,-0.2 -0.7,-0.3 -0.2,-0.1 -0.5,0 -0.8,0 z" /><path
         id="path827"
         d="m 470.6,153.6 c 0,0.7 -0.2,1.2 -0.6,1.6 -0.4,0.4 -1,0.5 -1.8,0.5 l -0.6,0 0,2.3 -1.4,0 0,-6.4 2.1,0 c 0.8,0 1.4,0.2 1.8,0.5 0.3,0.4 0.5,0.9 0.5,1.5 z m -3.1,1.1 0.4,0 c 0.4,0 0.7,-0.1 0.9,-0.2 0.2,-0.1 0.3,-0.4 0.3,-0.7 0,-0.3 -0.1,-0.6 -0.3,-0.7 -0.2,-0.2 -0.4,-0.2 -0.8,-0.2 l -0.6,0 0,1.8 z" /><path
         id="path829"
         d="m 473.1,158.1 -1.3,0 0,-6.4 3.7,0 0,1.1 -2.3,0 0,1.7 2.2,0 0,1.1 -2.2,0 0,2.5 z" /><path
         id="path831"
         d="m 479.2,154.4 2.5,0 0,3.3 c -0.4,0.1 -0.8,0.2 -1.2,0.3 -0.4,0.1 -0.7,0.1 -1.1,0.1 -1,0 -1.7,-0.3 -2.2,-0.9 -0.5,-0.6 -0.8,-1.4 -0.8,-2.5 0,-1 0.3,-1.8 0.9,-2.4 0.6,-0.6 1.4,-0.9 2.5,-0.9 0.7,0 1.3,0.1 1.9,0.4 l -0.5,1.1 c -0.5,-0.2 -1,-0.4 -1.5,-0.4 -0.6,0 -1.1,0.2 -1.4,0.6 -0.3,0.4 -0.5,0.9 -0.5,1.6 0,0.7 0.1,1.2 0.4,1.6 0.3,0.4 0.7,0.6 1.2,0.6 0.3,0 0.6,0 0.9,-0.1 l 0,-1.3 -1.2,0 0,-1.1 z" /></g><g
       id="g833"><path
         id="path835"
         d="m 461.8,168.9 -1.3,0 0,-6.4 3.7,0 0,1.1 -2.3,0 0,1.7 2.2,0 0,1.1 -2.2,0 0,2.5 z" /><path
         id="path837"
         d="m 465.4,168.9 0,-6.4 1.4,0 0,6.4 -1.4,0 z" /><path
         id="path839"
         d="m 469.7,166.4 0,2.5 -1.4,0 0,-6.4 1.9,0 c 0.9,0 1.5,0.2 1.9,0.5 0.4,0.3 0.6,0.8 0.6,1.4 0,0.4 -0.1,0.7 -0.3,1 -0.2,0.3 -0.5,0.5 -0.9,0.7 1,1.4 1.6,2.4 1.9,2.8 l -1.4,0 -1.5,-2.5 -0.8,0 z m 0,-1.1 0.4,0 c 0.4,0 0.7,-0.1 1,-0.2 0.3,-0.1 0.3,-0.4 0.3,-0.7 0,-0.3 -0.1,-0.5 -0.3,-0.7 -0.2,-0.1 -0.5,-0.2 -1,-0.2 l -0.4,0 0,1.8 z" /><path
         id="path841"
         d="m 478,168.9 -3.7,0 0,-6.4 3.7,0 0,1.1 -2.3,0 0,1.4 2.2,0 0,1.1 -2.2,0 0,1.7 2.3,0 0,1.1 z" /><path
         id="path843"
         d="m 487.6,168.9 -1.7,0 -0.5,-0.5 c -0.6,0.4 -1.2,0.6 -1.9,0.6 -0.7,0 -1.3,-0.2 -1.7,-0.5 -0.4,-0.3 -0.6,-0.8 -0.6,-1.3 0,-0.4 0.1,-0.7 0.3,-1 0.2,-0.3 0.5,-0.5 0.9,-0.8 -0.2,-0.3 -0.4,-0.5 -0.5,-0.7 -0.1,-0.2 -0.1,-0.5 -0.1,-0.8 0,-0.4 0.2,-0.8 0.5,-1.1 0.3,-0.3 0.8,-0.4 1.4,-0.4 0.5,0 1,0.1 1.3,0.4 0.3,0.3 0.5,0.6 0.5,1 0,0.3 -0.1,0.7 -0.3,1 -0.2,0.3 -0.5,0.6 -1,0.8 l 1.2,1.2 c 0.2,-0.3 0.4,-0.8 0.5,-1.3 l 1.4,0 c -0.1,0.4 -0.3,0.8 -0.4,1.2 -0.1,0.4 -0.4,0.7 -0.6,1 l 1.3,1.2 z m -5,-1.9 c 0,0.3 0.1,0.5 0.3,0.6 0.2,0.1 0.4,0.2 0.7,0.2 0.4,0 0.7,-0.1 1,-0.3 l -1.5,-1.5 c -0.2,0.1 -0.3,0.3 -0.4,0.4 -0.1,0.1 -0.1,0.4 -0.1,0.6 z m 1.6,-3.1 c 0,-0.2 -0.1,-0.3 -0.2,-0.4 -0.1,-0.1 -0.2,-0.1 -0.4,-0.1 -0.2,0 -0.4,0 -0.5,0.1 -0.1,0.1 -0.2,0.2 -0.2,0.4 0,0.3 0.1,0.5 0.4,0.9 0.3,-0.1 0.4,-0.3 0.6,-0.4 0.2,-0.2 0.3,-0.3 0.3,-0.5 z" /><path
         id="path845"
         d="m 493.2,165.2 2.5,0 0,3.3 c -0.4,0.1 -0.8,0.2 -1.2,0.3 -0.4,0.1 -0.7,0.1 -1.1,0.1 -1,0 -1.7,-0.3 -2.2,-0.9 -0.5,-0.6 -0.8,-1.4 -0.8,-2.5 0,-1 0.3,-1.8 0.9,-2.4 0.6,-0.6 1.4,-0.9 2.5,-0.9 0.7,0 1.3,0.1 1.9,0.4 l -0.5,1.1 c -0.5,-0.2 -1,-0.4 -1.5,-0.4 -0.6,0 -1.1,0.2 -1.4,0.6 -0.3,0.4 -0.5,0.9 -0.5,1.6 0,0.7 0.1,1.2 0.4,1.6 0.3,0.4 0.7,0.6 1.2,0.6 0.3,0 0.6,0 0.9,-0.1 l 0,-1.3 -1.2,0 0,-1.1 z" /><path
         id="path847"
         d="m 501.2,168.9 -0.5,-1.5 -2.3,0 -0.5,1.5 -1.5,0 2.3,-6.5 1.7,0 2.3,6.5 -1.5,0 z m -0.8,-2.7 c -0.4,-1.4 -0.7,-2.2 -0.7,-2.4 -0.1,-0.2 -0.1,-0.3 -0.1,-0.4 -0.1,0.4 -0.4,1.3 -0.8,2.8 l 1.6,0 z" /><path
         id="path849"
         d="m 507.3,167.1 c 0,0.6 -0.2,1 -0.6,1.4 -0.4,0.3 -1,0.5 -1.7,0.5 -0.7,0 -1.3,-0.1 -1.8,-0.4 l 0,-1.3 c 0.4,0.2 0.8,0.3 1.1,0.4 0.3,0.1 0.6,0.1 0.8,0.1 0.3,0 0.5,-0.1 0.7,-0.2 0.2,-0.1 0.2,-0.3 0.2,-0.5 0,-0.1 0,-0.2 -0.1,-0.3 -0.1,-0.1 -0.2,-0.2 -0.3,-0.3 -0.1,-0.1 -0.4,-0.2 -0.8,-0.4 -0.4,-0.2 -0.7,-0.4 -0.9,-0.5 -0.2,-0.1 -0.4,-0.4 -0.5,-0.6 -0.1,-0.2 -0.2,-0.5 -0.2,-0.8 0,-0.6 0.2,-1 0.6,-1.3 0.4,-0.3 0.9,-0.5 1.6,-0.5 0.3,0 0.7,0 1,0.1 0.3,0.1 0.6,0.2 1,0.3 l -0.4,1.1 c -0.3,-0.1 -0.6,-0.2 -0.9,-0.3 -0.2,-0.1 -0.4,-0.1 -0.7,-0.1 -0.3,0 -0.5,0.1 -0.6,0.2 -0.1,0.1 -0.2,0.3 -0.2,0.5 0,0.1 0,0.2 0.1,0.3 0.1,0.1 0.1,0.2 0.3,0.3 0.1,0.1 0.4,0.2 0.9,0.5 0.6,0.3 1,0.6 1.2,0.9 0,0.1 0.2,0.5 0.2,0.9 z" /><path
         id="path851"
         d="m 515.2,164.4 c 0,0.7 -0.2,1.2 -0.6,1.6 -0.4,0.4 -1,0.5 -1.8,0.5 l -0.6,0 0,2.3 -1.4,0 0,-6.4 2.1,0 c 0.8,0 1.4,0.2 1.8,0.5 0.3,0.4 0.5,0.9 0.5,1.5 z m -3.1,1.1 0.4,0 c 0.4,0 0.7,-0.1 0.9,-0.2 0.2,-0.1 0.3,-0.4 0.3,-0.7 0,-0.3 -0.1,-0.6 -0.3,-0.7 -0.2,-0.2 -0.4,-0.2 -0.8,-0.2 l -0.6,0 0,1.8 z" /><path
         id="path853"
         d="m 520.3,168.9 -0.5,-1.5 -2.3,0 -0.5,1.5 -1.5,0 2.3,-6.5 1.7,0 2.3,6.5 -1.5,0 z m -0.7,-2.7 c -0.4,-1.4 -0.7,-2.2 -0.7,-2.4 -0.1,-0.2 -0.1,-0.3 -0.1,-0.4 -0.1,0.4 -0.4,1.3 -0.8,2.8 l 1.6,0 z" /><path
         id="path855"
         d="m 528.3,168.9 -1.7,0 -2.8,-4.9 0,0 c 0.1,0.9 0.1,1.5 0.1,1.8 l 0,3 -1.2,0 0,-6.4 1.7,0 2.8,4.8 0,0 c 0,-0.8 -0.1,-1.4 -0.1,-1.8 l 0,-3 1.2,0 0,6.5 z" /><path
         id="path857"
         d="m 533.6,168.9 -3.7,0 0,-6.4 3.7,0 0,1.1 -2.3,0 0,1.4 2.2,0 0,1.1 -2.2,0 0,1.7 2.3,0 0,1.1 z" /><path
         id="path859"
         d="m 535,168.9 0,-6.4 1.4,0 0,5.3 2.6,0 0,1.1 -4,0 z" /></g><g
       id="g1547"><path
         id="path1549"
         d="m 374.9,331.1 -0.7,0 0,-5.8 -2,0 0,-0.7 4.8,0 0,0.7 -2,0 0,5.8 z" /><path
         id="path1551"
         d="m 378.6,328.5 0,2.7 -0.7,0 0,-6.4 1.8,0 c 0.8,0 1.4,0.2 1.7,0.5 0.4,0.3 0.6,0.8 0.6,1.4 0,0.8 -0.4,1.4 -1.3,1.7 l 1.7,2.9 -0.9,0 -1.6,-2.7 -1.3,0 z m 0,-0.7 1,0 c 0.5,0 0.9,-0.1 1.2,-0.3 0.2,-0.2 0.4,-0.5 0.4,-0.9 0,-0.4 -0.1,-0.7 -0.4,-0.9 -0.2,-0.2 -0.7,-0.3 -1.2,-0.3 l -1,0 0,2.4 z" /><path
         id="path1553"
         d="m 387.5,331.1 -0.8,-2 -2.6,0 -0.8,2 -0.8,0 2.5,-6.5 0.6,0 2.5,6.5 -0.6,0 z m -1.1,-2.7 -0.7,-2 c -0.1,-0.3 -0.2,-0.6 -0.3,-0.9 -0.1,0.3 -0.2,0.6 -0.3,0.9 l -0.8,2 2.1,0 z" /><path
         id="path1555"
         d="m 394.1,331.1 -0.9,0 -3.5,-5.4 0,0 c 0,0.6 0.1,1.2 0.1,1.7 l 0,3.7 -0.7,0 0,-6.4 0.8,0 3.5,5.4 0,0 c 0,-0.1 0,-0.3 0,-0.8 0,-0.4 0,-0.7 0,-0.9 l 0,-3.7 0.7,0 0,6.4 z" /><path
         id="path1557"
         d="m 399.5,329.4 c 0,0.6 -0.2,1 -0.6,1.3 -0.4,0.3 -1,0.5 -1.7,0.5 -0.8,0 -1.3,-0.1 -1.8,-0.3 l 0,-0.7 c 0.3,0.1 0.6,0.2 0.9,0.3 0.3,0.1 0.6,0.1 0.9,0.1 0.5,0 0.9,-0.1 1.1,-0.3 0.3,-0.2 0.4,-0.5 0.4,-0.8 0,-0.2 0,-0.4 -0.1,-0.5 -0.1,-0.1 -0.2,-0.3 -0.4,-0.4 -0.2,-0.1 -0.5,-0.3 -1,-0.4 -0.6,-0.2 -1,-0.5 -1.3,-0.8 -0.3,-0.3 -0.4,-0.7 -0.4,-1.1 0,-0.5 0.2,-0.9 0.6,-1.2 0.4,-0.3 0.9,-0.4 1.5,-0.4 0.6,0 1.2,0.1 1.8,0.4 l -0.2,0.7 c -0.5,-0.2 -1,-0.3 -1.5,-0.3 -0.4,0 -0.7,0.1 -0.9,0.3 -0.2,0.2 -0.3,0.4 -0.3,0.7 0,0.2 0,0.4 0.1,0.5 0.1,0.1 0.2,0.3 0.4,0.4 0.2,0.1 0.5,0.2 0.9,0.4 0.7,0.2 1.1,0.5 1.4,0.8 0.1,0 0.2,0.4 0.2,0.8 z" /><path
         id="path1559"
         d="m 401.6,331.1 -0.7,0 0,-6.4 3.6,0 0,0.7 -2.8,0 0,2.4 2.7,0 0,0.7 -2.7,0 0,2.6 z" /><path
         id="path1561"
         d="m 411.1,327.9 c 0,1 -0.3,1.8 -0.8,2.4 -0.5,0.6 -1.2,0.9 -2.2,0.9 -0.9,0 -1.7,-0.3 -2.2,-0.9 -0.5,-0.6 -0.8,-1.4 -0.8,-2.4 0,-1 0.3,-1.9 0.8,-2.4 0.5,-0.6 1.2,-0.9 2.2,-0.9 0.9,0 1.6,0.3 2.2,0.9 0.6,0.6 0.8,1.4 0.8,2.4 z m -5.2,0 c 0,0.9 0.2,1.5 0.6,2 0.4,0.4 0.9,0.7 1.6,0.7 0.7,0 1.2,-0.2 1.6,-0.7 0.4,-0.5 0.5,-1.1 0.5,-2 0,-0.9 -0.2,-1.5 -0.5,-2 -0.3,-0.5 -0.9,-0.7 -1.6,-0.7 -0.7,0 -1.3,0.2 -1.6,0.7 -0.4,0.5 -0.6,1.2 -0.6,2 z" /><path
         id="path1563"
         d="m 413.2,328.5 0,2.7 -0.7,0 0,-6.4 1.8,0 c 0.8,0 1.4,0.2 1.7,0.5 0.4,0.3 0.6,0.8 0.6,1.4 0,0.8 -0.4,1.4 -1.3,1.7 l 1.7,2.9 -0.9,0 -1.6,-2.7 -1.3,0 z m 0,-0.7 1,0 c 0.5,0 0.9,-0.1 1.2,-0.3 0.2,-0.2 0.4,-0.5 0.4,-0.9 0,-0.4 -0.1,-0.7 -0.4,-0.9 -0.2,-0.2 -0.7,-0.3 -1.2,-0.3 l -1,0 0,2.4 z" /><path
         id="path1565"
         d="m 420.9,331.1 -2.2,-5.7 0,0 c 0,0.5 0.1,1 0.1,1.6 l 0,4.1 -0.7,0 0,-6.4 1.1,0 2,5.3 0,0 2.1,-5.3 1.1,0 0,6.4 -0.7,0 0,-4.1 c 0,-0.5 0,-1 0.1,-1.5 l 0,0 -2.2,5.7 -0.7,0 z" /><path
         id="path1567"
         d="m 429.8,331.1 -3.6,0 0,-6.4 3.6,0 0,0.7 -2.8,0 0,2.1 2.7,0 0,0.7 -2.7,0 0,2.4 2.8,0 0,0.5 z" /><path
         id="path1569"
         d="m 431.9,328.5 0,2.7 -0.7,0 0,-6.4 1.8,0 c 0.8,0 1.4,0.2 1.7,0.5 0.4,0.3 0.6,0.8 0.6,1.4 0,0.8 -0.4,1.4 -1.3,1.7 l 1.7,2.9 -0.9,0 -1.6,-2.7 -1.3,0 z m 0,-0.7 1,0 c 0.5,0 0.9,-0.1 1.2,-0.3 0.2,-0.2 0.4,-0.5 0.4,-0.9 0,-0.4 -0.1,-0.7 -0.4,-0.9 -0.2,-0.2 -0.7,-0.3 -1.2,-0.3 l -1,0 0,2.4 z" /></g><g
       id="g1571"><path
         id="path1573"
         d="m 377,340.5 -1,0 0,1.5 -0.7,0 0,-1.5 -3.1,0 0,-0.6 3,-4.3 0.8,0 0,4.3 1,0 0,0.6 z m -1.7,-0.7 0,-2.1 c 0,-0.4 0,-0.9 0,-1.4 l 0,0 c -0.1,0.3 -0.3,0.5 -0.4,0.7 l -2,2.9 2.4,0 z" /><path
         id="path1575"
         d="m 382.1,340.5 -1,0 0,1.5 -0.7,0 0,-1.5 -3.1,0 0,-0.6 3,-4.3 0.8,0 0,4.3 1,0 0,0.6 z m -1.6,-0.7 0,-2.1 c 0,-0.4 0,-0.9 0,-1.4 l 0,0 c -0.1,0.3 -0.3,0.5 -0.4,0.7 l -2,2.9 2.4,0 z" /><path
         id="path1577"
         d="m 387,338.7 c 0,1.1 -0.2,1.9 -0.5,2.5 -0.4,0.5 -0.9,0.8 -1.6,0.8 -0.7,0 -1.2,-0.3 -1.6,-0.8 -0.4,-0.6 -0.5,-1.4 -0.5,-2.5 0,-1.1 0.2,-1.9 0.5,-2.5 0.3,-0.6 0.9,-0.8 1.6,-0.8 0.7,0 1.2,0.3 1.6,0.8 0.3,0.6 0.5,1.4 0.5,2.5 z m -3.5,0 c 0,0.9 0.1,1.6 0.3,2 0.2,0.4 0.6,0.6 1.1,0.6 0.5,0 0.8,-0.2 1.1,-0.6 0.3,-0.4 0.3,-1.1 0.3,-2 0,-0.9 -0.1,-1.6 -0.3,-2 -0.2,-0.4 -0.6,-0.6 -1.1,-0.6 -0.5,0 -0.8,0.2 -1.1,0.6 -0.3,0.4 -0.3,1.1 -0.3,2 z" /><path
         id="path1579"
         d="m 392,335.5 0.8,0 -2.3,6.4 -0.7,0 -2.3,-6.4 0.8,0 1.5,4.2 c 0.2,0.5 0.3,0.9 0.4,1.4 0.1,-0.5 0.2,-0.9 0.4,-1.4 l 1.4,-4.2 z" /><path
         id="path1581"
         d="m 396,335.5 -2.4,6.4 -0.7,0 2.4,-6.4 0.7,0 z" /><path
         id="path1583"
         d="m 399.2,341.9 -0.7,0 0,-4.6 c 0,-0.4 0,-0.7 0,-1.1 -0.1,0.1 -0.1,0.1 -0.2,0.2 -0.1,0.1 -0.4,0.4 -1,0.9 l -0.4,-0.5 1.7,-1.3 0.6,0 0,6.4 z" /><path
         id="path1585"
         d="m 404.4,341.9 -0.7,0 0,-4.6 c 0,-0.4 0,-0.7 0,-1.1 -0.1,0.1 -0.1,0.1 -0.2,0.2 -0.1,0.1 -0.4,0.4 -1,0.9 l -0.4,-0.5 1.7,-1.3 0.6,0 0,6.4 z" /><path
         id="path1587"
         d="m 411.1,338.7 c 0,1.1 -0.2,1.9 -0.5,2.5 -0.4,0.5 -0.9,0.8 -1.6,0.8 -0.7,0 -1.2,-0.3 -1.6,-0.8 -0.4,-0.6 -0.5,-1.4 -0.5,-2.5 0,-1.1 0.2,-1.9 0.5,-2.5 0.3,-0.6 0.9,-0.8 1.6,-0.8 0.7,0 1.2,0.3 1.6,0.8 0.3,0.6 0.5,1.4 0.5,2.5 z m -3.5,0 c 0,0.9 0.1,1.6 0.3,2 0.2,0.4 0.6,0.6 1.1,0.6 0.5,0 0.8,-0.2 1.1,-0.6 0.3,-0.4 0.3,-1.1 0.3,-2 0,-0.9 -0.1,-1.6 -0.3,-2 -0.2,-0.4 -0.6,-0.6 -1.1,-0.6 -0.5,0 -0.8,0.2 -1.1,0.6 -0.3,0.4 -0.3,1.1 -0.3,2 z" /><path
         id="path1589"
         d="m 416.1,335.5 0.8,0 -2.3,6.4 -0.7,0 -2.3,-6.4 0.8,0 1.5,4.2 c 0.2,0.5 0.3,0.9 0.4,1.4 0.1,-0.5 0.2,-0.9 0.4,-1.4 l 1.4,-4.2 z" /></g><g
       id="g1591"><path
         id="path1593"
         d="m 378,349.5 c 0,1.1 -0.3,1.9 -0.9,2.4 -0.6,0.6 -1.4,0.8 -2.5,0.8 l -1.8,0 0,-6.4 2,0 c 1,0 1.8,0.3 2.3,0.8 0.5,0.5 0.9,1.4 0.9,2.4 z m -0.8,0 c 0,-0.8 -0.2,-1.5 -0.6,-1.9 -0.4,-0.4 -1,-0.6 -1.9,-0.6 l -1.1,0 0,5.1 0.9,0 c 0.9,0 1.6,-0.2 2,-0.7 0.4,-0.5 0.7,-1.1 0.7,-1.9 z" /><path
         id="path1595"
         d="m 385,349.5 c 0,1 -0.3,1.8 -0.8,2.4 -0.5,0.6 -1.2,0.9 -2.2,0.9 -0.9,0 -1.7,-0.3 -2.2,-0.9 -0.5,-0.6 -0.8,-1.4 -0.8,-2.4 0,-1 0.3,-1.9 0.8,-2.4 0.5,-0.6 1.2,-0.9 2.2,-0.9 0.9,0 1.6,0.3 2.2,0.9 0.6,0.6 0.8,1.4 0.8,2.4 z m -5.1,0 c 0,0.9 0.2,1.5 0.6,2 0.4,0.4 0.9,0.7 1.6,0.7 0.7,0 1.2,-0.2 1.6,-0.7 0.4,-0.5 0.5,-1.1 0.5,-2 0,-0.9 -0.2,-1.5 -0.5,-2 -0.3,-0.5 -0.9,-0.7 -1.6,-0.7 -0.7,0 -1.3,0.2 -1.6,0.7 -0.4,0.5 -0.6,1.2 -0.6,2 z" /><path
         id="path1597"
         d="m 389.3,352.7 -2.2,-5.7 0,0 c 0,0.5 0.1,1 0.1,1.6 l 0,4.1 -0.7,0 0,-6.4 1.1,0 2,5.3 0,0 2.1,-5.3 1.1,0 0,6.4 -0.7,0 0,-4.1 c 0,-0.5 0,-1 0.1,-1.5 l 0,0 -2.2,5.7 -0.7,0 z" /><path
         id="path1599"
         d="m 398.2,352.7 -3.6,0 0,-6.4 3.6,0 0,0.7 -2.8,0 0,2.1 2.7,0 0,0.7 -2.7,0 0,2.4 2.8,0 0,0.5 z" /><path
         id="path1601"
         d="m 403.2,351 c 0,0.6 -0.2,1 -0.6,1.3 -0.4,0.3 -1,0.5 -1.7,0.5 -0.8,0 -1.3,-0.1 -1.8,-0.3 l 0,-0.7 c 0.3,0.1 0.6,0.2 0.9,0.3 0.3,0.1 0.6,0.1 0.9,0.1 0.5,0 0.9,-0.1 1.1,-0.3 0.3,-0.2 0.4,-0.5 0.4,-0.8 0,-0.2 0,-0.4 -0.1,-0.5 -0.1,-0.1 -0.2,-0.3 -0.4,-0.4 -0.2,-0.1 -0.5,-0.3 -1,-0.4 -0.6,-0.2 -1,-0.5 -1.3,-0.8 -0.3,-0.3 -0.4,-0.7 -0.4,-1.1 0,-0.5 0.2,-0.9 0.6,-1.2 0.4,-0.3 0.9,-0.4 1.5,-0.4 0.6,0 1.2,0.1 1.8,0.4 l -0.2,0.7 c -0.5,-0.2 -1,-0.3 -1.5,-0.3 -0.4,0 -0.7,0.1 -0.9,0.3 -0.2,0.2 -0.3,0.4 -0.3,0.7 0,0.2 0,0.4 0.1,0.5 0.1,0.1 0.2,0.3 0.4,0.4 0.2,0.1 0.5,0.2 0.9,0.4 0.7,0.2 1.1,0.5 1.4,0.8 0.1,0 0.2,0.4 0.2,0.8 z" /><path
         id="path1603"
         d="m 406.5,352.7 -0.7,0 0,-5.7 -2,0 0,-0.7 4.8,0 0,0.7 -2,0 0,5.7 z" /><path
         id="path1605"
         d="m 409.5,352.7 0,-6.4 0.7,0 0,6.4 -0.7,0 z" /><path
         id="path1607"
         d="m 414.8,346.9 c -0.7,0 -1.3,0.2 -1.7,0.7 -0.4,0.5 -0.6,1.1 -0.6,1.9 0,0.8 0.2,1.5 0.6,1.9 0.4,0.5 1,0.7 1.7,0.7 0.4,0 1,-0.1 1.5,-0.2 l 0,0.7 c -0.4,0.2 -1,0.3 -1.6,0.3 -0.9,0 -1.7,-0.3 -2.2,-0.9 -0.5,-0.6 -0.8,-1.4 -0.8,-2.4 0,-0.7 0.1,-1.2 0.4,-1.7 0.2,-0.5 0.6,-0.9 1.1,-1.2 0.5,-0.3 1,-0.4 1.6,-0.4 0.7,0 1.3,0.1 1.8,0.4 l -0.3,0.6 c -0.6,-0.3 -1,-0.4 -1.5,-0.4 z" /></g><g
       id="g1609"><path
         id="path1611"
         d="m 466.8,331.1 -0.8,0 0,-5.8 -2,0 0,-0.7 4.8,0 0,0.7 -2,0 0,5.8 z" /><path
         id="path1613"
         d="m 470.5,328.5 0,2.7 -0.7,0 0,-6.4 1.8,0 c 0.8,0 1.4,0.2 1.7,0.5 0.4,0.3 0.6,0.8 0.6,1.4 0,0.8 -0.4,1.4 -1.3,1.7 l 1.7,2.9 -0.9,0 -1.6,-2.7 -1.3,0 z m 0,-0.7 1,0 c 0.5,0 0.9,-0.1 1.2,-0.3 0.2,-0.2 0.4,-0.5 0.4,-0.9 0,-0.4 -0.1,-0.7 -0.4,-0.9 -0.2,-0.2 -0.7,-0.3 -1.2,-0.3 l -1,0 0,2.4 z" /><path
         id="path1615"
         d="m 479.4,331.1 -0.8,-2 -2.6,0 -0.8,2 -0.8,0 2.5,-6.5 0.6,0 2.5,6.5 -0.6,0 z m -1,-2.7 -0.7,-2 c -0.1,-0.3 -0.2,-0.6 -0.3,-0.9 -0.1,0.3 -0.2,0.6 -0.3,0.9 l -0.8,2 2.1,0 z" /><path
         id="path1617"
         d="m 486.1,331.1 -0.9,0 -3.5,-5.4 0,0 c 0,0.6 0.1,1.2 0.1,1.7 l 0,3.7 -0.8,0 0,-6.4 0.8,0 3.5,5.4 0,0 c 0,-0.1 0,-0.3 0,-0.8 0,-0.4 0,-0.7 0,-0.9 l 0,-3.7 0.7,0 0,6.4 z" /><path
         id="path1619"
         d="m 491.5,329.4 c 0,0.6 -0.2,1 -0.6,1.3 -0.4,0.3 -1,0.5 -1.7,0.5 -0.8,0 -1.3,-0.1 -1.8,-0.3 l 0,-0.7 c 0.3,0.1 0.6,0.2 0.9,0.3 0.3,0.1 0.6,0.1 0.9,0.1 0.5,0 0.9,-0.1 1.1,-0.3 0.3,-0.2 0.4,-0.5 0.4,-0.8 0,-0.2 0,-0.4 -0.1,-0.5 -0.1,-0.1 -0.2,-0.3 -0.4,-0.4 -0.2,-0.1 -0.5,-0.3 -1,-0.4 -0.6,-0.2 -1,-0.5 -1.3,-0.8 -0.3,-0.3 -0.4,-0.7 -0.4,-1.1 0,-0.5 0.2,-0.9 0.6,-1.2 0.4,-0.3 0.9,-0.4 1.5,-0.4 0.6,0 1.2,0.1 1.8,0.4 l -0.2,0.7 c -0.5,-0.2 -1,-0.3 -1.5,-0.3 -0.4,0 -0.7,0.1 -0.9,0.3 -0.2,0.2 -0.3,0.4 -0.3,0.7 0,0.2 0,0.4 0.1,0.5 0.1,0.1 0.2,0.3 0.4,0.4 0.2,0.1 0.5,0.2 0.9,0.4 0.7,0.2 1.1,0.5 1.4,0.8 0,0 0.2,0.4 0.2,0.8 z" /><path
         id="path1621"
         d="m 493.5,331.1 -0.7,0 0,-6.4 3.6,0 0,0.7 -2.8,0 0,2.4 2.7,0 0,0.7 -2.7,0 0,2.6 z" /><path
         id="path1623"
         d="m 503,327.9 c 0,1 -0.3,1.8 -0.8,2.4 -0.5,0.6 -1.2,0.9 -2.2,0.9 -0.9,0 -1.7,-0.3 -2.2,-0.9 -0.5,-0.6 -0.8,-1.4 -0.8,-2.4 0,-1 0.3,-1.9 0.8,-2.4 0.5,-0.6 1.2,-0.9 2.2,-0.9 0.9,0 1.6,0.3 2.2,0.9 0.6,0.6 0.8,1.4 0.8,2.4 z m -5.1,0 c 0,0.9 0.2,1.5 0.6,2 0.4,0.4 0.9,0.7 1.6,0.7 0.7,0 1.2,-0.2 1.6,-0.7 0.4,-0.5 0.5,-1.1 0.5,-2 0,-0.9 -0.2,-1.5 -0.5,-2 -0.3,-0.5 -0.9,-0.7 -1.6,-0.7 -0.7,0 -1.3,0.2 -1.6,0.7 -0.4,0.5 -0.6,1.2 -0.6,2 z" /><path
         id="path1625"
         d="m 505.2,328.5 0,2.7 -0.7,0 0,-6.4 1.8,0 c 0.8,0 1.4,0.2 1.7,0.5 0.4,0.3 0.6,0.8 0.6,1.4 0,0.8 -0.4,1.4 -1.3,1.7 l 1.7,2.9 -0.9,0 -1.6,-2.7 -1.3,0 z m 0,-0.7 1,0 c 0.5,0 0.9,-0.1 1.2,-0.3 0.2,-0.2 0.4,-0.5 0.4,-0.9 0,-0.4 -0.1,-0.7 -0.4,-0.9 -0.2,-0.2 -0.7,-0.3 -1.2,-0.3 l -1,0 0,2.4 z" /><path
         id="path1627"
         d="m 512.8,331.1 -2.2,-5.7 0,0 c 0,0.5 0.1,1 0.1,1.6 l 0,4.1 -0.7,0 0,-6.4 1.1,0 2,5.3 0,0 2.1,-5.3 1.1,0 0,6.4 -0.7,0 0,-4.1 c 0,-0.5 0,-1 0.1,-1.5 l 0,0 -2.2,5.7 -0.7,0 z" /><path
         id="path1629"
         d="m 521.7,331.1 -3.6,0 0,-6.4 3.6,0 0,0.7 -2.8,0 0,2.1 2.7,0 0,0.7 -2.7,0 0,2.4 2.8,0 0,0.5 z" /><path
         id="path1631"
         d="m 523.9,328.5 0,2.7 -0.7,0 0,-6.4 1.8,0 c 0.8,0 1.4,0.2 1.7,0.5 0.4,0.3 0.6,0.8 0.6,1.4 0,0.8 -0.4,1.4 -1.3,1.7 l 1.7,2.9 -0.9,0 -1.6,-2.7 -1.3,0 z m 0,-0.7 1,0 c 0.5,0 0.9,-0.1 1.2,-0.3 0.2,-0.2 0.4,-0.5 0.4,-0.9 0,-0.4 -0.1,-0.7 -0.4,-0.9 -0.2,-0.2 -0.7,-0.3 -1.2,-0.3 l -1,0 0,2.4 z" /></g><g
       id="g1633"><path
         id="path1635"
         d="m 468.9,340.5 -1,0 0,1.5 -0.7,0 0,-1.5 -3.1,0 0,-0.6 3,-4.3 0.8,0 0,4.3 1,0 0,0.6 z m -1.7,-0.7 0,-2.1 c 0,-0.4 0,-0.9 0,-1.4 l 0,0 c -0.1,0.3 -0.3,0.5 -0.4,0.7 l -2,2.9 2.4,0 z" /><path
         id="path1637"
         d="m 474,340.5 -1,0 0,1.5 -0.7,0 0,-1.5 -3.1,0 0,-0.6 3,-4.3 0.8,0 0,4.3 1,0 0,0.6 z m -1.6,-0.7 0,-2.1 c 0,-0.4 0,-0.9 0,-1.4 l 0,0 c -0.1,0.3 -0.3,0.5 -0.4,0.7 l -2,2.9 2.4,0 z" /><path
         id="path1639"
         d="m 478.9,338.7 c 0,1.1 -0.2,1.9 -0.5,2.5 -0.4,0.5 -0.9,0.8 -1.6,0.8 -0.7,0 -1.2,-0.3 -1.6,-0.8 -0.4,-0.6 -0.5,-1.4 -0.5,-2.5 0,-1.1 0.2,-1.9 0.5,-2.5 0.3,-0.6 0.9,-0.8 1.6,-0.8 0.7,0 1.2,0.3 1.6,0.8 0.3,0.6 0.5,1.4 0.5,2.5 z m -3.5,0 c 0,0.9 0.1,1.6 0.3,2 0.2,0.4 0.6,0.6 1.1,0.6 0.5,0 0.8,-0.2 1.1,-0.6 0.3,-0.4 0.3,-1.1 0.3,-2 0,-0.9 -0.1,-1.6 -0.3,-2 -0.2,-0.4 -0.6,-0.6 -1.1,-0.6 -0.5,0 -0.8,0.2 -1.1,0.6 -0.3,0.4 -0.3,1.1 -0.3,2 z" /><path
         id="path1641"
         d="m 483.9,335.5 0.8,0 -2.3,6.4 -0.7,0 -2.3,-6.4 0.8,0 1.5,4.2 c 0.2,0.5 0.3,0.9 0.4,1.4 0.1,-0.5 0.2,-0.9 0.4,-1.4 l 1.4,-4.2 z" /><path
         id="path1643"
         d="m 487.9,335.5 -2.4,6.4 -0.7,0 2.4,-6.4 0.7,0 z" /><path
         id="path1645"
         d="m 491.2,341.9 -0.7,0 0,-4.6 c 0,-0.4 0,-0.7 0,-1.1 -0.1,0.1 -0.1,0.1 -0.2,0.2 -0.1,0.1 -0.4,0.4 -1,0.9 l -0.4,-0.5 1.7,-1.3 0.6,0 0,6.4 z" /><path
         id="path1647"
         d="m 496.3,341.9 -0.7,0 0,-4.6 c 0,-0.4 0,-0.7 0,-1.1 -0.1,0.1 -0.1,0.1 -0.2,0.2 -0.1,0.1 -0.4,0.4 -1,0.9 l -0.4,-0.5 1.7,-1.3 0.6,0 0,6.4 z" /><path
         id="path1649"
         d="m 503,338.7 c 0,1.1 -0.2,1.9 -0.5,2.5 -0.4,0.5 -0.9,0.8 -1.6,0.8 -0.7,0 -1.2,-0.3 -1.6,-0.8 -0.4,-0.6 -0.5,-1.4 -0.5,-2.5 0,-1.1 0.2,-1.9 0.5,-2.5 0.3,-0.6 0.9,-0.8 1.6,-0.8 0.7,0 1.2,0.3 1.6,0.8 0.3,0.6 0.5,1.4 0.5,2.5 z m -3.5,0 c 0,0.9 0.1,1.6 0.3,2 0.2,0.4 0.6,0.6 1.1,0.6 0.5,0 0.8,-0.2 1.1,-0.6 0.3,-0.4 0.3,-1.1 0.3,-2 0,-0.9 -0.1,-1.6 -0.3,-2 -0.2,-0.4 -0.6,-0.6 -1.1,-0.6 -0.5,0 -0.8,0.2 -1.1,0.6 -0.3,0.4 -0.3,1.1 -0.3,2 z" /><path
         id="path1651"
         d="m 508,335.5 0.8,0 -2.3,6.4 -0.7,0 -2.3,-6.4 0.8,0 1.5,4.2 c 0.2,0.5 0.3,0.9 0.4,1.4 0.1,-0.5 0.2,-0.9 0.4,-1.4 l 1.4,-4.2 z" /></g><g
       id="g1653"><path
         id="path1655"
         d="m 469.9,349.5 c 0,1.1 -0.3,1.9 -0.9,2.4 -0.6,0.6 -1.4,0.8 -2.5,0.8 l -1.8,0 0,-6.4 2,0 c 1,0 1.8,0.3 2.3,0.8 0.5,0.5 0.9,1.4 0.9,2.4 z m -0.8,0 c 0,-0.8 -0.2,-1.5 -0.6,-1.9 -0.4,-0.4 -1,-0.6 -1.9,-0.6 l -1.1,0 0,5.1 0.9,0 c 0.9,0 1.6,-0.2 2,-0.7 0.4,-0.5 0.7,-1.1 0.7,-1.9 z" /><path
         id="path1657"
         d="m 476.9,349.5 c 0,1 -0.3,1.8 -0.8,2.4 -0.5,0.6 -1.2,0.9 -2.2,0.9 -0.9,0 -1.7,-0.3 -2.2,-0.9 -0.5,-0.6 -0.8,-1.4 -0.8,-2.4 0,-1 0.3,-1.9 0.8,-2.4 0.5,-0.6 1.2,-0.9 2.2,-0.9 0.9,0 1.6,0.3 2.2,0.9 0.6,0.6 0.8,1.4 0.8,2.4 z m -5.1,0 c 0,0.9 0.2,1.5 0.6,2 0.4,0.4 0.9,0.7 1.6,0.7 0.7,0 1.2,-0.2 1.6,-0.7 0.4,-0.5 0.5,-1.1 0.5,-2 0,-0.9 -0.2,-1.5 -0.5,-2 -0.3,-0.5 -0.9,-0.7 -1.6,-0.7 -0.7,0 -1.3,0.2 -1.6,0.7 -0.4,0.5 -0.6,1.1 -0.6,2 z" /><path
         id="path1659"
         d="m 481.2,352.7 -2.2,-5.7 0,0 c 0,0.5 0.1,1 0.1,1.6 l 0,4.1 -0.7,0 0,-6.4 1.1,0 2,5.3 0,0 2.1,-5.3 1.1,0 0,6.4 -0.7,0 0,-4.1 c 0,-0.5 0,-1 0.1,-1.5 l 0,0 -2.2,5.7 -0.7,0 z" /><path
         id="path1661"
         d="m 490.1,352.7 -3.6,0 0,-6.4 3.6,0 0,0.7 -2.8,0 0,2.1 2.7,0 0,0.7 -2.7,0 0,2.4 2.8,0 0,0.5 z" /><path
         id="path1663"
         d="m 495.1,351 c 0,0.6 -0.2,1 -0.6,1.3 -0.4,0.3 -1,0.5 -1.7,0.5 -0.8,0 -1.3,-0.1 -1.8,-0.3 l 0,-0.7 c 0.3,0.1 0.6,0.2 0.9,0.3 0.3,0.1 0.6,0.1 0.9,0.1 0.5,0 0.9,-0.1 1.1,-0.3 0.3,-0.2 0.4,-0.5 0.4,-0.8 0,-0.2 0,-0.4 -0.1,-0.5 -0.1,-0.1 -0.2,-0.3 -0.4,-0.4 -0.2,-0.1 -0.5,-0.3 -1,-0.4 -0.6,-0.2 -1,-0.5 -1.3,-0.8 -0.3,-0.3 -0.4,-0.7 -0.4,-1.1 0,-0.5 0.2,-0.9 0.6,-1.2 0.4,-0.3 0.9,-0.4 1.5,-0.4 0.6,0 1.2,0.1 1.8,0.4 l -0.2,0.7 c -0.5,-0.2 -1,-0.3 -1.5,-0.3 -0.4,0 -0.7,0.1 -0.9,0.3 -0.2,0.2 -0.3,0.4 -0.3,0.7 0,0.2 0,0.4 0.1,0.5 0.1,0.1 0.2,0.3 0.4,0.4 0.2,0.1 0.5,0.2 0.9,0.4 0.7,0.2 1.1,0.5 1.4,0.8 0.1,0 0.2,0.4 0.2,0.8 z" /><path
         id="path1665"
         d="m 498.4,352.7 -0.7,0 0,-5.7 -2,0 0,-0.7 4.8,0 0,0.7 -2,0 0,5.7 z" /><path
         id="path1667"
         d="m 501.4,352.7 0,-6.4 0.7,0 0,6.4 -0.7,0 z" /><path
         id="path1669"
         d="m 506.7,346.9 c -0.7,0 -1.3,0.2 -1.7,0.7 -0.4,0.5 -0.6,1.1 -0.6,1.9 0,0.8 0.2,1.5 0.6,1.9 0.4,0.5 1,0.7 1.7,0.7 0.4,0 1,-0.1 1.5,-0.2 l 0,0.7 c -0.4,0.2 -1,0.3 -1.6,0.3 -0.9,0 -1.7,-0.3 -2.2,-0.9 -0.5,-0.6 -0.8,-1.4 -0.8,-2.4 0,-0.7 0.1,-1.2 0.4,-1.7 0.2,-0.5 0.6,-0.9 1.1,-1.2 0.5,-0.3 1,-0.4 1.6,-0.4 0.7,0 1.3,0.1 1.8,0.4 l -0.3,0.6 c -0.5,-0.3 -1,-0.4 -1.5,-0.4 z" /></g><g
       id="g1671"><path
         id="path1673"
         d="m 401.7,431.9 -0.7,0 0,-4.6 c 0,-0.4 0,-0.7 0,-1.1 -0.1,0.1 -0.1,0.1 -0.2,0.2 -0.1,0.1 -0.4,0.4 -1,0.9 l -0.4,-0.5 1.7,-1.3 0.6,0 0,6.4 z" /><path
         id="path1675"
         d="m 406.8,431.9 -0.7,0 0,-4.6 c 0,-0.4 0,-0.7 0,-1.1 -0.1,0.1 -0.1,0.1 -0.2,0.2 -0.1,0.1 -0.4,0.4 -1,0.9 l -0.4,-0.5 1.7,-1.3 0.6,0 0,6.4 z" /><path
         id="path1677"
         d="m 413.5,428.7 c 0,1.1 -0.2,1.9 -0.5,2.5 -0.4,0.5 -0.9,0.8 -1.6,0.8 -0.7,0 -1.2,-0.3 -1.6,-0.8 -0.4,-0.6 -0.5,-1.4 -0.5,-2.5 0,-1.1 0.2,-1.9 0.5,-2.5 0.3,-0.6 0.9,-0.8 1.6,-0.8 0.7,0 1.2,0.3 1.6,0.8 0.4,0.6 0.5,1.4 0.5,2.5 z m -3.5,0 c 0,0.9 0.1,1.6 0.3,2 0.2,0.4 0.6,0.6 1.1,0.6 0.5,0 0.8,-0.2 1.1,-0.6 0.3,-0.4 0.3,-1.1 0.3,-2 0,-0.9 -0.1,-1.6 -0.3,-2 -0.2,-0.4 -0.6,-0.6 -1.1,-0.6 -0.5,0 -0.8,0.2 -1.1,0.6 -0.3,0.4 -0.3,1 -0.3,2 z" /><path
         id="path1679"
         d="m 418.5,425.5 0.8,0 -2.3,6.4 -0.7,0 -2.3,-6.4 0.8,0 1.5,4.2 c 0.2,0.5 0.3,0.9 0.4,1.4 0.1,-0.5 0.2,-0.9 0.4,-1.4 l 1.4,-4.2 z" /></g><g
       id="g1681"><path
         id="path1683"
         d="m 384.6,439.4 c 0,1.1 -0.3,1.9 -0.9,2.4 -0.6,0.6 -1.4,0.8 -2.5,0.8 l -1.8,0 0,-6.4 2,0 c 1,0 1.8,0.3 2.3,0.8 0.5,0.5 0.9,1.4 0.9,2.4 z m -0.8,0 c 0,-0.8 -0.2,-1.5 -0.6,-1.9 -0.4,-0.4 -1,-0.6 -1.9,-0.6 l -1.1,0 0,5.1 0.9,0 c 0.9,0 1.6,-0.2 2,-0.7 0.4,-0.5 0.7,-1 0.7,-1.9 z" /><path
         id="path1685"
         d="m 386,442.7 0,-6.4 0.7,0 0,6.4 -0.7,0 z" /><path
         id="path1687"
         d="m 392.2,441 c 0,0.6 -0.2,1 -0.6,1.3 -0.4,0.3 -1,0.5 -1.7,0.5 -0.8,0 -1.3,-0.1 -1.8,-0.3 l 0,-0.7 c 0.3,0.1 0.6,0.2 0.9,0.3 0.3,0.1 0.6,0.1 0.9,0.1 0.5,0 0.9,-0.1 1.1,-0.3 0.3,-0.2 0.4,-0.5 0.4,-0.8 0,-0.2 0,-0.4 -0.1,-0.5 -0.1,-0.1 -0.2,-0.3 -0.4,-0.4 -0.2,-0.1 -0.5,-0.3 -1,-0.4 -0.6,-0.2 -1,-0.5 -1.3,-0.8 -0.3,-0.3 -0.4,-0.7 -0.4,-1.1 0,-0.5 0.2,-0.9 0.6,-1.2 0.4,-0.3 0.9,-0.4 1.5,-0.4 0.6,0 1.2,0.1 1.8,0.4 l -0.2,0.7 c -0.5,-0.2 -1,-0.3 -1.5,-0.3 -0.4,0 -0.7,0.1 -0.9,0.3 -0.2,0.2 -0.3,0.4 -0.3,0.7 0,0.2 0,0.4 0.1,0.5 0.1,0.1 0.2,0.3 0.4,0.4 0.2,0.1 0.5,0.2 0.9,0.4 0.7,0.2 1.1,0.5 1.4,0.8 0,0 0.2,0.3 0.2,0.8 z" /><path
         id="path1689"
         d="m 395.5,442.7 -0.7,0 0,-5.8 -2,0 0,-0.7 4.8,0 0,0.7 -2,0 0,5.8 z" /><path
         id="path1691"
         d="m 399.2,440 0,2.7 -0.7,0 0,-6.4 1.8,0 c 0.8,0 1.4,0.2 1.7,0.5 0.4,0.3 0.6,0.8 0.6,1.4 0,0.8 -0.4,1.4 -1.3,1.7 l 1.7,2.9 -0.9,0 -1.6,-2.7 -1.3,0 z m 0,-0.6 1,0 c 0.5,0 0.9,-0.1 1.2,-0.3 0.2,-0.2 0.4,-0.5 0.4,-0.9 0,-0.4 -0.1,-0.7 -0.4,-0.9 -0.2,-0.2 -0.7,-0.3 -1.2,-0.3 l -1,0 0,2.4 z" /><path
         id="path1693"
         d="m 404,442.7 0,-6.4 0.7,0 0,6.4 -0.7,0 z" /><path
         id="path1695"
         d="m 406.5,436.3 1.8,0 c 0.9,0 1.5,0.1 1.9,0.4 0.4,0.3 0.6,0.7 0.6,1.2 0,0.4 -0.1,0.7 -0.3,0.9 -0.2,0.2 -0.5,0.4 -0.9,0.5 l 0,0 c 1,0.2 1.5,0.7 1.5,1.5 0,0.6 -0.2,1 -0.6,1.3 -0.4,0.3 -0.9,0.5 -1.6,0.5 l -2.2,0 0,-6.3 z m 0.8,2.7 1.2,0 c 0.5,0 0.9,-0.1 1.1,-0.2 0.2,-0.1 0.3,-0.4 0.3,-0.8 0,-0.4 -0.1,-0.6 -0.4,-0.8 -0.3,-0.2 -0.7,-0.2 -1.2,-0.2 l -1.1,0 0,2 z m 0,0.6 0,2.4 1.3,0 c 0.5,0 0.9,-0.1 1.2,-0.3 0.3,-0.2 0.4,-0.5 0.4,-0.9 0,-0.4 -0.1,-0.7 -0.4,-0.9 -0.3,-0.2 -0.7,-0.3 -1.2,-0.3 l -1.3,0 z" /><path
         id="path1697"
         d="m 417.2,436.3 0,4.2 c 0,0.7 -0.2,1.3 -0.7,1.7 -0.5,0.4 -1.1,0.6 -1.8,0.6 -0.7,0 -1.4,-0.2 -1.8,-0.6 -0.4,-0.4 -0.6,-1 -0.6,-1.7 l 0,-4.1 0.7,0 0,4.2 c 0,0.5 0.1,0.9 0.4,1.2 0.3,0.3 0.7,0.4 1.3,0.4 0.5,0 1,-0.1 1.3,-0.4 0.3,-0.3 0.4,-0.7 0.4,-1.2 l 0,-4.2 0.8,0 z" /><path
         id="path1699"
         d="m 420.9,442.7 -0.7,0 0,-5.8 -2,0 0,-0.7 4.8,0 0,0.7 -2,0 0,5.8 z" /><path
         id="path1701"
         d="m 423.9,442.7 0,-6.4 0.7,0 0,6.4 -0.7,0 z" /><path
         id="path1703"
         d="m 432,439.5 c 0,1 -0.3,1.8 -0.8,2.4 -0.5,0.6 -1.2,0.9 -2.2,0.9 -0.9,0 -1.7,-0.3 -2.2,-0.9 -0.5,-0.6 -0.8,-1.4 -0.8,-2.4 0,-1 0.3,-1.9 0.8,-2.4 0.5,-0.6 1.2,-0.9 2.2,-0.9 0.9,0 1.6,0.3 2.2,0.9 0.6,0.6 0.8,1.3 0.8,2.4 z m -5.1,0 c 0,0.9 0.2,1.5 0.6,2 0.4,0.4 0.9,0.7 1.6,0.7 0.7,0 1.2,-0.2 1.6,-0.7 0.4,-0.5 0.5,-1.1 0.5,-2 0,-0.9 -0.2,-1.5 -0.5,-2 -0.3,-0.5 -0.9,-0.7 -1.6,-0.7 -0.7,0 -1.3,0.2 -1.6,0.7 -0.5,0.5 -0.6,1.1 -0.6,2 z" /><path
         id="path1705"
         d="m 438.4,442.7 -0.9,0 -3.5,-5.4 0,0 c 0,0.6 0.1,1.2 0.1,1.7 l 0,3.7 -0.7,0 0,-6.4 0.8,0 3.5,5.4 0,0 c 0,-0.1 0,-0.3 0,-0.8 0,-0.4 0,-0.7 0,-0.9 l 0,-3.7 0.7,0 0,6.4 z" /></g><g
       id="g1707"><path
         id="path1709"
         d="m 494.8,431.9 -4.2,0 0,-0.6 1.7,-1.7 c 0.5,-0.5 0.9,-0.9 1,-1.1 0.1,-0.2 0.3,-0.4 0.4,-0.7 0.1,-0.3 0.1,-0.4 0.1,-0.7 0,-0.3 -0.1,-0.6 -0.3,-0.8 -0.2,-0.2 -0.5,-0.3 -0.9,-0.3 -0.3,0 -0.5,0 -0.8,0.1 -0.3,0.1 -0.5,0.2 -0.8,0.5 l -0.4,-0.5 c 0.6,-0.5 1.2,-0.7 1.9,-0.7 0.6,0 1.1,0.2 1.4,0.5 0.3,0.3 0.5,0.7 0.5,1.2 0,0.4 -0.1,0.8 -0.3,1.2 -0.2,0.4 -0.7,0.9 -1.3,1.5 l -1.4,1.4 0,0 3.3,0 0,0.7 z" /><path
         id="path1711"
         d="m 499.9,431.9 -4.2,0 0,-0.6 1.7,-1.7 c 0.5,-0.5 0.9,-0.9 1,-1.1 0.1,-0.2 0.3,-0.4 0.4,-0.7 0.1,-0.3 0.1,-0.4 0.1,-0.7 0,-0.3 -0.1,-0.6 -0.3,-0.8 -0.2,-0.2 -0.5,-0.3 -0.9,-0.3 -0.3,0 -0.5,0 -0.8,0.1 -0.3,0.1 -0.5,0.2 -0.8,0.5 l -0.4,-0.5 c 0.6,-0.5 1.2,-0.7 1.9,-0.7 0.6,0 1.1,0.2 1.4,0.5 0.3,0.3 0.5,0.7 0.5,1.2 0,0.4 -0.1,0.8 -0.3,1.2 -0.2,0.4 -0.7,0.9 -1.3,1.5 l -1.4,1.4 0,0 3.3,0 0,0.7 z" /><path
         id="path1713"
         d="m 505.1,428.7 c 0,1.1 -0.2,1.9 -0.5,2.5 -0.4,0.5 -0.9,0.8 -1.6,0.8 -0.7,0 -1.2,-0.3 -1.6,-0.8 -0.4,-0.6 -0.5,-1.4 -0.5,-2.5 0,-1.1 0.2,-1.9 0.5,-2.5 0.3,-0.6 0.9,-0.8 1.6,-0.8 0.7,0 1.2,0.3 1.6,0.8 0.3,0.6 0.5,1.4 0.5,2.5 z m -3.5,0 c 0,0.9 0.1,1.6 0.3,2 0.2,0.4 0.6,0.6 1.1,0.6 0.5,0 0.8,-0.2 1.1,-0.6 0.3,-0.4 0.3,-1.1 0.3,-2 0,-0.9 -0.1,-1.6 -0.3,-2 -0.2,-0.4 -0.6,-0.6 -1.1,-0.6 -0.5,0 -0.8,0.2 -1.1,0.6 -0.3,0.4 -0.3,1 -0.3,2 z" /><path
         id="path1715"
         d="m 510.1,425.5 0.8,0 -2.3,6.4 -0.7,0 -2.3,-6.4 0.8,0 1.5,4.2 c 0.2,0.5 0.3,0.9 0.4,1.4 0.1,-0.5 0.2,-0.9 0.4,-1.4 l 1.4,-4.2 z" /></g><g
       id="g1717"><path
         id="path1719"
         d="m 476.1,439.4 c 0,1.1 -0.3,1.9 -0.9,2.4 -0.6,0.6 -1.4,0.8 -2.5,0.8 l -1.7,0 0,-6.4 2,0 c 1,0 1.8,0.3 2.3,0.8 0.5,0.5 0.8,1.4 0.8,2.4 z m -0.7,0 c 0,-0.8 -0.2,-1.5 -0.6,-1.9 -0.4,-0.4 -1,-0.6 -1.9,-0.6 l -1.1,0 0,5.1 0.9,0 c 0.9,0 1.6,-0.2 2,-0.7 0.4,-0.5 0.7,-1 0.7,-1.9 z" /><path
         id="path1721"
         d="m 477.6,442.7 0,-6.4 0.7,0 0,6.4 -0.7,0 z" /><path
         id="path1723"
         d="m 483.7,441 c 0,0.6 -0.2,1 -0.6,1.3 -0.4,0.3 -1,0.5 -1.7,0.5 -0.8,0 -1.3,-0.1 -1.8,-0.3 l 0,-0.7 c 0.3,0.1 0.6,0.2 0.9,0.3 0.3,0.1 0.6,0.1 0.9,0.1 0.5,0 0.9,-0.1 1.1,-0.3 0.3,-0.2 0.4,-0.5 0.4,-0.8 0,-0.2 0,-0.4 -0.1,-0.5 -0.1,-0.1 -0.2,-0.3 -0.4,-0.4 -0.2,-0.1 -0.5,-0.3 -1,-0.4 -0.6,-0.2 -1,-0.5 -1.3,-0.8 -0.3,-0.3 -0.4,-0.7 -0.4,-1.1 0,-0.5 0.2,-0.9 0.6,-1.2 0.4,-0.3 0.9,-0.4 1.5,-0.4 0.6,0 1.2,0.1 1.8,0.4 l -0.2,0.7 c -0.5,-0.2 -1,-0.3 -1.5,-0.3 -0.4,0 -0.7,0.1 -0.9,0.3 -0.2,0.2 -0.3,0.4 -0.3,0.7 0,0.2 0,0.4 0.1,0.5 0.1,0.1 0.2,0.3 0.4,0.4 0.2,0.1 0.5,0.2 0.9,0.4 0.7,0.2 1.1,0.5 1.4,0.8 0.1,0 0.2,0.3 0.2,0.8 z" /><path
         id="path1725"
         d="m 487,442.7 -0.7,0 0,-5.8 -2,0 0,-0.7 4.8,0 0,0.7 -2,0 0,5.8 z" /><path
         id="path1727"
         d="m 490.8,440 0,2.7 -0.8,0 0,-6.4 1.8,0 c 0.8,0 1.4,0.2 1.7,0.5 0.4,0.3 0.6,0.8 0.6,1.4 0,0.8 -0.4,1.4 -1.3,1.7 l 1.7,2.9 -0.9,0 -1.6,-2.7 -1.2,0 z m 0,-0.6 1,0 c 0.5,0 0.9,-0.1 1.2,-0.3 0.2,-0.2 0.4,-0.5 0.4,-0.9 0,-0.4 -0.1,-0.7 -0.4,-0.9 -0.2,-0.2 -0.7,-0.3 -1.2,-0.3 l -1,0 0,2.4 z" /><path
         id="path1729"
         d="m 495.6,442.7 0,-6.4 0.7,0 0,6.4 -0.7,0 z" /><path
         id="path1731"
         d="m 498.1,436.3 1.8,0 c 0.9,0 1.5,0.1 1.9,0.4 0.4,0.3 0.6,0.7 0.6,1.2 0,0.4 -0.1,0.7 -0.3,0.9 -0.2,0.2 -0.5,0.4 -0.9,0.5 l 0,0 c 1,0.2 1.5,0.7 1.5,1.5 0,0.6 -0.2,1 -0.6,1.3 -0.4,0.3 -0.9,0.5 -1.6,0.5 l -2.2,0 0,-6.3 z m 0.7,2.7 1.2,0 c 0.5,0 0.9,-0.1 1.1,-0.2 0.2,-0.1 0.3,-0.4 0.3,-0.8 0,-0.4 -0.1,-0.6 -0.4,-0.8 -0.3,-0.2 -0.7,-0.2 -1.2,-0.2 l -1.1,0 0,2 z m 0,0.6 0,2.4 1.3,0 c 0.5,0 0.9,-0.1 1.2,-0.3 0.3,-0.2 0.4,-0.5 0.4,-0.9 0,-0.4 -0.1,-0.7 -0.4,-0.9 -0.3,-0.2 -0.7,-0.3 -1.2,-0.3 l -1.3,0 z" /><path
         id="path1733"
         d="m 508.8,436.3 0,4.2 c 0,0.7 -0.2,1.3 -0.7,1.7 -0.5,0.4 -1.1,0.6 -1.8,0.6 -0.7,0 -1.4,-0.2 -1.8,-0.6 -0.4,-0.4 -0.6,-1 -0.6,-1.7 l 0,-4.1 0.7,0 0,4.2 c 0,0.5 0.1,0.9 0.4,1.2 0.3,0.3 0.7,0.4 1.3,0.4 0.5,0 1,-0.1 1.3,-0.4 0.3,-0.3 0.4,-0.7 0.4,-1.2 l 0,-4.2 0.8,0 z" /><path
         id="path1735"
         d="m 512.4,442.7 -0.7,0 0,-5.8 -2,0 0,-0.7 4.8,0 0,0.7 -2,0 0,5.8 z" /><path
         id="path1737"
         d="m 515.4,442.7 0,-6.4 0.7,0 0,6.4 -0.7,0 z" /><path
         id="path1739"
         d="m 523.5,439.5 c 0,1 -0.3,1.8 -0.8,2.4 -0.5,0.6 -1.2,0.9 -2.2,0.9 -0.9,0 -1.7,-0.3 -2.2,-0.9 -0.5,-0.6 -0.8,-1.4 -0.8,-2.4 0,-1 0.3,-1.9 0.8,-2.4 0.5,-0.6 1.2,-0.9 2.2,-0.9 0.9,0 1.6,0.3 2.2,0.9 0.6,0.6 0.8,1.3 0.8,2.4 z m -5.1,0 c 0,0.9 0.2,1.5 0.6,2 0.4,0.4 0.9,0.7 1.6,0.7 0.7,0 1.2,-0.2 1.6,-0.7 0.4,-0.5 0.5,-1.1 0.5,-2 0,-0.9 -0.2,-1.5 -0.5,-2 -0.3,-0.5 -0.9,-0.7 -1.6,-0.7 -0.7,0 -1.3,0.2 -1.6,0.7 -0.4,0.5 -0.6,1.1 -0.6,2 z" /><path
         id="path1741"
         d="m 530,442.7 -0.9,0 -3.5,-5.4 0,0 c 0,0.6 0.1,1.2 0.1,1.7 l 0,3.7 -0.7,0 0,-6.4 0.8,0 3.5,5.4 0,0 c 0,-0.1 0,-0.3 0,-0.8 0,-0.4 0,-0.7 0,-0.9 l 0,-3.7 0.7,0 0,6.4 z" /></g><g
       id="g1743"><path
         id="path1745"
         d="m 403.4,395.7 0,0.7 -4.6,0 c -0.4,0 -0.7,0 -1.1,0 0.1,0.1 0.1,0.1 0.2,0.2 0.1,0.1 0.4,0.4 0.9,1 l -0.5,0.4 -1.3,-1.7 0,-0.6 6.4,0 z" /><path
         id="path1747"
         d="m 403.4,390.6 0,0.7 -4.6,0 c -0.4,0 -0.7,0 -1.1,0 0.1,0.1 0.1,0.1 0.2,0.2 0.1,0.1 0.4,0.4 0.9,1 l -0.5,0.4 -1.3,-1.7 0,-0.6 6.4,0 z" /><path
         id="path1749"
         d="m 400.2,383.9 c 1.1,0 1.9,0.2 2.5,0.5 0.5,0.4 0.8,0.9 0.8,1.6 0,0.7 -0.3,1.2 -0.8,1.6 -0.6,0.4 -1.4,0.5 -2.5,0.5 -1.1,0 -1.9,-0.2 -2.5,-0.5 -0.6,-0.3 -0.8,-0.9 -0.8,-1.6 0,-0.7 0.3,-1.2 0.8,-1.6 0.6,-0.3 1.5,-0.5 2.5,-0.5 z m 0,3.5 c 0.9,0 1.6,-0.1 2,-0.3 0.4,-0.2 0.6,-0.6 0.6,-1.1 0,-0.5 -0.2,-0.8 -0.6,-1.1 -0.4,-0.3 -1.1,-0.3 -2,-0.3 -0.9,0 -1.6,0.1 -2,0.3 -0.4,0.2 -0.6,0.6 -0.6,1.1 0,0.5 0.2,0.8 0.6,1.1 0.4,0.3 1.1,0.3 2,0.3 z" /><path
         id="path1751"
         d="m 397,378.9 0,-0.8 6.4,2.3 0,0.7 -6.4,2.3 0,-0.8 4.2,-1.5 c 0.5,-0.2 0.9,-0.3 1.4,-0.4 -0.5,-0.1 -0.9,-0.2 -1.4,-0.4 l -4.2,-1.4 z" /></g><g
       id="g1753"><path
         id="path1755"
         d="m 493,393.7 0,4.2 -0.6,0 -1.7,-1.7 c -0.5,-0.5 -0.9,-0.9 -1.1,-1 -0.2,-0.1 -0.4,-0.3 -0.7,-0.4 -0.3,-0.1 -0.4,-0.1 -0.7,-0.1 -0.3,0 -0.6,0.1 -0.8,0.3 -0.2,0.2 -0.3,0.5 -0.3,0.9 0,0.3 0,0.5 0.1,0.8 0.1,0.3 0.2,0.5 0.5,0.8 l -0.5,0.4 c -0.5,-0.6 -0.7,-1.2 -0.7,-1.9 0,-0.6 0.2,-1.1 0.5,-1.4 0.3,-0.3 0.7,-0.5 1.2,-0.5 0.4,0 0.8,0.1 1.2,0.3 0.4,0.2 0.9,0.7 1.5,1.3 l 1.4,1.4 0,0 0,-3.3 0.7,0 z" /><path
         id="path1757"
         d="m 493,388.6 0,4.2 -0.6,0 -1.7,-1.7 c -0.5,-0.5 -0.9,-0.9 -1.1,-1 -0.2,-0.1 -0.4,-0.3 -0.7,-0.4 -0.3,-0.1 -0.4,-0.1 -0.7,-0.1 -0.3,0 -0.6,0.1 -0.8,0.3 -0.2,0.2 -0.3,0.5 -0.3,0.9 0,0.3 0,0.5 0.1,0.8 0.1,0.3 0.2,0.5 0.5,0.8 l -0.5,0.4 c -0.5,-0.6 -0.7,-1.2 -0.7,-1.9 0,-0.6 0.2,-1.1 0.5,-1.4 0.3,-0.3 0.7,-0.5 1.2,-0.5 0.4,0 0.8,0.1 1.2,0.3 0.4,0.2 0.9,0.7 1.5,1.3 l 1.4,1.4 0,0 0,-3.3 0.7,0 z" /><path
         id="path1759"
         d="m 489.7,383.4 c 1.1,0 1.9,0.2 2.5,0.5 0.5,0.4 0.8,0.9 0.8,1.6 0,0.7 -0.3,1.2 -0.8,1.6 -0.6,0.4 -1.4,0.5 -2.5,0.5 -1.1,0 -1.9,-0.2 -2.5,-0.5 -0.6,-0.3 -0.8,-0.9 -0.8,-1.6 0,-0.7 0.3,-1.2 0.8,-1.6 0.6,-0.3 1.5,-0.5 2.5,-0.5 z m 0,3.5 c 0.9,0 1.6,-0.1 2,-0.3 0.4,-0.2 0.6,-0.6 0.6,-1.1 0,-0.5 -0.2,-0.8 -0.6,-1.1 -0.4,-0.3 -1.1,-0.3 -2,-0.3 -0.9,0 -1.6,0.1 -2,0.3 -0.4,0.2 -0.6,0.6 -0.6,1.1 0,0.5 0.2,0.8 0.6,1.1 0.4,0.3 1.1,0.3 2,0.3 z" /><path
         id="path1761"
         d="m 486.5,378.4 0,-0.8 6.4,2.3 0,0.7 -6.4,2.3 0,-0.8 4.2,-1.5 c 0.5,-0.2 0.9,-0.3 1.4,-0.4 -0.5,-0.1 -0.9,-0.2 -1.4,-0.4 l -4.2,-1.4 z" /></g></g><g
     transform="translate(-26.792667,-30.456133)"
     style="display:inline"
     id="layer1"><circle
       r="13.258252"
       cy="301.33444"
       cx="153.74513"
       id="path6939"
       style="color:#000000;clip-rule:nonzero;display:inline;overflow:visible;visibility:visible;opacity:1;isolation:auto;mix-blend-mode:normal;color-interpolation:sRGB;color-interpolation-filters:linearRGB;solid-color:#000000;solid-opacity:1;fill:url(#linearGradient5855);fill-opacity:1;fill-rule:nonzero;stroke:url(#radialGradient5857);stroke-width:4;stroke-linecap:butt;stroke-linejoin:miter;stroke-miterlimit:4;stroke-dasharray:none;stroke-dashoffset:0;stroke-opacity:0;color-rendering:auto;image-rendering:auto;shape-rendering:auto;text-rendering:auto;enable-background:accumulate" /><circle
       style="color:#000000;clip-rule:nonzero;display:inline;overflow:visible;visibility:visible;opacity:1;isolation:auto;mix-blend-mode:normal;color-interpolation:sRGB;color-interpolation-filters:linearRGB;solid-color:#000000;solid-opacity:1;fill:url(#linearGradient5859);fill-opacity:1;fill-rule:nonzero;stroke:url(#radialGradient5861);stroke-width:4;stroke-linecap:butt;stroke-linejoin:miter;stroke-miterlimit:4;stroke-dasharray:none;stroke-dashoffset:0;stroke-opacity:0;color-rendering:auto;image-rendering:auto;shape-rendering:auto;text-rendering:auto;enable-background:accumulate"
       id="circle6965"
       cx="333.60626"
       cy="265.30667"
       r="13.258252" /><circle
       r="13.258252"
       cy="220.86223"
       cx="381.17572"
       id="circle6973"
       style="color:#000000;clip-rule:nonzero;display:inline;overflow:visible;visibility:visible;opacity:1;isolation:auto;mix-blend-mode:normal;color-interpolation:sRGB;color-interpolation-filters:linearRGB;solid-color:#000000;solid-opacity:1;fill:url(#linearGradient5863);fill-opacity:1;fill-rule:nonzero;stroke:url(#radialGradient5865);stroke-width:4;stroke-linecap:butt;stroke-linejoin:miter;stroke-miterlimit:4;stroke-dasharray:none;stroke-dashoffset:0;stroke-opacity:0;color-rendering:auto;image-rendering:auto;shape-rendering:auto;text-rendering:auto;enable-background:accumulate" /><circle
       r="13.258252"
       cy="351.99228"
       cx="435.75458"
       id="path6939-0"
       style="color:#000000;clip-rule:nonzero;display:inline;overflow:visible;visibility:visible;opacity:1;isolation:auto;mix-blend-mode:normal;color-interpolation:sRGB;color-interpolation-filters:linearRGB;solid-color:#000000;solid-opacity:1;fill:url(#linearGradient5867);fill-opacity:1;fill-rule:nonzero;stroke:url(#radialGradient5869);stroke-width:4;stroke-linecap:butt;stroke-linejoin:miter;stroke-miterlimit:4;stroke-dasharray:none;stroke-dashoffset:0;stroke-opacity:0;color-rendering:auto;image-rendering:auto;shape-rendering:auto;text-rendering:auto;enable-background:accumulate" /><circle
       style="color:#000000;clip-rule:nonzero;display:inline;overflow:visible;visibility:visible;opacity:1;isolation:auto;mix-blend-mode:normal;color-interpolation:sRGB;color-interpolation-filters:linearRGB;solid-color:#000000;solid-opacity:1;fill:url(#linearGradient5871);fill-opacity:1;fill-rule:nonzero;stroke:url(#radialGradient5873);stroke-width:4;stroke-linecap:butt;stroke-linejoin:miter;stroke-miterlimit:4;stroke-dasharray:none;stroke-dashoffset:0;stroke-opacity:0;color-rendering:auto;image-rendering:auto;shape-rendering:auto;text-rendering:auto;enable-background:accumulate"
       id="circle8422"
       cx="526.97131"
       cy="352.08066"
       r="13.258252" /></g><g
     transform="translate(-26.792667,-30.456133)"
     style="display:inline"
     id="layer3"><text
       id="text6961"
       y="308.30789"
       x="147.77455"
       style="font-style:normal;font-variant:normal;font-weight:normal;font-stretch:normal;font-size:17.5px;line-height:125%;font-family:sans-serif;-inkscape-font-specification:'sans-serif, Normal';text-align:start;letter-spacing:0px;word-spacing:0px;writing-mode:lr-tb;text-anchor:start;display:inline;fill:#ffffff;fill-opacity:1;stroke:none;stroke-width:1px;stroke-linecap:butt;stroke-linejoin:miter;stroke-opacity:1"
       xml:space="preserve"><tspan
         y="308.30789"
         x="147.77455"
         id="tspan6963">5</tspan></text>
<text
       xml:space="preserve"
       style="font-style:normal;font-variant:normal;font-weight:normal;font-stretch:normal;font-size:17.5px;line-height:125%;font-family:sans-serif;-inkscape-font-specification:'sans-serif, Normal';text-align:start;letter-spacing:0px;word-spacing:0px;writing-mode:lr-tb;text-anchor:start;display:inline;fill:#ffffff;fill-opacity:1;stroke:none;stroke-width:1px;stroke-linecap:butt;stroke-linejoin:miter;stroke-opacity:1"
       x="327.63568"
       y="272.28012"
       id="text6967"><tspan
         id="tspan6969"
         x="327.63568"
         y="272.28012">3</tspan></text>
<text
       id="text6975"
       y="227.83568"
       x="375.20514"
       style="font-style:normal;font-variant:normal;font-weight:normal;font-stretch:normal;font-size:17.5px;line-height:125%;font-family:sans-serif;-inkscape-font-specification:'sans-serif, Normal';text-align:start;letter-spacing:0px;word-spacing:0px;writing-mode:lr-tb;text-anchor:start;display:inline;fill:#ffffff;fill-opacity:1;stroke:none;stroke-width:1px;stroke-linecap:butt;stroke-linejoin:miter;stroke-opacity:1"
       xml:space="preserve"><tspan
         y="227.83568"
         x="375.20514"
         id="tspan6977">1</tspan></text>
<text
       id="text6961-3"
       y="358.9657"
       x="429.784"
       style="font-style:normal;font-variant:normal;font-weight:normal;font-stretch:normal;font-size:17.5px;line-height:125%;font-family:sans-serif;-inkscape-font-specification:'sans-serif, Normal';text-align:start;letter-spacing:0px;word-spacing:0px;writing-mode:lr-tb;text-anchor:start;display:inline;fill:#ffffff;fill-opacity:1;stroke:none;stroke-width:1px;stroke-linecap:butt;stroke-linejoin:miter;stroke-opacity:1"
       xml:space="preserve"><tspan
         y="358.9657"
         x="429.784"
         id="tspan6963-3">2</tspan></text>
<text
       xml:space="preserve"
       style="font-style:normal;font-variant:normal;font-weight:normal;font-stretch:normal;font-size:17.5px;line-height:125%;font-family:sans-serif;-inkscape-font-specification:'sans-serif, Normal';text-align:start;letter-spacing:0px;word-spacing:0px;writing-mode:lr-tb;text-anchor:start;display:inline;fill:#ffffff;fill-opacity:1;stroke:none;stroke-width:1px;stroke-linecap:butt;stroke-linejoin:miter;stroke-opacity:1"
       x="521.00073"
       y="359.05408"
       id="text8424"><tspan
         id="tspan8426"
         x="521.00073"
         y="359.05408">2</tspan></text>
</g><g
     transform="translate(-26.792667,-30.456133)"
     style="display:none"
     id="layer5"><rect
       y="25.584738"
       x="12.178486"
       height="864.67249"
       width="1573.4603"
       id="rect5845"
       style="color:#000000;clip-rule:nonzero;display:inline;overflow:visible;visibility:visible;opacity:1;isolation:auto;mix-blend-mode:normal;color-interpolation:sRGB;color-interpolation-filters:linearRGB;solid-color:#000000;solid-opacity:1;fill:#000080;fill-opacity:1;fill-rule:nonzero;stroke:none;stroke-width:4;stroke-linecap:butt;stroke-linejoin:miter;stroke-miterlimit:4;stroke-dasharray:none;stroke-dashoffset:0;stroke-opacity:0;color-rendering:auto;image-rendering:auto;shape-rendering:auto;text-rendering:auto;enable-background:accumulate" /></g><g
     transform="translate(-26.792667,-30.456133)"
     id="g5666"
     style="display:inline"><ellipse
       ry="21.870644"
       rx="22.247652"
       style="color:#000000;clip-rule:nonzero;display:inline;overflow:visible;visibility:visible;opacity:1;isolation:auto;mix-blend-mode:normal;color-interpolation:sRGB;color-interpolation-filters:linearRGB;solid-color:#000000;solid-opacity:1;fill:#ff0000;fill-opacity:1;fill-rule:nonzero;stroke:url(#radialGradient5849);stroke-width:6.65497732;stroke-linecap:butt;stroke-linejoin:miter;stroke-miterlimit:4;stroke-dasharray:none;stroke-dashoffset:0;stroke-opacity:0;color-rendering:auto;image-rendering:auto;shape-rendering:auto;text-rendering:auto;enable-background:accumulate"
       id="circle5672"
       cx="311.46323"
       cy="208.41225" /></g><g
     transform="translate(-26.792667,-30.456133)"
     id="g5730"
     style="display:inline"><text
       transform="scale(1.0085822,0.99149083)"
       xml:space="preserve"
       style="font-style:normal;font-variant:normal;font-weight:normal;font-stretch:normal;font-size:29.1155262px;line-height:125%;font-family:sans-serif;-inkscape-font-specification:'sans-serif, Normal';text-align:start;letter-spacing:0px;word-spacing:0px;writing-mode:lr-tb;text-anchor:start;display:inline;fill:#ffffff;fill-opacity:1;stroke:none;stroke-width:1px;stroke-linecap:butt;stroke-linejoin:miter;stroke-opacity:1"
       x="298.87946"
       y="221.8029"
       id="text5740"><tspan
         id="tspan5742"
         x="298.87946"
         y="221.8029">1</tspan></text>
</g></svg>